<?xml version="1.0" standalone="no"?>
<!DOCTYPE svg PUBLIC "-//W3C//DTD SVG 1.1//EN" "http://www.w3.org/Graphics/SVG/1.1/DTD/svg11.dtd" >
<svg xmlns="http://www.w3.org/2000/svg">
<metadata></metadata>
<defs>
<font id="2dumbregular" horiz-adv-x="833" >
<font-face units-per-em="1000" ascent="750" descent="-250" />
<missing-glyph horiz-adv-x="500" />
<glyph unicode="&#xd;" horiz-adv-x="500" />
<glyph unicode=" "  horiz-adv-x="500" />
<glyph unicode="&#x09;" horiz-adv-x="500" />
<glyph unicode="&#xa0;" horiz-adv-x="500" />
<glyph unicode="!" horiz-adv-x="309" d="M244 83q8 -24 3.5 -46.5t-36.5 -39.5q-16 0 -34.5 -1t-36 2t-30 12.5t-16.5 29.5q4 12 2 27t-1 29t9 25t32 15q16 4 33.5 2.5t32.5 -8.5t26 -19t16 -28zM157 40h22q8 0 15 12t7 20q-12 16 -23.5 16t-18.5 -8t-8.5 -20t6.5 -20zM147 844l34 -514v-6l-6 -6q-10 -8 -19 -15 t-20 -7h-7l-26 40v508h44z" />
<glyph unicode="&#x22;" horiz-adv-x="275" d="M255 541q0 -16 -0.5 -25t-3 -13t-8.5 -4.5t-16 -0.5q-16 27 -30 62.5t-18 74.5t6 77.5t42 70.5q18 -11 25 -31t7.5 -44.5t-2.5 -51t-6 -50t-3 -41t7 -24.5zM56 455l-43 43v242q32 0 48 -13t20.5 -35.5t1 -51.5t-9 -60.5t-11.5 -64t-6 -60.5z" />
<glyph unicode="#" horiz-adv-x="891" d="M627 579q24 -12 52.5 -14.5t53 -5.5t40.5 -12t16 -33l-33 -32q0 24 -15.5 32t-36.5 8t-43 -4t-34 -4q-24 -24 -33 -53.5t-12 -59.5t-5.5 -59.5t-14.5 -54.5q37 0 78.5 5t84 11.5t83.5 11.5t77 5h33q-36 -24 -78 -37.5t-87.5 -22.5t-93.5 -16.5t-97 -19.5 q-12 -12 -13.5 -30t1.5 -39.5t7.5 -45t4.5 -47.5q-24 0 -37 5.5t-19 14.5t-7 20.5t-1 23.5v65q-24 0 -53.5 4t-60 4t-60 -8t-53.5 -33q0 -12 4 -33.5t4 -43t-8 -37t-32 -15.5v162q-12 0 -34 -4t-46.5 -4t-47 8t-34.5 33q12 12 34.5 14t47 2t46.5 2t34 14q12 24 19 48.5 t13 52t13.5 58.5t19.5 67q-36 0 -72.5 -9.5t-73 -18.5t-73 -13t-72.5 8v33q32 16 73 19t82.5 3t78.5 2.5t62.5 19t34 51t-7.5 99.5q12 -13 19 -14t10 2q4 4 4 12q12 -12 13.5 -29.5t-1.5 -35.5t-7.5 -35t-4.5 -29q36 0 76 -2.5t73 6.5t55 36.5t22 88.5q24 -12 27.5 -24.5 t0.5 -24.5t-5.5 -24t9.5 -24zM531 482h-98q-32 8 -52 1t-31.5 -24t-17 -41.5t-9.5 -52.5t-7.5 -56.5t-11.5 -52.5l194 31z" />
<glyph unicode="$" horiz-adv-x="1010" d="M508 942v-266q22 -11 47.5 -12.5t50 1t47.5 5.5t40 2t27.5 -10t10.5 -31q0 -17 -0.5 -25.5t-5 -13t-13.5 -5t-25 -0.5q0 16 -15 25t-36 13.5t-44 5t-39 0.5q-17 -33 -19 -65.5t2 -62t10.5 -54t6.5 -40.5q50 -17 106.5 -43t111 -63.5t102.5 -88t81 -117.5q0 -17 -7.5 -40 t-20.5 -44t-29 -35.5t-32 -14.5l-178 45q-11 -11 -12.5 -25.5t1 -29t5.5 -28.5t2 -25.5t-10 -18t-31 -6.5q-17 33 -27.5 72t-23 72t-31.5 55.5t-52 22.5q0 -33 14 -66.5t30.5 -67t30.5 -67t14 -67.5h-44q-33 50 -65.5 109t-57.5 125.5t-40.5 142t-15.5 158.5 q-22 11 -50.5 16t-59.5 9t-62 8.5t-58.5 15.5t-48.5 31t-32 53q22 22 56.5 38.5t70.5 31.5t68 31t49.5 38.5t14.5 53t-36 75.5v45q22 -11 31.5 -32t14.5 -44.5t9.5 -46.5t17 -39t37 -22t68.5 5q0 50 -6 99.5t-10.5 95.5t-2.5 87t19 75q12 -1 22 -6q8 -5 15 -14t7 -26z M464 587h-90q11 -11 16 -31.5t7.5 -44l5 -47t8.5 -39.5t18 -21.5t35 5.5v178zM286 543l-134 -90q17 0 40.5 -7t48.5 -15t48.5 -15t40.5 -7q0 16 -0.5 39t-5 44t-13.5 36t-25 15zM420 364q0 -50 8.5 -91t25 -70t41.5 -45t58 -16l-45 178q-17 0 -26.5 7t-17.5 15t-18 15t-26 7 zM553 320l89 -223q17 -17 47.5 -32.5t64 -23.5t64 -7t47.5 18q0 50 -30 92t-76 75.5t-101 58.5t-105 42z" />
<glyph unicode="%" horiz-adv-x="818" d="M606 748q-28 -79 -65.5 -155.5t-79.5 -151.5t-86 -149t-85 -148.5t-76.5 -149.5t-59.5 -151q-14 0 -21.5 0.5t-11 4t-4 11t-0.5 21.5q50 129 112.5 253t131.5 245.5t141 241t141 238.5q22 -14 19.5 -27.5t-15.5 -27.5t-27 -27.5t-14 -27.5zM325 651q14 -28 14.5 -55 t-10 -51t-30.5 -43.5t-48 -32.5q-14 -14 -32 -27t-39.5 -20t-46.5 -6t-53 16q-14 14 -21.5 33.5t-11 43.5t-4 50.5t-0.5 54.5q14 14 22 31.5t15 36t15 36t22 30.5q22 -13 52.5 -21t60.5 -17t55.5 -22.5t39.5 -36.5zM117 676q0 -9 -6 -26.5t-12.5 -37t-12.5 -39t-6 -33.5 q0 -27 12 -41t28 -21t32 -8t25 -1q14 13 33 32.5t36.5 43.5t29.5 51t12 55q-14 9 -34 14.5t-43 7.5t-47.5 2.5t-46.5 0.5zM777 224q0 -28 -12.5 -48t-32 -35t-43.5 -27.5t-46 -26.5q-14 -14 -33.5 -20.5t-40.5 -6.5t-40.5 6.5t-33.5 20.5q-19 9 -26.5 23t-9.5 30t-1 33.5 t-1 33.5t-10 29.5t-26 21.5q14 28 34 37.5t44.5 13t51.5 6.5t55 17q27 -14 52 -22.5t46.5 -18.5t40 -25t32.5 -42zM569 258l-74 -109q0 -23 12 -35t29.5 -14.5t36.5 4t33 20.5q14 9 31 21t31.5 24.5t24.5 26.5t10 28z" />
<glyph unicode="&#x26;" horiz-adv-x="755" d="M256 1088v-224q0 -9 5.5 -21.5t11.5 -25.5q10 -20 16.5 -38t-1.5 -32q-11 -15 -40 -15h-5l-2 4q-19 38 -31.5 82.5t-16.5 85.5q-9 113 49 171zM311 713q27 3 55.5 4.5t54 -2.5t46.5 -16t33 -37l2 -3l-2 -4q-11 -22 -22 -31t-23 -10t-24.5 4t-25.5 11q-17 8 -35 15t-41 7 h-3l-3 2q-14 15 -37 15q-14 0 -30 -5t-31.5 -12.5t-29.5 -18t-24 -20.5q-28 -29 -33 -56.5t-5 -58.5q29 -27 70 -31.5t86 -4.5q23 0 46.5 -0.5t45.5 -4.5t42 -12.5t36 -24.5l2 -3v-57l-12 6q-26 13 -60.5 15.5t-77.5 -6.5q-42 -8 -78 -22.5t-62 -27.5q-1 -1 -1 -2t-1 -1 q-14 -29 -27 -59.5t-21 -59.5q-6 -24 -6 -46q0 -18 4 -34.5t12 -32.5q41 -30 85 -37.5t91 -0.5t96 23.5t100 36.5q48 19 96.5 36t97.5 27l10 2v-55l-5 -2q-23 -9 -45.5 -19t-45.5 -19q-65 -28 -131.5 -54t-132.5 -37q-73 -12 -134 -2q-70 10 -134 49l-2 1l-1 2 q-27 55 -27 120v13.5t1 14.5q5 43 22 80t46 67q0 1 5.5 11.5t12 24t12 25.5t7.5 15q-5 5 -11 10.5t-12 10.5q-12 10 -24 20.5t-21.5 23t-16 27t-6.5 31.5q0 21 12 45v2l1 1q8 7 15 15.5t15 18.5q12 15 26.5 31.5t31.5 30t37.5 22t45.5 8.5q14 0 30 1.5t33 3.5zM327 -25l8 -7 q17 -17 27 -47.5t18 -62.5q8 -29 16 -56t22 -41l2 -2v-93h-56v8q0 23 -7.5 50.5t-17.5 56.5q-8 24 -15 48.5t-11 48t-2.5 45.5t11.5 42z" />
<glyph unicode="'" horiz-adv-x="161" d="M133 468q0 -16 -7 -18t-19 2t-27 10t-31 6q0 42 -6 79t-10 71.5t-2 66t18 63.5q31 -11 47 -30.5t21.5 -45t5 -54t-2 -56t0 -52.5t12.5 -42z" />
<glyph unicode="(" horiz-adv-x="402" d="M418 868q-21 -20 -48.5 -41t-53 -46t-43 -56.5t-17.5 -71.5q-41 -40 -70.5 -98t-44.5 -123.5t-14.5 -134t21.5 -128.5q0 -41 17.5 -73t43 -62.5t53 -62.5t47.5 -72l-107 54q-60 61 -100 130t-55 139.5t-4.5 139.5t50.5 129q21 61 43 121t52.5 115.5t72.5 105t102 89.5z " />
<glyph unicode=")" horiz-adv-x="340" d="M268 635q20 -98 19 -202.5t-25.5 -207t-74 -197.5t-127.5 -172h-51q-20 20 -14 30t20 15q17 5 45 7q59 78 97.5 172t53 191.5t4 191.5t-49.5 172q-19 39 -46.5 77t-57 72t-57.5 62.5t-48 47.5l-50 -51q0 19 -7.5 37.5t-12.5 33t-2.5 23.5t22.5 9q58 0 107 -27t93 -70.5 t83.5 -99.5t78.5 -114z" />
<glyph unicode="*" horiz-adv-x="487" d="M271 894q0 -24 -4.5 -49t-7.5 -52.5t-1.5 -58.5t13.5 -68q12 12 20 33.5t17 39.5t23 27.5t38 -2.5q0 -25 -10.5 -44.5t-26 -37.5t-32.5 -37.5t-29 -44.5q49 0 97.5 -4t98.5 -28q-8 -16 -19 -20t-23.5 -1.5t-27 9t-30 12t-31.5 7t-32 -6.5q12 -24 34 -48.5t43 -49.5 t37 -49.5t16 -48.5q-12 -12 -19.5 -8t-13.5 16.5t-13 28.5t-19 28q0 -12 -0.5 -28.5t-3.5 -32t-10 -26t-19 -10.5q-12 24 -19.5 53t-16.5 56.5t-23 50.5t-39 35q-12 -12 -28.5 -30.5t-28.5 -43t-16 -55t8 -66.5h-65q0 49 20 97.5t45 97.5q-12 12 -34.5 14.5t-47 5.5t-47 12 t-34.5 33q12 12 30 9t39.5 -9t45.5 -9t48 9q-12 25 -34 39.5t-43.5 26.5t-37 26.5t-15.5 38.5l32 33l131 -131q0 24 -3.5 59t-0.5 71.5t17.5 71.5t51.5 59z" />
<glyph unicode="+" horiz-adv-x="507" d="M270 490q12 -13 28.5 -18.5t35 -8.5t38 -5.5t38 -9.5t35 -21t29.5 -39h-204q19 -38 20.5 -76.5t-8 -77t-27 -76.5t-36.5 -75l-50 50q38 19 50.5 46.5t12.5 61.5t-6.5 71.5t-6.5 75.5q-19 0 -46 -6.5t-55.5 -6.5t-55.5 12.5t-46 50.5q12 25 25 31.5t27.5 2.5t30.5 -14.5 t34 -19t39.5 -11t46.5 10.5v204q38 0 50.5 -16.5t12.5 -40.5t-6 -50t-6 -45z" />
<glyph unicode="," horiz-adv-x="291" d="M88 -205l-27 71q13 30 31 69.5t36 78.5t33 73t23 52q37 -17 48 -39.5t5.5 -50t-24 -58.5t-41.5 -64t-46 -66.5t-38 -65.5z" />
<glyph unicode="-" horiz-adv-x="529" d="M108 349q5 -3 9 -5l6 -3q2 -1 3 -2q22 -9 47.5 -12.5t52 -3.5t53 3t51.5 6l50 6t49 3h14v-16q0 -18 -1 -28t-6 -18q-7 -8 -15.5 -9t-22.5 -1q-23 0 -45 -2.5t-42 -6.5l-5 -1q-24 -3 -49 -6t-52.5 -3t-57 4t-61.5 15l-5 2l3 25l1 5h5h3q2 0 7 3q8 6 8 21v24z" />
<glyph unicode="." horiz-adv-x="347" d="M267 68q0 -15 -7 -29.5t-18 -26.5t-25.5 -19t-29.5 -7q-16 -15 -25 -10.5t-16.5 16.5t-16.5 24t-24 12q0 15 7 23.5t18.5 16t26 16.5t30.5 24q15 0 29.5 -0.5t25.5 -4.5t18 -12t7 -23z" />
<glyph unicode="/" horiz-adv-x="430" d="M461 760q8 8 18.5 15.5t21.5 2.5t12.5 -14t1.5 -11v-3l-1 -2q-86 -151 -171 -300t-169 -295l-120 -209l-52 51l458 764l1 1v0z" />
<glyph unicode="0" horiz-adv-x="824" d="M414 523q-45 33 -78 41.5t-62.5 -4t-59.5 -42.5t-70 -73q-10 -53 -16.5 -101t-6 -88.5t11 -73t33.5 -55.5q49 -49 108 -52.5t125 51.5q48 0 103.5 23t103.5 64.5t80 100.5t32 131q-24 24 -51.5 38.5t-60.5 22.5t-72 11t-87 3zM399 636q48 0 104.5 -12t110.5 -35.5 t98.5 -59.5t68.5 -84q16 -48 8 -90.5t-33 -80t-61.5 -69.5t-77.5 -58.5t-81.5 -48t-72.5 -37.5q-24 -24 -59 -36.5t-77 -18.5t-88.5 -7t-94.5 -1q-48 48 -73 105.5t-31 117.5t4.5 118t34.5 106q16 32 37.5 72t46 77t52.5 66.5t58.5 40t62 -3t63.5 -61.5z" />
<glyph unicode="1" horiz-adv-x="575" d="M363 645q-25 -37 -34.5 -81t-11 -92.5t2.5 -101t6.5 -105.5t0.5 -105.5t-14 -101.5q36 0 72 15.5t68 33.5t59 33.5t46 15.5q-37 -56 -97.5 -92.5t-129 -55t-138 -18.5t-124.5 18q0 19 -1 29t-5.5 14.5t-14.5 5.5t-29 1q24 24 48.5 34t47.5 11.5t45 -2.5t41 -7t35.5 -1.5 t28.5 13.5q-19 37 -21 90.5t2.5 113t11.5 121t7 116.5q-37 -18 -65.5 -35.5t-51.5 -31.5t-42 -22.5t-37 -8.5q-19 0 -28.5 1t-9.5 5.5t9.5 14.5t28.5 29v48v-48l244 196z" />
<glyph unicode="2" horiz-adv-x="628" d="M271 668q81 11 145 -3t102 -51l4 -4l-1 -5q-12 -47 -33 -91t-48.5 -86t-59.5 -82t-64 -79q-44 -54 -87 -110t-75 -117h37l19 6.5t49 17.5t68.5 25t79.5 29q94 34 215 78v-69l-6 -2q-32 -11 -64.5 -24t-67.5 -28q-43 -18 -89 -36.5t-95.5 -33.5t-102.5 -24.5t-109 -9.5h-6 l-2 5q-14 26 -16 50.5t8 50.5q8 21 22.5 41.5t31.5 40.5q15 20 30.5 40t27.5 44v-1q15 33 43 66.5t58 67.5q20 22 39.5 44.5t35 45t26 44t12.5 42.5q-79 35 -154 35q-76 0 -153 -37l-1 -2h-78l16 16q40 39 105 67t138 39z" />
<glyph unicode="3" horiz-adv-x="685" d="M654 592q0 -40 -26.5 -71t-66 -56t-86.5 -46t-87 -40q27 -13 53.5 -19t52 -9t49 -5.5t44 -10t37.5 -22.5t30 -42q0 -40 -9 -70.5t-23.5 -55t-33.5 -45t-40 -40.5q-40 -21 -79.5 -38.5t-74.5 -22.5t-64.5 8t-48.5 53q19 0 39 1t40.5 6t40.5 15.5t40 30.5q21 19 48.5 30.5 t53 21t43 21.5t17.5 33q-14 27 -43 38t-65 15.5t-74 6.5t-69 11t-51 29t-20 60q40 19 79.5 40t74.5 46t64 56t49 71q-60 20 -119.5 21t-119.5 -14t-120.5 -44t-121.5 -69q0 19 -8 30.5t-18 21t-18 21.5t-8 33q81 40 168.5 68t172.5 32.5t162 -18t136 -82.5z" />
<glyph unicode="4" horiz-adv-x="764" d="M604 714v-6q0 -47 -10 -93t-22 -92q-11 -44 -20 -88.5t-10 -88.5h183v-6q0 -30 -8.5 -47t-22.5 -26.5t-31.5 -13.5t-35.5 -7q-24 -4 -47 -9.5t-40 -22.5q-23 -22 -36 -54.5t-25 -66.5q-11 -34 -24.5 -67t-36.5 -57l-7 -6l-3 7q-16 32 -22.5 58.5t-6.5 49.5q0 24 5.5 45 t10.5 39q5 14 8 27t4 25q-38 18 -75 16t-76 -7q-26 -4 -52.5 -6.5t-53.5 1.5t-54 17t-54 40l-2 1v3q0 31 9.5 63t25 63t35.5 62t40 61q20 31 39.5 61t35.5 60l5 11l5 -11q11 -22 11 -47q0 -32 -13 -66.5t-30 -67.5q-14 -31 -25.5 -59.5t-11.5 -51.5q0 -15 6 -27 q12 -29 59 -45q102 -19 161 22q27 19 44.5 48.5t29 64.5t18 73.5t12.5 75.5q7 42 13.5 79t20.5 63l1 3h73z" />
<glyph unicode="5" horiz-adv-x="823" d="M778 724q-49 -48 -102 -72t-108.5 -35t-112.5 -13.5t-112.5 -8t-109 -19t-101.5 -45.5q12 -36 38 -64.5t59.5 -52t71 -44t74 -41.5t68 -44.5t53 -53t29 -66.5t-4.5 -85q-48 -48 -96.5 -63.5t-97 -9.5t-97.5 27t-97 46l-63 63q32 16 69 9.5t74.5 -22.5t74 -34t69 -23.5 t58 8.5t41.5 62q-32 48 -82 82.5t-104 63.5t-104 56t-82 61t-39 79t25 110q48 48 101.5 72t110.5 33t117.5 8t123.5 -3t127 0.5t129 18.5z" />
<glyph unicode="6" horiz-adv-x="588" d="M407 230q-20 -20 -46.5 -31t-51 -21t-41.5 -21t-17 -30h156q19 0 38 1t33.5 5.5t23.5 15t9 29.5q-20 20 -39 30t-33 15q-18 5 -32 7zM303 645q20 0 22 -8t-3 -18q-6 -11 -19 -26q-58 -20 -105 -57t-76 -85.5t-37.5 -105.5t11.5 -115l103 -103q19 39 48.5 75t68.5 60.5 t87.5 31.5t107.5 -12q19 0 29.5 -8t15.5 -18q5 -11 6 -26q0 -39 -17 -68.5t-41 -54t-51 -45t-46 -39.5q-13 -13 -29.5 -14.5t-34 1t-34 7t-29.5 3t-21 -12t-8 -36.5q-39 0 -65.5 12t-45.5 32t-31.5 46.5t-22.5 55.5t-19.5 58t-22.5 55q-13 39 -10 81.5t17.5 86t38 85.5 t50.5 81t56 73t55 60q20 0 30 -8t15 -18q5 -11 7 -26z" />
<glyph unicode="7" horiz-adv-x="670" d="M623 598q0 -62 -8.5 -124t-19 -124t-19 -124t-8.5 -124h55q0 -20 -18 -40t-43.5 -35.5t-54.5 -25t-50 -9.5q0 55 8 106t19 100t22 97t17.5 97t5.5 100t-15 106q-42 27 -83 30t-82.5 -8t-82.5 -30t-82.5 -34t-83 -21.5t-82.5 6.5q0 28 13 43.5t34.5 23t49.5 10.5t58.5 6.5 t61.5 9t58 19.5q41 20 90 37t95.5 17t85 -24t59.5 -85z" />
<glyph unicode="8" horiz-adv-x="556" d="M201 416q-20 -20 -38.5 -41t-28.5 -46t-8 -56.5t22 -71.5q0 -40 18.5 -70t48.5 -50.5t68.5 -30.5t78.5 -10q20 20 39.5 40.5t34.5 40.5t24.5 40t9.5 40q-20 40 -49.5 71.5t-65 56.5t-75 46t-79.5 41zM148 577q27 -40 49.5 -56t42 -16t36 11.5t31.5 25t28.5 24.5t26.5 11 q-20 20 -48.5 30t-58.5 10t-58.5 -10t-48.5 -30zM524 577q-20 -20 -49 -31.5t-59 -21.5t-58.5 -22t-48.5 -32q40 -20 71 -48.5t56.5 -59t46.5 -59t41 -48.5q0 -40 -1.5 -79.5t-12 -75t-32.5 -65t-62 -49.5q-40 0 -80.5 9.5t-80.5 24.5t-80.5 34.5t-80.5 39.5 q-20 20 -30.5 49.5t-10.5 64.5t10.5 74.5t30.5 79.5l54 108q-20 0 -47 9.5t-47.5 24.5t-27 34t13.5 39q40 20 81.5 47t86.5 47.5t96.5 27t111.5 -13.5q0 -41 9.5 -55t24.5 -19t34.5 -9.5t39.5 -24.5z" />
<glyph unicode="9" horiz-adv-x="536" d="M255 637q-18 -18 -43.5 -36.5t-48.5 -37t-39 -37t-16 -36.5q37 0 66 1t56.5 5.5t56.5 14.5t66 28q-18 18 -22 42.5t-8.5 43t-17.5 24.5t-50 -12zM402 637v-49h98q0 -92 -23.5 -176t-56 -167t-65.5 -167t-51 -176q-12 49 -9.5 98t13.5 98t27 98t31 98t25.5 98t10.5 98 q-37 -18 -74.5 -42t-78.5 -37.5t-88 -10t-102 40.5q-18 0 -27.5 8.5t-9.5 22t9.5 31.5t27.5 36q12 24 35.5 51t53.5 50.5t64 39.5t68 18.5t66 -11t56 -50.5z" />
<glyph unicode=":" horiz-adv-x="254" d="M192 501q17 -17 18.5 -33t-7 -28t-23.5 -19.5t-31 -7.5h-88q0 33 14.5 57t35 36t43 11.5t38.5 -16.5zM192 62q-16 -16 -31.5 -24t-27.5 -8t-19.5 8t-7.5 24q-17 33 -11.5 51.5t21.5 31t38 22.5t38 26q17 -16 25.5 -38.5t8.5 -43t-8.5 -35t-25.5 -14.5z" />
<glyph unicode=";" horiz-adv-x="310" d="M272 471q0 -27 -22.5 -53.5t-49.5 -53.5q-14 0 -26.5 0.5t-23 4t-16.5 10.5t-6 21q0 13 6 32t16.5 39t23 39t26.5 33q13 0 21 -6t15 -16.5t14.5 -23.5t21.5 -26zM259 124q-25 -46 -37.5 -73t-20.5 -44t-14.5 -28t-19.5 -24t-36 -33.5t-64 -55.5l-14 14l83 158l11 51 l41 49q10 -3 20.5 -1.5t20 2.5t17 -2t13.5 -13z" />
<glyph unicode="&#x3c;" horiz-adv-x="532" d="M518 767q-20 -60 -58.5 -119t-88.5 -114t-108.5 -104.5t-118.5 -89.5q27 -27 64.5 -54t76 -57t73 -63t55.5 -71.5t23 -83.5t-25 -98q-20 0 -23.5 16.5t-3.5 37t-3 37t-23 16.5q-40 60 -80 101.5t-80.5 71.5t-80.5 52t-80 42v53q60 40 127 89.5t127 104.5t107 114t67 119 h53z" />
<glyph unicode="=" horiz-adv-x="552" d="M520 469l-55 -55q-41 0 -90.5 -7.5t-105.5 -12.5t-116.5 -2.5t-121.5 22.5q13 27 35 38t47.5 14.5t53 2t53 2t47 14.5t35.5 38q21 -20 49.5 -23.5t59.5 -3.5t59.5 -3.5t49.5 -23.5zM465 306q0 -21 -8.5 -33t-18.5 -22t-18.5 -22t-8.5 -32q-61 20 -120.5 23.5t-110.5 3.5 t-90 3.5t-59 23.5q40 41 90 54.5t106 13.5t116.5 -6.5t121.5 -6.5z" />
<glyph unicode="&#x3e;" horiz-adv-x="609" d="M575 426q-46 -69 -92.5 -136.5t-98 -130t-109.5 -118.5t-126 -102q-46 0 -60 10.5t-8.5 27.5t25.5 39t43 45q45 23 90 65.5t84.5 94t73 105.5t56.5 100q-46 23 -101 57t-112 79.5t-112 102.5t-101 126q138 -92 274 -183t274 -182z" />
<glyph unicode="?" horiz-adv-x="541" d="M304 66v-8q0 -14 -10.5 -27.5t-22.5 -26.5q-11 -11 -20 -22.5t-9 -21.5v-5l-4 -2q-22 -12 -38 -10t-26 8q-21 12 -30.5 35.5t-9.5 39.5v40h170zM264 805q54 16 101 -10q9 -5 19 -9t19 -8l7 -3q15 -6 30 -12.5t26 -16.5q28 -22 28 -61q10 -40 10 -70q0 -74 -49 -130 q-30 -35 -72 -59.5t-86 -47.5l-3 -2q-29 -15 -55 -29.5t-48 -31.5q1 -8 4 -26t7.5 -40.5t9 -47.5t8.5 -46l1 -5q-1 -1 -3 -2l-4 -2q-5 -6 -16 -15t-25 -4v1h-1q-8 4 -10.5 11t-4.5 12q-20 24 -25.5 51.5t-7.5 54.5l-4 32t-7 30.5t-15 28t-27 25.5v1l-13 11l11 13v1 q12 12 20 19t15 11t15.5 5t22.5 1h10l2 -5l8 -18l8 -16t7 -15q20 18 44.5 34t52.5 33q32 19 64.5 40.5t56.5 49.5q23 27 33 61q7 21 7 48q0 6 -0.5 12.5t-1.5 13.5q-9 5 -18 10.5t-17 10.5q-17 11 -35 22t-38 18q-43 14 -81 1q-9 -11 -14.5 -25.5t-10.5 -31.5l-1 -3 q-6 -19 -13 -37t-20 -32v1l-12 -14l-12 12q-17 20 -17 48q0 14 5 34q13 38 40 70v1l2 3q32 30 73 44z" />
<glyph unicode="@" horiz-adv-x="1027" d="M731 668q39 19 78 5q36 -12 68 -47q14 -14 26 -31.5t22 -37.5q44 -46 44 -131q0 -6 -0.5 -12.5t-0.5 -13.5q-3 -38 -13 -82t-29 -98v-1q-14 -27 -33.5 -54t-43 -51t-50.5 -44.5t-54 -34.5q3 -13 13 -17q6 -4 10 -4q3 -1 5 0h10v-52l-5 -3q-76 -45 -156.5 -75.5 t-156.5 -42.5q-90 -15 -165 -5q-84 11 -151 50q-65 23 -88 79q-12 28 -12 61q0 23 5.5 46t16.5 46q39 105 114 200q35 43 75 83t88 76q85 65 189 116q48 23 96 42t98 33zM232 285q-66 -82 -105 -173q0 -7 -1 -14.5t-3 -16.5q-2 -14 -3.5 -29t-1.5 -30v-10.5t1 -10.5 q6 -43 38 -59h1v-1q32 -19 66.5 -31.5t72.5 -17.5q65 -10 141 4q58 11 117 36t114 62h-46l-3 3q-26 26 -32.5 51.5t-7.5 51.5q-22 -8 -42 -18l-40 -20q-23 -12 -44.5 -22t-42 -15t-40.5 -4t-40 11l-5 3v6q0 60 14 110.5t38 96.5t55.5 89t66.5 88q11 14 23 29t23 30l3 4h5 q24 0 51.5 -1t53.5 -5.5t48 -12.5t35 -21q11 -11 15.5 -18.5t4.5 -15.5q0 -5 -2.5 -10.5t-5.5 -10.5q-4 -5 -6.5 -10.5t-2.5 -13.5v-8q17 -4 35 -22l3 -3v-4q0 -44 -24 -75t-52 -59q-26 -26 -47 -52.5t-23 -62.5q40 -17 90 12q23 14 43 32.5t31 29.5q40 40 65.5 85t36.5 92 q21 97 -30 174l-2 3v3q0 28 -14.5 54.5t-38.5 41.5q-39 23 -79 5l-1 -1q-98 -28 -189 -75t-171 -110q-42 -33 -78.5 -69t-67.5 -75zM591 402l-14 -3.5t-13 -2.5v-31l-3 -3q-26 -27 -47.5 -54t-41.5 -53t-40.5 -52.5t-46.5 -52.5q7 -6 16 -14.5t12 -11.5q102 1 207 106 q7 7 14 19.5t15 26.5q15 27 32.5 52.5t40.5 32.5q-15 4 -22.5 15t-9.5 22q-33 16 -56 13t-43 -9z" />
<glyph unicode="A" horiz-adv-x="629" d="M338 665q-20 -32 -14 -65t21 -69.5t30.5 -77.5t15.5 -90v-129q20 0 48.5 -0.5t58.5 -5t58.5 -13.5t48.5 -25l-161 -42q21 -16 33 -32t22 -32.5t21.5 -33t31.5 -32.5q0 -16 -8.5 -24t-18 -8t-18 8t-8.5 24l-108 130l-212 42q-41 -16 -55 -38.5t-19.5 -46.5t-9.5 -47.5 t-24 -39.5l-53 44l214 603l106 44v-44zM338 234l-53 259q-20 -32 -39 -64.5t-34 -65t-24 -65t-9 -64.5h159z" />
<glyph unicode="B" horiz-adv-x="576" d="M458 577q0 -48 -21 -74.5t-53 -42.5t-69 -26.5t-69 -26.5q32 -16 70.5 -27t78 -26.5t78.5 -42t71 -74.5q0 -33 -15 -64.5t-39 -59.5t-54.5 -51t-62.5 -39q-32 0 -63.5 -6t-59.5 -10t-51.5 -2t-39.5 18q-11 21 -27 30t-34 12.5t-34.5 5t-27 9t-13 23t8.5 47.5v385 q21 0 36.5 12.5t28.5 31.5t25.5 41t29.5 41t39.5 31.5t54.5 12.5q64 0 122 -32t90 -96zM246 620q-33 0 -51 -14.5t-30 -38.5t-22 -55t-26 -63q32 16 76.5 20t88.5 12t81 28t53 68q-16 16 -39 25t-47 13t-46.5 4.5t-37.5 0.5zM117 364v-256l42 42q16 0 12 -7t-12 -19 t-12 -27.5t12 -31.5h172q64 32 95.5 69.5t31.5 102.5q-21 32 -48.5 50.5t-58.5 29.5t-63.5 15.5t-63.5 8t-58.5 8t-48.5 15.5z" />
<glyph unicode="C" horiz-adv-x="882" d="M608 635q-48 16 -95.5 7.5t-92 -33.5t-85.5 -62t-75 -78t-60 -82.5t-42 -73.5q16 -48 47 -81t72 -56.5t90 -38.5t100.5 -27.5t104 -24.5t100.5 -28h193q0 -24 -11 -37t-29 -19t-41 -7t-47 -1q-64 0 -132.5 6t-136.5 20t-133 38t-122 59.5t-104 84t-79 112.5 q24 49 69 106.5t99 111.5t111.5 99.5t106.5 69.5q24 0 48 -1t48 -7t48 -19.5t48 -37.5z" />
<glyph unicode="D" horiz-adv-x="685" d="M662 336q-15 -63 -48.5 -106.5t-78 -74.5t-97 -52.5t-106 -40.5t-104 -38.5t-91.5 -45.5l-50 57q-26 50 -36 105.5t-11.5 112.5t2 115.5t5.5 115.5t-0.5 112t-16.5 106q82 -19 168.5 -41t169 -61t158 -101.5t136.5 -162.5zM87 603l50 -519q41 11 87 20t92 20t88 26t74 39 t51 60t19 87q-71 123 -186 195t-275 72z" />
<glyph unicode="E" horiz-adv-x="670" d="M638 665q-56 0 -112 -8.5t-113 -22.5t-115 -31.5t-119 -35.5v-200q36 0 82.5 14.5t100 28t110.5 18t114 -15.5q-57 -17 -121.5 -28.5t-127.5 -31t-119 -53t-95 -93.5q21 -20 32.5 -31.5t16.5 -21.5t6 -21.5t1 -30.5q40 -24 79.5 -25.5t78 8.5t76.5 27t75.5 31t75 19 t74.5 -8q-56 -37 -113 -72.5t-119 -59t-131.5 -30t-151.5 14.5q-24 12 -33.5 35.5t-12 52.5t-1.5 60.5t-1.5 60.5t-12.5 52.5t-33 36.5l48 63q11 24 12.5 49t-1 48.5t-6.5 45.5t-2.5 41.5t10.5 35.5t33 28q57 0 123.5 16t134.5 35t134.5 35t122.5 16v-52z" />
<glyph unicode="F" horiz-adv-x="592" d="M609 697q0 -38 -7.5 -49t-20 -9.5t-28.5 9t-32 7.5q-54 0 -105 -10.5t-94.5 -33t-77 -58.5t-52.5 -87v-137q35 0 66 15.5t62.5 29.5t66.5 18.5t77 -16.5q-16 -18 -40.5 -28t-53.5 -18.5t-61.5 -17.5t-65.5 -24q-23 -14 -32 -34t-9 -42.5t6.5 -46t14 -45.5t14 -40t6.5 -30 v-41v-45q-36 11 -54.5 32t-28 46t-14.5 51t-14 47t-26.5 34.5t-51.5 13.5v43l96 57v308q34 12 71 30.5t76 37t79 34t79.5 23t78.5 3t75 -26.5z" />
<glyph unicode="G" horiz-adv-x="656" d="M505 713v-49q-37 18 -81.5 18.5t-86 -14.5t-76 -44t-52.5 -71q-85 -73 -117.5 -147t4.5 -148q19 -41 40 -72t42 -55t40.5 -44t37.5 -40q37 -13 66.5 -6.5t53 24.5t41.5 44.5t33.5 54.5t28.5 53t26 41q-25 24 -53.5 29.5t-59 0t-62.5 -16.5t-63.5 -19t-61.5 -9t-57 15 q23 17 59 34.5t74 31.5t72 23t53 9q37 18 72.5 11t63 -25.5t44.5 -42.5t17 -41q0 -41 9 -88.5t15 -95.5t3 -93t-27 -81q-25 12 -34.5 32t-11 43.5t2.5 49t6.5 49t1 43t-13.5 31.5q-25 0 -43 -11.5t-32 -28t-25.5 -36.5t-25.5 -36.5t-31 -28t-41 -11.5q-55 -18 -95.5 -10.5 t-70.5 31t-52.5 58.5t-41.5 73q-38 58 -56.5 115t-18.5 109.5t18.5 98.5t56.5 82q42 42 90.5 86t100.5 73t107 33.5t111 -32.5z" />
<glyph unicode="H" horiz-adv-x="606" d="M147 404q40 -20 79.5 -22.5t78.5 2.5t78 12.5t80 7.5q0 39 -7 79t-11.5 76.5t-2 66.5t20.5 50h50q15 -42 18 -87.5t0.5 -92t-6.5 -93.5t-2 -93.5t13 -92t39 -87.5l-62 -49q-19 18 -30 47.5t-20 65.5t-20 76.5t-29 79.5l-267 -51v-325q-28 14 -39.5 40t-14.5 57.5t-2 66 t-2 66t-14.5 56.5t-39.5 39q28 26 39 61t12.5 74t-2.5 80t-7.5 79.5t-1.5 73t16 60.5q21 -19 32.5 -57.5t16.5 -84.5t6 -94t1 -87z" />
<glyph unicode="I" horiz-adv-x="655" d="M638 694q-23 -20 -54.5 -31.5t-67.5 -21.5t-76 -22t-81 -32q-20 -46 -31 -99t-16 -110t-6 -117.5t-1 -120.5q43 0 83.5 7t75.5 12t63.5 2.5t48.5 -21.5q-41 -26 -88 -41.5t-88 -32t-68 -39t-27 -61.5q-24 0 -38 15.5t-25.5 30.5t-24 20.5t-34.5 -13.5q-20 0 -31.5 -7.5 t-21 -12.5t-20.5 -2.5t-30 22.5q0 19 17 31t41.5 23t52.5 26t50 41v382q-15 0 -32.5 -7.5t-37 -17t-40 -17t-40 -7.5t-37.5 10.5t-32 38.5q60 45 133.5 70.5t153.5 47t163.5 46t165.5 65.5v-57z" />
<glyph unicode="J" horiz-adv-x="900" d="M886 640l-358 -48q0 -40 15 -87.5t29 -99.5t20.5 -107.5t-10.5 -111.5q0 -41 -17 -71t-41.5 -53.5t-51.5 -42t-47 -36.5q-20 0 -46.5 0.5t-54 5t-54 14.5t-46.5 28q-19 0 -29.5 8t-15 22.5t-5.5 34.5t-1 44h51q0 -24 9 -44t23 -34.5t31 -22.5t34 -8q39 0 69.5 17.5 t55 42.5t44.5 51.5t38 43.5q20 56 14 104t-25 95.5t-45.5 97t-46.5 109.5q-56 -18 -111 -37t-107.5 -34.5t-100.5 -25.5t-89 -10q97 40 202.5 84t215.5 77.5t223.5 48t227.5 -3.5v-51z" />
<glyph unicode="K" d="M68 561v-163q53 0 97.5 16.5t84.5 43t75.5 60.5t70.5 69t70 68t74 59l49 -53l-356 -263q26 -63 66.5 -107t89.5 -75.5t104 -53.5t109.5 -41.5t105 -40.5t91.5 -49v-49q-97 36 -185 68.5t-171.5 68t-164.5 77.5t-164 98q-17 -18 -19.5 -45.5t2 -61.5t11 -73.5t6.5 -82.5 h54q0 -19 -8.5 -28.5t-18.5 -14.5q-12 -5 -27 -6q-37 52 -55 112t-24.5 123.5t-5 129t3 129.5t0 124.5t-14.5 113.5q36 0 48.5 -16.5t12.5 -40.5t-5.5 -50.5t-5.5 -45.5z" />
<glyph unicode="L" horiz-adv-x="705" d="M196 723q0 -92 -1 -172.5t-7 -152.5t-18.5 -138.5t-35.5 -130.5q70 -28 138 -44t135 -28.5t134.5 -25t135.5 -33.5q-68 -21 -144 -24t-153.5 2.5t-154.5 13.5t-147 8l-57 56q28 47 44 102.5t25.5 114.5t16 119.5t16.5 119t27 113t46 100.5z" />
<glyph unicode="M" horiz-adv-x="741" d="M711 692q0 -83 -8.5 -167.5t-14.5 -165.5t-3 -156.5t26 -139.5q0 -20 -1 -30.5t-7 -15t-18.5 -5.5t-35.5 -1q-19 64 -29.5 137t-15 148t-5.5 148.5t-1 137.5q-14 -43 -20 -94t-12 -104t-16 -104t-30 -94.5t-54.5 -75.5t-89.5 -47q-47 44 -82 86.5t-62.5 85.5t-49 86.5 t-42.5 89.5q-14 -31 -16 -69t1 -79.5t7.5 -85t3 -83.5t-12.5 -75.5t-39 -62.5h-58q0 105 1 201.5t6.5 187.5t17 177.5t33.5 169.5q42 -20 65 -50t39 -61.5t28.5 -61t33.5 -49.5q0 -42 10.5 -85.5t28 -88t40 -88.5t47.5 -87q42 42 63.5 97t33.5 115.5t20.5 123t25 118.5 t46 102.5t84.5 74.5z" />
<glyph unicode="N" horiz-adv-x="574" d="M539 678q0 -77 6 -155t5.5 -156t-13.5 -156t-52 -154q-60 40 -102 89t-75.5 103t-64.5 111t-68 113q0 -56 -1.5 -122t-11 -134t-30.5 -134.5t-59 -122.5q-16 1 -27 6t-19 15t-8 29q20 76 39.5 161t39 172t38.5 172.5t39 162.5q37 -78 74.5 -154t76.5 -153l109 -208 q26 40 36.5 87t13.5 97.5t2 102.5t2 102.5t13.5 97.5t36.5 88v-60z" />
<glyph unicode="O" horiz-adv-x="677" d="M629 425q25 -48 27 -93t-10 -89.5t-34.5 -88.5t-46.5 -90q-22 -20 -53 -39t-69 -29.5t-80.5 -8.5t-86.5 24q-48 0 -92 19.5t-77 52t-53 74.5t-20 86q-15 45 -12 85.5t14 77t26.5 70t27 64.5t14.5 60.5t-10 59.5q45 29 86 36.5t79 1t74.5 -22t73.5 -32t76 -29t82 -12.5z M276 602q-48 -23 -82.5 -63.5t-56.5 -90.5t-32.5 -103.5t-10.5 -101.5q20 -44 53 -85t73 -68.5t85 -36.5t89 11q46 0 86.5 45t84.5 134q0 21 8 53t8.5 66.5t-14 67t-60.5 55.5q-20 44 -50.5 67.5t-63.5 34.5t-64.5 13t-52.5 2z" />
<glyph unicode="P" horiz-adv-x="492" d="M462 543q17 -49 4 -89.5t-42 -73.5t-68.5 -59.5t-74.5 -47.5l-176 -83q34 -35 34 -94t-34 -127q-21 12 -32.5 33t-17.5 46.5t-7.5 53.5t-4 53.5t-7.5 45.5t-16 31q17 36 19.5 76.5t2.5 82t3 80.5t20 72q10 10 21 30.5t25.5 43t34 43.5t46.5 33t62 11t82 -22 q15 -19 36.5 -37.5t41.5 -35.5t34 -33.5t14 -32.5zM193 631q-33 -33 -51 -73.5t-26 -86t-9.5 -96t-1.5 -102.5h134q16 21 45.5 46.5t59 55t51.5 61t22 64.5q-16 32 -40.5 56.5t-54.5 41t-63 25t-66 8.5z" />
<glyph unicode="Q" horiz-adv-x="677" d="M513 620q33 -30 59.5 -65t43.5 -72.5t23 -78t-3 -81.5l-110 -175q39 -62 81 -116.5t81 -111.5q-37 -4 -66 16.5t-54 51t-47.5 64t-46.5 55.5q-29 -24 -60 -48t-65 -40t-71 -19t-79 14q-35 15 -60.5 40t-44 55.5t-31 64.5t-21.5 67q-13 52 -7 100.5t21 95t34.5 92 t32.5 91.5q39 35 91.5 55t106.5 21.5t104.5 -16.5t87.5 -60zM223 631l17 -22q-35 -20 -63.5 -50t-48.5 -66.5t-29 -78.5t-5 -86q3 -35 7.5 -70.5t15 -68.5t30 -60t52.5 -45q26 -11 54.5 -13.5t56 3t52 18.5t42.5 33q6 30 -10 46t-41.5 27t-52.5 22t-42 33q14 22 33.5 28.5 t41 2.5t45 -14.5t46 -22.5t42.5 -22t36 -13q26 24 43.5 54t26 63.5t7 68.5t-12.5 70q-20 51 -57.5 91t-84 63.5t-99 27t-102.5 -18.5z" />
<glyph unicode="R" horiz-adv-x="658" d="M571 458q-11 -50 -43.5 -85.5t-75 -62t-90 -45t-89.5 -34.5q22 -31 52 -51t63.5 -35t68.5 -27.5t68 -27.5t61.5 -35t48.5 -51q-61 9 -121 29t-118 48.5t-113.5 64t-107.5 74.5q-11 -2 -22.5 -1t-22 1t-19 -3.5t-12.5 -13.5q-5 -29 4.5 -58.5t17 -57.5t6 -52.5 t-27.5 -41.5q-30 28 -38.5 65.5t-11.5 77.5t-8.5 79t-29.5 69q24 37 29 84t4.5 95t1 93t18.5 78q72 -5 144 -12.5t138 -25.5t123.5 -50.5t101.5 -87.5zM116 563v-197q24 -13 25 -24.5t-7.5 -22.5t-18 -22t-4.5 -24h18q10 30 23 38.5t28.5 5t33.5 -13.5t36.5 -16.5t38 -4 t38.5 24.5q24 11 56.5 24t59.5 31.5t42 44.5t4 64q-83 48 -175 70t-198 22z" />
<glyph unicode="S" horiz-adv-x="729" d="M541 602q-12 -25 -20.5 -35t-17 -10t-17.5 7t-21.5 15.5t-30 15.5t-42.5 7q-38 0 -77 -1.5t-77.5 -11t-77 -30t-74.5 -58.5q64 -13 131 -26.5t130.5 -32t121.5 -43.5t105.5 -61t80.5 -85t48 -115q0 -17 -2 -35t-12.5 -36.5t-33 -38t-64.5 -40.5q-75 0 -143.5 17t-136 41 t-136 49.5t-143.5 42.5q75 0 143.5 -14t136 -27.5t136 -18t143.5 13.5q28 0 39 3.5t11 10t-8 16t-17 20.5t-17 23.5t-8 25.5q-38 64 -83.5 101t-95 58t-101 32t-101 24t-95 34t-83.5 61q20 56 56.5 87.5t83.5 50t103.5 31t116.5 30.5q18 0 37 -8.5t38 -22t37.5 -31.5 t36.5 -36z" />
<glyph unicode="T" horiz-adv-x="1046" d="M1012 592l-58 -66h-404q0 -41 1.5 -100.5t12 -123.5t33.5 -126t65 -109q-22 0 -34.5 -7.5t-23 -13t-22.5 -3t-32 23.5q-21 47 -33.5 101.5t-23 113t-23 120.5t-34.5 124q-28 0 -60.5 -7.5t-68 -17t-72.5 -17t-72.5 -7.5t-69 10.5t-61.5 38.5q63 25 128 39t130.5 26 t131 25t128.5 36q63 -23 127 -26.5t124.5 -3.5t114.5 -4t96 -26z" />
<glyph unicode="U" horiz-adv-x="569" d="M505 656q0 -58 -3 -123t-2.5 -132t7 -131.5t26 -120.5t55 -101t93.5 -72q-20 -23 -40 -26t-37 3q-19 7 -38 23q-23 20 -44 50.5t-37 63t-25.5 64t-9.5 53.5q-28 -15 -55 -33t-55 -34.5t-55.5 -28.5t-56.5 -13.5t-58.5 10t-59.5 40.5q-39 40 -59.5 90.5t-25.5 102t4 101.5 t28 91v65q31 -16 43.5 -39.5t14 -52t-4 -60.5t-10 -64.5t-4 -64.5t13.5 -61q27 -41 58.5 -62t63 -25.5t60 6t48.5 32.5q41 27 61.5 62t28.5 75t7.5 82t-2 83t0 78.5t14.5 68.5h55z" />
<glyph unicode="V" horiz-adv-x="655" d="M633 697q-23 -85 -43 -168.5t-36 -166.5t-25 -165.5t-9 -165.5q-18 0 -29 -7.5t-22 -12.5t-26.5 -2.5t-42.5 22.5q-26 55 -63.5 106.5t-79 102.5t-83 102.5t-75 107t-54 116.5t-20.5 131q28 0 47.5 -13.5t33.5 -35.5t23.5 -51t18 -60l17 -62t20.5 -57l215 -271 q45 82 71 162.5t48 152.5t47 132.5t67 102.5z" />
<glyph unicode="W" horiz-adv-x="950" d="M967 691q-39 -76 -69.5 -158t-58 -164.5t-56 -164.5t-62.5 -158q-36 0 -61 15.5t-42 40.5t-29 57t-21 65.5t-18 64.5t-21 55q-27 -24 -42.5 -52t-25 -58.5t-15.5 -62.5t-14 -63t-21 -60.5t-35 -54.5q-55 77 -102 153t-89.5 155.5t-82 164t-78.5 177.5h51 q39 -76 70.5 -149.5t64.5 -143t72 -134t94 -122.5q17 39 27 84.5t18 91.5t18 90.5t27 80.5q39 -12 63 -31t39 -43.5t24 -52.5t19 -57.5t23.5 -59t36.5 -56.5q35 57 69.5 121.5t61.5 134t44 144t17 150.5q21 19 33.5 28t22 9t20 -9t28.5 -28z" />
<glyph unicode="X" horiz-adv-x="553" d="M532 673l-145 -359q0 -25 17.5 -46t40 -40.5l45 -39t33 -40t2.5 -43t-45 -49.5q-17 18 -34.5 45t-37 52.5t-41.5 44t-47 18.5q-35 -42 -65.5 -89.5t-63.5 -91t-73 -78t-95 -51.5l252 355q-39 39 -75 85t-63.5 94t-44 95t-16.5 89q0 18 7.5 20.5t17.5 -2.5q11 -5 25 -18 h44l-44 -53q16 -22 34.5 -50t38 -56.5t39 -54.5t37.5 -44q40 24 64.5 53t41 59t28.5 59.5t27.5 55.5t37.5 47t58 33z" />
<glyph unicode="Y" horiz-adv-x="608" d="M90 765q-21 -74 -5.5 -148.5t58.5 -141t108.5 -122.5t144.5 -93l145 408h52q-20 -80 -53 -165.5t-65 -176t-55.5 -184t-23.5 -187.5q-1 -16 -8 -28q-6 -11 -19 -19t-36 -8q-12 26 -12 48t5 42t13 39t11.5 39.5t1 43.5t-18.5 51q-37 37 -76.5 78.5t-76.5 87.5t-69 96.5 t-53 105t-28 113t4 121.5h56z" />
<glyph unicode="Z" horiz-adv-x="1053" d="M582 670q13 -31 10.5 -56t-15 -47.5t-30.5 -43t-34.5 -41.5t-28.5 -43.5t-12 -49.5q-41 -21 -72.5 -51t-56.5 -67t-45.5 -79t-40.5 -88q67 -13 131.5 -13.5t127.5 5t125.5 13.5t125.5 12.5t127.5 1.5t131.5 -19q-1 -15 -7 -26q-5 -10 -15.5 -18t-30.5 -8q-107 0 -211 -1 t-208 -6t-208.5 -16t-211.5 -31q46 64 89 136.5t84.5 151t82.5 161t82 166.5q-28 14 -60 15t-68 -4.5t-75 -13.5t-79.5 -13t-82 -2.5t-82.5 18.5q0 42 18 56t43.5 14t54 -6.5t49.5 -6.5h392z" />
<glyph unicode="[" horiz-adv-x="484" d="M491 875q-9 -35 -27 -49t-41.5 -16.5t-50 2t-52.5 6.5t-49.5 -2.5t-40.5 -24.5q-23 6 -33.5 1.5t-14.5 -15.5t-4.5 -26.5t-2 -31t-7 -30t-20.5 -22.5q-26 -102 -34.5 -201t-9.5 -194.5t1 -188t-2 -182.5q34 -9 70 -7.5t71 5t66 6t55.5 -3.5t39.5 -24t18 -55 q-21 -12 -45.5 -9t-50.5 9t-51 9.5t-47 -8.5q-23 6 -43.5 4.5t-39 -5t-34 -6.5t-28 0.5t-22 15.5t-14.5 38q8 106 10.5 215t7.5 221t18 228t43 236q-18 32 -23 55q-5 20 3.5 33t43.5 5q38 7 83.5 13t91.5 8.5t89 0.5t76 -10z" />
<glyph unicode="\" horiz-adv-x="463" d="M440 752q8 8 19.5 15t22.5 2q10 -4 11.5 -13t1.5 -11v-3l-1 -2q-112 -196 -225.5 -394.5t-226.5 -397.5l-7 -11l-53 52l457 762l1 1v0z" />
<glyph unicode="]" horiz-adv-x="402" d="M451 892q-24 -84 -30 -164t-2 -158.5t14 -156t18 -155.5t10 -158.5t-10 -163.5q-36 -36 -80 -56t-93.5 -33.5t-102.5 -24.5t-107 -29q-17 0 -26 7t-14 16q-5 11 -6 24q53 36 106 50t102 23t92.5 22.5t79.5 48.5q12 71 6.5 139.5t-18.5 136t-29 136t-25.5 140t-7 147.5 t26.5 159h-48l-382 50v47z" />
<glyph unicode="^" horiz-adv-x="610" d="M327 752l5 -2q46 -20 90 -58t87 -79q20 -18 39.5 -36.5t39.5 -35.5l10 -8l-10 -8q-25 -21 -46 -18q-14 2 -22.5 14t-16.5 26q-8 13 -17 27t-24 24l-3 1l-1 2q-42 83 -91 92q-21 3 -42.5 -5.5t-44 -24.5t-45.5 -37.5t-45 -43.5q-32 -32 -63.5 -60t-61.5 -39l-3 -1l-43 4 l4 45z" />
<glyph unicode="_" horiz-adv-x="841" d="M411 10q46 7 92.5 13.5t94.5 10t97 3t99 -7.5l7 -1v-91h-777v55l9 -1q49 -7 97.5 -7.5t95.5 3t93.5 10t91.5 13.5z" />
<glyph unicode="`" horiz-adv-x="318" d="M258 768v-22l-194 -126q-17 7 -17 23.5t17 24.5q47 27 89.5 59.5t88.5 56.5z" />
<glyph unicode="a" horiz-adv-x="792" d="M485 445q-45 0 -86 -17t-79 -46t-72 -66.5t-63.5 -77.5t-55.5 -80.5t-47 -75.5q66 -15 124.5 -1t108.5 43.5t92.5 68t77.5 73.5v179zM616 445q0 -17 -6 -41t-13.5 -49.5t-13.5 -49t-6 -39.5q31 -35 57 -60.5t51.5 -42.5t53 -25.5t62.5 -8.5q-23 -22 -46 -27t-46 1.5 t-46 21t-45 32t-44.5 35t-43.5 29.5q-51 -52 -103 -100t-106.5 -81.5t-113.5 -47t-125 4.5q-18 17 -27.5 40.5t-14 48t-5 47.5t-0.5 40q33 34 73.5 79.5t86.5 90.5t96.5 83.5t104 57.5t109 12.5t111.5 -51.5z" />
<glyph unicode="b" horiz-adv-x="679" d="M50 831l2 -3q26 -26 35 -56t9 -63q0 -17 -1.5 -35t-3.5 -37q-2 -20 -3.5 -40t-1.5 -40q0 -23 2.5 -45.5t10.5 -45.5q35 17 83.5 24t102.5 3q22 -2 48.5 -6.5t55.5 -12.5t59.5 -21.5t60.5 -33.5q24 -12 40.5 -28.5t28 -36t20 -41t16.5 -43.5l14 -40t18 -40v-1 q0 -26 -8.5 -47.5t-22.5 -39.5t-31.5 -33t-34.5 -29q-11 -9 -21.5 -18t-18.5 -17v-1q-36 -12 -72 -16t-70.5 -4t-67.5 3.5t-62 7.5q-26 4 -50 6.5t-44 2.5h-1l-46 93v1q-18 88 -34 181t-24.5 186.5t-7 185t18.5 176.5zM365 392q-51 8 -107.5 2t-113.5 -25q-11 -23 -15 -42 t-4 -36t2.5 -32t6.5 -32q4 -19 7.5 -39t3.5 -45q13 -40 36 -60.5t53 -28.5t66.5 -7t75.5 4q21 2 42.5 3t42.5 1q60 30 79 95q8 29 9.5 62t1.5 66q-33 50 -82 78q-46 27 -104 36z" />
<glyph unicode="c" d="M454 530q25 5 51 8t44 -11q21 -15 24 -56v-7q-1 0 -3 1l-4 2q-32 10 -62.5 8.5t-58 -10.5t-52 -22.5t-43.5 -27.5q-26 -20 -47.5 -42t-38.5 -43.5t-29.5 -42t-19.5 -36.5q1 -58 25 -99q20 -35 60 -61q35 -21 68 -30.5t75 -17.5l19 -4q15 -3 29.5 -3.5t28.5 0.5h20t20 -1 q13 -2 27.5 -2.5t30.5 4.5l3 1q18 5 34 8.5t30 3.5t27.5 -6t27.5 -19q0 -2 3 -3q1 -1 3 -2l-3 -1l-3 -1q-82 -23 -161 -27t-169 12q-101 18 -173.5 51t-129.5 87l-2 1v2q-2 77 30 139q28 58 82 107q47 46 99 78t90 53l2 1h2q9 0 19 1.5t24 6.5h1v0z" />
<glyph unicode="d" horiz-adv-x="703" d="M180 255q-19 -19 -36 -38t-26 -42.5t-8 -51.5t19 -65q38 0 74.5 -7t68.5 -12t59 -2.5t46 21.5q12 12 31 25t38 26.5t35.5 28.5t23.5 33t1.5 38.5t-30.5 45.5q0 56 -32.5 84t-79 28t-97 -28t-87.5 -84zM554 631q-11 -2 -18 -22q-6 -17 -10 -56.5t1 -113.5t14 -109.5 t17 -48.5q10 -15 20 -10q18 38 20 80t-3.5 85t-12.5 85t-7 80zM623 551q19 -37 27.5 -89.5t4 -108t-23.5 -108t-56 -89.5q18 -18 36.5 -43.5t37 -49t37 -40t37.5 -16.5q18 0 35.5 -0.5t31.5 -5t22.5 -14t8.5 -27.5q0 -19 -16 -28.5t-39 -9.5t-48.5 9.5t-44.5 28.5l-147 98 q-19 -19 -46 -30t-59.5 -20.5t-69 -19.5t-73.5 -28q-37 18 -73 29t-68 25t-59 35t-46 59q0 55 24.5 101t61.5 83t80 65t80 47q18 18 36.5 28t37 14.5t37 5.5t36.5 1l51 -49q0 36 -6.5 80.5t-6.5 91t12.5 91t50.5 82.5q18 0 35.5 -17t31 -45t22 -63.5t8.5 -72.5z" />
<glyph unicode="e" horiz-adv-x="632" d="M386 404q-26 0 -61 -11.5t-67.5 -31t-55 -44t-22.5 -50.5q52 0 102.5 2t95.5 15t82 41t63 79q0 26 -11.5 29t-31 -3.5t-44 -16t-50.5 -9.5zM601 405q-13 -39 -34 -65.5t-47 -45t-55.5 -31t-60 -22.5t-59.5 -19.5t-55 -22.5t-51 -15t-48 1t-42.5 7t-34 2.5t-22.5 -12 t-8 -36.5q0 -19 17 -37.5t41 -33t50.5 -23.5t45.5 -9q39 0 86 7.5t95.5 12t95.5 2t86 -21.5q-59 -19 -125 -36t-134 -22t-134 7t-124 51q-39 19 -51.5 47t-7.5 57t22 56.5t37 47.5q19 58 55 98t79.5 69t89.5 50t85 41q39 0 68.5 -1.5t54 -11.5t45 -31t40.5 -60z" />
<glyph unicode="f" horiz-adv-x="684" d="M242 704q105 80 248 72q116 -6 249 -71l1 -1l1 -1q31 -29 31 -57q0 -8 -3 -14q-2 -5 -8.5 -11.5t-21.5 -7.5q-14 -14 -22.5 -21.5t-16.5 -11.5t-17 -4.5t-24 -0.5h-15l17 34l23 46q-42 13 -88.5 25t-93 18.5t-92 5t-85.5 -14.5q-72 -37 -85 -117q-4 -23 -4 -51 q0 -29 3 -59t7 -59l6 -56t4 -54h28q27 0 55 5.5t56 12.5t56 13t57 6h9v-55h-9q-27 0 -58.5 -1t-62 -7.5t-56 -20.5t-38.5 -39v-225q0 -3 -1 -10t-9 -9q-7 -2 -13.5 4t-16.5 23q-6 10 -10 17.5t-4 8.5l-1 1q-10 47 -18 86q-3 16 -6.5 32.5t-6.5 30l-5 22.5t-2 12 q-17 -2 -34 -7t-34 -11q-17 -7 -34 -12t-32 -4q-36 0 -54 39l-3 6l5 4q14 15 34.5 23t44.5 12t51 5t54 1q-1 29 -4 59t-8 62q-5 35 -8.5 70.5t-3.5 69.5q0 53 14 100.5t53 85.5v1h1v0z" />
<glyph unicode="g" horiz-adv-x="690" d="M330 389q-36 -17 -70 -42.5t-60.5 -56.5t-42.5 -65.5t-16 -70.5q35 0 62 7.5t49.5 16t41 16t36.5 7.5q11 12 33 24.5t47 27t49.5 32t41.5 40t23.5 50t-5.5 63.5q-36 0 -63.5 -1t-49.5 -5.5t-40.5 -14.5t-35.5 -28zM613 389q-12 -47 -6.5 -94t17 -94t24.5 -94t17 -94.5 t-6.5 -95t-45.5 -94.5q-18 -35 -51 -69t-73 -60.5t-82 -43t-77 -16.5q-36 12 -71 17.5t-68 9.5t-62.5 9t-54.5 17t-44.5 33t-30.5 56q0 18 8 34t21 25t29.5 7.5t34.5 -19.5l-47 -47q36 -35 86.5 -53t103.5 -22.5t103.5 3.5t85.5 26q17 17 42 35.5t52 40.5t52 49.5t43 63.5 q0 35 -8 77.5t-21.5 87t-30 87.5t-34.5 79q-36 -18 -80.5 -49.5t-97.5 -58t-115.5 -39.5t-133.5 4q-23 12 -32 27.5t-7.5 32.5t11 35t22.5 35t28 32.5t27 26.5q23 35 60.5 72.5t82 67.5t93 49t93 17.5t82 -28t61.5 -85.5z" />
<glyph unicode="h" horiz-adv-x="681" d="M130 789q0 -76 8 -152t17.5 -152t17.5 -152t8 -152q19 38 47 74.5t61 65t70 46t75 17.5q57 -38 96 -84.5t62.5 -99t34 -108.5t10.5 -113v-51q-38 13 -57 37t-27.5 53.5t-10.5 61.5t-6.5 61.5t-15 53.5t-35.5 37q-19 19 -38 36.5t-38 27t-38 8t-38 -20.5q-25 -26 -39 -51 t-22.5 -50.5t-14.5 -51t-14.5 -50.5t-22.5 -50.5t-39 -50.5l-51 50l-101 760q19 19 37.5 21.5t32.5 -2.5q17 -5 31 -19z" />
<glyph unicode="i" horiz-adv-x="218" d="M82 722q19 -20 20.5 -39t-8 -38.5t-27 -38.5t-36.5 -38v51q0 19 1 37.5t5.5 33t15 23.5t29.5 9zM133 414q0 -38 1 -84.5t5.5 -94.5t15 -94.5t30.5 -85.5q19 0 21.5 -8t-2.5 -18q-5 -11 -19 -25v-51q-39 38 -67 101.5t-42.5 135.5t-13.5 145t20 130z" />
<glyph unicode="j" horiz-adv-x="526" d="M155 834q21 5 43.5 6.5t38.5 -12.5q18 -14 18 -48v-9h-9q-12 0 -18.5 -4.5t-10 -10t-4 -10.5t-0.5 -6h-18q0 4 -5.5 8t-13.5 7.5t-17 6.5t-17 6q-20 6 -34.5 12.5t-16.5 18.5q-1 11 8 18t20 12l2 1h2q6 0 14.5 1t17.5 3zM280 554l11 -12q16 -16 25 -38t17 -45t16.5 -44 t23.5 -35l1 -1l1 -1q8 -14 18.5 -31t22.5 -35q19 -29 38.5 -60.5t33 -65t17.5 -69t-8 -71.5v-1q-16 -32 -40 -57t-51.5 -44.5t-57.5 -35t-59 -29.5l-2 -1h-2q-33 0 -70.5 8t-70.5 23q-28 12 -60 35t-50 60l-3 6l60 61v-22q0 -37 5 -54.5t27 -17.5h2l2 -1q58 -30 118 -30 q57 0 117 29q14 15 28 36.5t25 46.5q22 55 24 109q-15 22 -30.5 42.5t-31.5 40.5q-21 25 -40.5 51t-35 53t-24.5 57t-9 64q0 28 8 63z" />
<glyph unicode="k" horiz-adv-x="533" d="M120 618v-192q36 18 73.5 49.5t78 58.5t86 40t99.5 -5l-337 -239q18 -36 52.5 -57.5t75 -39.5t83.5 -38.5t79 -56.5q18 -18 35 -29.5t30.5 -25t21.5 -34t8 -56.5q-36 36 -80 71t-93.5 62t-103 44t-108.5 17q0 -18 7 -45t11.5 -58.5t2 -66.5t-20.5 -71q-24 24 -33.5 51.5 t-12 58.5t-2 64t-2 68t-12 70.5t-33.5 71.5q24 24 33 51.5t9 58.5t-6.5 64t-14.5 67.5t-14.5 70.5t-6.5 72q24 24 37 26t19.5 -8.5t9 -29.5t5.5 -37.5t7.5 -32.5t16.5 -14z" />
<glyph unicode="l" horiz-adv-x="298" d="M139 733l-3 -21q-15 -91 -11 -168.5t20.5 -151.5t43 -151t56.5 -166l31 -91h-78l-5 9q-26 41 -45.5 85t-35.5 93q-14 45 -24 91.5t-17 100.5q-6 49 -9 91.5t-4 83.5t-1 84v93v18h82z" />
<glyph unicode="m" horiz-adv-x="798" d="M399 139q21 61 34.5 120t33.5 109.5t53.5 89.5t93.5 60q21 0 33 -9.5t22 -25t22 -35t32 -39.5q20 -60 23 -120t3 -115.5t3.5 -105t23.5 -89.5q-1 -16 -7 -28q-5 -11 -15.5 -19t-30.5 -8q-27 40 -38 84.5t-14.5 89.5t-2 89t-2 84.5t-14.5 75.5t-38 62q-40 -13 -63.5 -39 t-37 -59t-19.5 -70.5t-10.5 -75t-10.5 -72.5t-19 -62q-41 14 -69.5 40t-51 60.5t-42 75.5t-42 84.5t-51 87t-69.5 84.5q-14 -41 -19.5 -85t-8.5 -89t-5.5 -89t-10 -84t-22 -75t-41.5 -62v52q20 61 24 129.5t9 134.5t19.5 124t54.5 99q41 0 69.5 -20.5t49.5 -53.5t37 -74.5 t32.5 -83.5t35.5 -81t46 -66z" />
<glyph unicode="n" horiz-adv-x="674" d="M78 574q22 -44 25.5 -97t3.5 -108t3.5 -108t25.5 -97q44 44 69.5 96t47.5 101.5t47.5 90.5t69.5 63q66 -44 111 -108t72 -140.5t39 -162.5t12 -174h-58q-22 66 -35 130.5t-24 125t-23.5 114.5t-34.5 98q-44 -44 -78 -88.5t-61.5 -94t-50.5 -105t-45 -121.5q-44 22 -68 63 t-40.5 90.5t-30.5 101.5t-36 96q15 14 21 33t7.5 40t1 43.5t1 43.5t7.5 40t21 34z" />
<glyph unicode="o" horiz-adv-x="832" d="M179 313q-24 -24 -35.5 -57t-11.5 -68t11.5 -68.5t35.5 -57.5h313q16 16 41 36.5t51 45t50.5 52t40 57.5t19 61t-12.5 63q-71 23 -140.5 33.5t-134 4.5t-122.5 -30.5t-105 -71.5zM807 313q0 -47 -21.5 -93t-57 -87t-80.5 -75.5t-91 -57.5q-48 0 -105.5 -9t-116.5 -15 t-115.5 -3t-103.5 27q-24 23 -45.5 47.5t-33.5 54t-10 65.5t26 83q31 16 49 40.5t30.5 50.5t23 50.5t28 40.5t46 19.5t75.5 -12.5v63q70 0 139.5 -3t134.5 -20.5t123 -56t105 -109.5z" />
<glyph unicode="p" horiz-adv-x="580" d="M514 286q0 -23 8.5 -55.5t14.5 -66.5t3 -66t-26 -54q-45 -23 -90.5 -44.5t-91 -33t-91 -9.5t-90.5 25q45 23 89.5 37.5t84.5 32t73.5 43t56.5 70.5q0 45 -11.5 89.5t-34.5 84t-57.5 72.5t-79.5 55q-22 0 -43.5 -10t-39 -27t-28 -39t-10.5 -45q0 -113 -5.5 -199 t-7.5 -162.5t4.5 -151.5t29.5 -166q0 -23 -10 -35.5t-21 -18.5q-14 -7 -31 -8q-30 76 -43.5 139.5t-17 121t-1.5 111.5t3.5 111t-2.5 120t-19 138q30 76 73.5 113.5t92.5 46t99 -7.5t94 -48t77 -75t48 -88z" />
<glyph unicode="q" horiz-adv-x="571" d="M443 416l-47 -49q0 18 -1 29t-5.5 20t-14 19t-27.5 27q-37 -36 -72 -80.5t-62 -94.5t-43 -103.5t-16 -107.5v-49q54 36 91.5 73t65 78t47 87t37.5 102q18 -18 35 -36.5t30.5 -37.5t21.5 -37.5t8 -36.5l-46 -368q36 17 79 25.5t84 8.5t75 -8.5t52 -25.5l49 -49 q-25 -12 -56 -11t-63 6.5t-63 9.5t-55 -3t-39 -30t-15 -71q-18 -18 -22 -34t-8 -25t-15.5 -9t-43.5 14q-12 60 -14 106t1 85.5t8.5 76.5t8.5 80t1.5 96.5t-13.5 125.5q-18 -36 -37 -71t-42 -66.5t-51.5 -58.5t-65.5 -45q-17 0 -34.5 8.5t-35.5 22t-36.5 31.5t-36.5 36 q18 54 45 115t63 120.5t81.5 111.5t101.5 87q18 0 35 -8t30.5 -21.5t21.5 -30.5t8 -34z" />
<glyph unicode="r" horiz-adv-x="623" d="M72 567q0 -45 1 -90t7 -90t18.5 -90.5t35.5 -90.5q22 45 46.5 98t58 98.5t80 75.5t114.5 30q23 0 54 -1t59.5 -6.5t48 -18t19.5 -35.5q-15 -15 -34.5 -17t-41 3.5t-44.5 13.5t-44.5 13.5t-41 3.5t-34.5 -17q-45 -30 -76 -69t-51 -82.5t-30.5 -89t-15.5 -89t-6 -82.5 t-1 -69q-45 0 -72 18t-42 46.5t-22 63t-12 67.5t-11.5 61t-21.5 42v303h59z" />
<glyph unicode="s" horiz-adv-x="711" d="M460 527q21 0 22.5 -18t-9 -39t-30 -39t-40.5 -18v57q-43 0 -76.5 -10t-65.5 -26t-66 -36.5t-76 -41.5q57 -14 113 -20.5t109.5 -13t103.5 -16t94.5 -30t82 -55.5t65.5 -92q0 -21 -10.5 -50.5t-32 -56t-53.5 -45t-75 -18.5q-21 -21 -51 -23t-62 8.5t-62.5 30t-51.5 40.5 q-21 0 -40.5 10.5t-30 32t-9 53.5t22.5 75q14 -14 28.5 -36t30.5 -46t33.5 -46t38 -36t44.5 -17.5t53 10.5q21 0 42 1t42.5 6t43 17t42.5 33q14 28 11 48t-15.5 34.5t-31 24.5t-36 19.5t-30 20t-12.5 24.5q-57 14 -109 16t-99 -1t-89.5 -7.5t-80.5 -3t-71 12.5t-62 40 q43 42 95.5 83t111 73t121.5 51.5t127 19.5z" />
<glyph unicode="t" horiz-adv-x="713" d="M417 813v-13q0 -28 -8 -56t-17 -55t-16.5 -53.5t-7.5 -52.5q0 -25 9 -49t32 -49q23 23 52 39.5t61 25.5q42 11 82.5 8t78.5 -22l15 -7l-14 -7q-42 -21 -83 -33t-83 -23q-38 -10 -78 -21t-79 -31q1 -66 21 -130t41 -123q18 -49 32.5 -93.5t14.5 -82.5v-8h-66l-2 4 q-24 46 -37 102.5t-24 119.5q-9 51 -20 102.5t-28 105.5q-26 -1 -52 -9t-52 -17q-25 -9 -48.5 -16t-44.5 -6q-49 0 -75 52l-3 6l4 4q23 22 54 25.5t68 3.5q34 0 71.5 3.5t75.5 21.5q0 41 2 90t13 95t34 84t65 59z" />
<glyph unicode="u" horiz-adv-x="732" d="M139 531q-23 -23 -35.5 -56.5t-18.5 -73t-7 -84t-1 -89.5q23 -22 45.5 -43.5t45 -39t45.5 -28t46 -10.5q22 -22 44.5 -14t45.5 30.5t45.5 52.5t44.5 52q0 45 -8.5 80.5t-14 64t-2.5 51.5t25 45h62q14 -30 20.5 -60t11.5 -60t12 -60.5t22 -60.5t41.5 -60.5t71.5 -60.5 q0 -22 9.5 -34.5t21.5 -24t21.5 -25t9.5 -36.5q0 -22 -10.5 -24t-28 9.5t-39 32.5t-43.5 44l-182 120q-22 -45 -45.5 -79t-52 -57t-64 -34.5t-80.5 -11.5q-45 23 -78.5 65.5t-56 93.5t-33.5 104.5t-11 98.5q0 15 0.5 39t4 49t10.5 48.5t20.5 38.5t34.5 18.5t51 -11.5z" />
<glyph unicode="v" horiz-adv-x="502" d="M516 486q-57 -38 -96.5 -92.5t-68 -116t-49 -125.5t-39.5 -121l-50 -49q-38 38 -74 84.5t-64 98t-45.5 107.5t-17.5 113v49q18 -38 44.5 -75.5t55 -75t55.5 -75.5t46 -76q19 57 40 113t54.5 107.5t83 98t125.5 84.5v-49z" />
<glyph unicode="w" horiz-adv-x="785" d="M761 501q0 -53 -2 -112.5t-15 -121t-41.5 -121t-80.5 -111.5q-35 -18 -69 -11.5t-65 28.5t-56.5 54.5t-43.5 67.5q-12 -12 -17 -30t-8.5 -40t-9 -46t-17 -46t-32 -40.5t-55.5 -29.5q-35 52 -69 105t-64.5 109.5t-56 118.5t-42.5 133h46l186 -373q17 35 28 83.5t24 96.5 t32.5 88t54.5 58q12 -24 21 -53.5t19.5 -60.5t24.5 -61t36 -53.5t54 -37.5t79 -14q17 52 28 112t24 121t32.5 121t54.5 112v-46z" />
<glyph unicode="x" horiz-adv-x="587" d="M560 502q0 -19 -15.5 -30t-33.5 -20t-33.5 -19.5t-15.5 -28.5l-101 -151q19 -37 45.5 -59t54 -40.5t54 -40.5t45.5 -60q-37 -18 -66.5 -11.5t-57.5 25t-58 43.5t-67 44q-18 -19 -36.5 -45.5t-37.5 -54t-37.5 -54t-37.5 -45.5q-13 12 -10.5 28.5t14 36t28 41.5t32 45.5 t26.5 48.5t11 50l-250 247l50 50q37 -37 66 -66.5t52 -57.5t43 -58t39 -67q24 25 45.5 56.5t42 63.5t42 61t46 48.5t54.5 26t67 -6.5z" />
<glyph unicode="y" horiz-adv-x="513" d="M473 492q0 -76 -15 -144.5t-38 -133.5t-49 -128t-49 -128t-38 -133.5t-15 -144.5q0 -19 -8 -21.5t-17 2.5q-11 5 -25 19q-18 57 -12.5 105.5t19.5 91t28.5 81.5t14.5 77q-25 25 -56.5 55t-64 63.5t-62 71.5t-49 80.5t-26.5 89t5 97.5q38 12 57.5 6t26.5 -23t6 -40 t-2.5 -44.5t0 -36t14.5 -14.5q19 -38 39 -67.5t43.5 -53.5t53 -43.5t67.5 -38.5q38 38 59.5 92t36 110.5t26 110.5t30.5 92v-50z" />
<glyph unicode="z" horiz-adv-x="665" d="M502 414q0 -36 -14.5 -69t-37.5 -64t-51 -61.5t-55 -61.5t-50 -64t-35 -70q54 18 117.5 28t132 14.5t141 5.5t146.5 1q0 -18 -8.5 -28t-22 -14.5t-31.5 -5.5t-36 -1q-74 0 -146 -7.5t-140.5 -17t-132 -17t-118.5 -7.5q-18 18 -19.5 36.5t7.5 37t26 37t35 36.5 q37 37 66 73t56.5 68t56 58.5t64.5 43.5q-36 37 -76 48t-80.5 8.5t-80.5 -12.5t-77 -17t-69 -4.5t-56 26.5q55 18 111 35t115.5 26t124 7.5t137.5 -19.5v-49z" />
<glyph unicode="{" horiz-adv-x="470" d="M441 1010q0 -33 -13.5 -44.5t-30 -16t-30 -8t-13.5 -19.5q-50 -33 -96.5 -73.5t-79.5 -86t-47 -94.5t3 -98q16 -16 46.5 -25.5t63.5 -17.5t63 -18t47 -26l-133 -131q17 0 46.5 5.5t58.5 5t50.5 -12t21.5 -44.5q-33 -16 -58.5 -40t-46 -52.5t-38 -61t-34.5 -65.5 q-17 -49 -3.5 -97t42.5 -89.5t67 -73t71 -47.5q-66 -66 -132 0q-17 33 -46 66.5t-53.5 70.5t-37 79t4.5 91q16 33 25.5 58.5t17.5 46t17.5 37.5t26.5 34h-87q-17 33 -12 58.5t17 46t25 37.5t13 34q-65 66 -131 131q16 66 49 137t82.5 133t115 107.5t148.5 62.5z" />
<glyph unicode="|" horiz-adv-x="375" d="M151 1169v-3q24 -119 38 -238t21.5 -238t11 -237t5.5 -234q3 -158 8.5 -318t21.5 -321l1 -4h-62l-1 4q-19 195 -30 382t-21 370q-10 190 -22 384t-32 397v56h61z" />
<glyph unicode="}" horiz-adv-x="535" d="M347 875q31 -46 33.5 -98t-13 -102t-43.5 -94t-59 -75q31 -16 61 -25.5t57 -21.5t50 -29.5t38 -48.5q-15 -15 -30.5 -17.5t-31 -2.5t-31 -2.5t-31.5 -17.5q31 -16 54.5 -45.5t39 -68t23 -84t7.5 -91.5q0 -31 -7.5 -67.5t-23 -71t-39 -63.5t-54.5 -44q-15 -15 -37 -35.5 t-49 -36t-57.5 -21t-61.5 9.5q0 16 -6 31.5t-10 31t-2 31t18 30.5h41v-82q31 0 61 13.5t57 32.5t49.5 40.5t38.5 36.5q15 46 23 86t8 78.5t-8 78.5t-23 86q-16 31 -43.5 49t-54.5 33t-46.5 33t-19.5 49q15 0 29.5 0.5t26.5 4.5t19 12.5t7 24.5q-11 10 -27 14.5t-33 7 t-33 4.5t-26.5 8t-12.5 17t8 32q16 15 37 37t40.5 49t33 57.5t13.5 61.5t-1.5 61t-9 57t-24 49.5t-47.5 38.5q-31 0 -55 0.5t-43.5 4.5t-35.5 12t-31 23q0 16 20.5 18t51 -2t66.5 -10t67 -6z" />
<glyph unicode="~" horiz-adv-x="700" d="M638 349q54 -54 0 -109q-27 14 -37 39t-17 52.5t-17 52t-37 38.5q-34 7 -67 -3t-64.5 -29.5t-62 -44t-61 -46.5t-61.5 -38t-62.5 -18t-64 13.5t-66.5 56.5v73q27 -14 42.5 -27t29 -23.5t29.5 -16.5t43 -6q36 0 67.5 18t61 43.5t58.5 51.5t61.5 42.5t69.5 16.5t83 -27z " />
<glyph unicode="&#xa1;" horiz-adv-x="263" d="M174 675q10 -11 10.5 -25t-7 -27t-23 -22t-36.5 -9q-20 0 -41 3.5t-42 24.5q10 10 12.5 24.5t5 30.5t10 30.5t28.5 25.5q10 0 24.5 -1t27.5 -6t22 -16.5t9 -32.5zM118 647q11 0 11.5 4.5t-1.5 9.5q-4 6 -10 14q-7 -8 -10 -14q-2 -5 -1.5 -9.5t11.5 -4.5zM170 519 q-23 -8 -34.5 -23.5t-16.5 -36t-5.5 -44.5t0.5 -49q1 -28 0.5 -55t-7.5 -49l-1 -2v-2q0 -32 1 -68t6.5 -73.5t17 -74.5t33.5 -69l8 -12l44 43l-3 7q-15 39 -22.5 83t-10 91t-1.5 96.5t3 98.5q2 32 3 64t1 64v17z" />
<glyph unicode="&#xa2;" horiz-adv-x="604" d="M282 746l3 -1q13 -6 19.5 -18.5t9.5 -28t3 -34v-37.5q-2 -33 0 -62.5t19 -44.5q19 -14 60 -4l6 1v-6q0 -11 8.5 -17.5t17.5 -13.5q8 -5 14.5 -10.5t7.5 -14.5v-1q0 -10 -10 -21v-41h-4q-17 0 -32 13t-29 27q-13 13 -25.5 23.5t-23.5 13.5q2 -16 6 -35q4 -17 7.5 -36 t3.5 -40q0 -40 -17 -77q0 -10 0.5 -26.5t3 -33.5t8.5 -31.5t17 -20.5q15 -11 40 3h1h2q32 0 56.5 8t44.5 16q14 6 26.5 10t24.5 4h5v-4q0 -51 -46 -71q-19 -8 -39 -9t-34 -1q-13 0 -31 5q-11 3 -20.5 4.5t-19 -1.5t-19 -12.5t-19.5 -28.5q14 -15 22 -35.5t15 -40.5 q7 -21 15 -41t22 -34l3 -4l-3 -3q-15 -14 -24 -21.5t-18 -7.5q-8 0 -17 7.5t-23 21.5q-16 7 -24.5 20t-12.5 28.5t-4.5 33.5t-0.5 36t-0.5 34.5t-3.5 31t-10 26t-19 18.5q-55 -24 -113 16q-23 17 -44.5 43.5t-38.5 58.5v1v1q0 29 1 57.5t8.5 54t23.5 47.5t46 37h1h1 q59 0 86 30q13 13 19 31.5t8 39.5t1 42t-2 41q-1 12 -1.5 22t-0.5 20v2zM179 234q22 -11 48 -16.5t52 -7.5q0 54 -5.5 110t-33.5 111q-8 -1 -20.5 -4t-26 -9t-27 -15.5t-23.5 -23.5q-17 -23 -17 -53q0 -10 1.5 -20.5t6.5 -22.5v-1q0 -11 11.5 -24.5t33.5 -23.5z" />
<glyph unicode="&#xa3;" horiz-adv-x="917" d="M485 801q42 0 70 -4t52 -29l6 -6v-95l-15 7q-5 2 -9 4q-3 2 -6 3.5t-2 1.5l-3 1q-15 7 -30.5 14.5t-29.5 12.5t-25.5 6t-18.5 -3v-6h-8q-124 -95 -174 -314q35 2 69.5 5.5t66.5 7.5q38 5 80 9.5t85 4.5h64l-52 -36q-41 -28 -91.5 -34.5t-106.5 -8.5q-29 -2 -61 -4 t-62 -10q-2 -8 -3 -15.5t-1 -15.5q0 -22 4.5 -44t12.5 -48l2 -8q5 -20 9.5 -40t6.5 -41q11 -4 21.5 -5t22.5 -3q19 -2 42 -8t40 -30q36 7 69 2t60 -11l3 -1q34 -8 61.5 -10.5t55.5 14.5l1 1q39 40 73.5 81.5t52.5 97.5h1l5 14h14q13 0 22 -1t16 -8q8 -7 9 -16t1 -21v-6 q-1 0 -1 -1q-1 -1 -1 -2q-12 -35 -38 -74t-58 -71q-17 -17 -37 -32t-40 -27q-47 -24 -90 -24h-5h-1q-20 7 -42 9.5t-44 4.5h-6h-5q-1 0 -2 1q-40 2 -79 8t-68 30h-35q-3 -6 -3.5 -13t-0.5 -14q0 -8 -2 -17.5t-13 -14.5q-16 -8 -33 12q-2 2 -9 8.5t-12 11.5q-17 -2 -34 -11 t-32 -20.5t-27.5 -23.5t-20.5 -20l-10 -10l-13 6h-1q-21 11 -27.5 23t-6.5 21q0 10 4 17.5t9.5 13.5t11 9.5t7.5 4.5q31 29 53.5 41.5t45.5 22.5l27 12q-1 3 -4.5 21t-8.5 43t-11 54t-11 54.5t-8.5 43.5t-4.5 22q-9 -1 -17.5 -2t-17.5 -3q-28 -5 -58.5 -6.5t-62.5 14.5 l-11 6v12q0 22 22 31h1v1q7 2 13.5 2h14.5q10 0 20.5 1t15.5 7l6 6h8q37 0 56 2t34 15q14 68 31.5 122t40.5 98q69 127 182 168l2 1q1 0 1 1h6z" />
<glyph unicode="&#xa4;" horiz-adv-x="796" d="M614 743q4 -35 0.5 -60t-11 -45t-16 -38.5t-13.5 -39.5t-5.5 -47t9.5 -62h37q18 -36 31 -78t18 -85.5t0 -86t-23 -80.5q-14 -12 -31.5 -29t-27 -35t-4.5 -35t37 -29l128 -80q-34 -10 -67 -5t-64 20.5t-59.5 39.5t-54.5 52q-52 -4 -97.5 -9.5t-81.5 -22t-61 -49t-37 -90.5 q-8 -6 -15.5 -14.5t-15 -16t-15.5 -12.5t-18 -5q-8 28 1.5 55t27 54t38 54.5t34.5 55.5q-22 16 -53 33.5t-59.5 40t-48.5 51t-20 66.5q-4 40 6.5 77.5t29.5 70.5t43.5 60.5t48.5 47.5q8 -5 13 0.5t13 9.5q-18 28 -37 55.5t-36.5 55.5t-31.5 57t-22 61q42 -10 67.5 -38 t45.5 -63.5t39.5 -72.5t49.5 -65q57 -16 92.5 -16.5t57.5 11t33.5 33.5t20.5 51t19.5 63t30.5 70l-10 64h64zM386 414q-17 -26 -36 -33t-38.5 -5t-40 10t-40 13.5t-38.5 4.5t-36 -17q0 -19 -5 -43.5t-9.5 -51.5t-5.5 -54.5t6 -52.5t25 -46t53 -34q40 -14 88 -29t96.5 -18 t93.5 12t79 61q20 26 23.5 55.5t-2 59.5t-16.5 59t-21 55q-16 22 -36.5 34t-43.5 17t-47.5 5t-48.5 -2z" />
<glyph unicode="&#xa5;" horiz-adv-x="667" d="M546 837q14 0 30.5 -11t16.5 -37v-5q-39 -47 -72 -87l-28 -34t-25.5 -31t-20.5 -25t-12 -15q13 0 29 4q14 3 26 4t23 -7q14 -11 14 -38v-6l-4 -4q-16 -16 -36.5 -18.5t-40.5 -2.5q-12 0 -24 -0.5t-21 -4.5q16 -19 16 -37v-2q-1 -14 -8 -22.5t-15 -14.5l-4 -4t-3 -4l1 -1 q15 -8 33.5 -10.5t38 -2t40 2.5t39.5 5q20 3 38.5 5t35.5 2h14v-14q0 -35 -31 -50q-11 -5 -25 -7l-28 -4q-17 -2 -31 -4.5t-22 -10.5l-4 -4h-6q-10 0 -21.5 2.5t-23.5 5.5q-8 2 -15 3.5t-13 2.5q-12 1 -13 0q0 -100 -4.5 -201.5t-31.5 -203.5l-27 4v386q-27 -2 -50.5 -8.5 t-46.5 -14.5q-33 -11 -64.5 -18t-63.5 9l-8 4v9q0 22 12 33t26 19q8 5 16.5 10.5t16.5 14.5l4 4h6q23 0 40.5 0.5t31.5 2.5t25 7.5t22 14.5v46q-23 -1 -48.5 -6t-51.5 -10q-31 -6 -62 -11.5t-57 -5.5h-23l10 20q9 18 22 28t28 16t31.5 8t31.5 4q18 2 33 4.5t23 10.5 q6 5 11 10l17 17q-16 40 -44.5 75t-60.5 71q-23 26 -46.5 52.5t-44.5 57.5l-14 22h65l4 -4q26 -26 56.5 -62t61.5 -74q26 -32 51.5 -62t48.5 -55q15 34 37 67.5t47.5 64.5t52 59.5t50.5 52.5l13 13h6z" />
<glyph unicode="&#xa6;" d="M436 857q0 -71 0.5 -133t6 -117.5t17 -105.5t33.5 -97q-10 -16 -23 -15t-24 1q-27 51 -49.5 104.5t-32 111.5t-2.5 120.5t40 130.5h34zM467 262q15 -71 16 -134.5t-4.5 -126.5t-13 -128t-9.5 -138h-48l12 527h47z" />
<glyph unicode="&#xa7;" horiz-adv-x="491" d="M316 841l6 -6q15 -11 31 -19q12 -6 23.5 -15t11.5 -27v-4l-2 -3q-15 -26 -49 -29q-14 -2 -28.5 -1.5t-29.5 2.5q-22 2 -42.5 3t-37.5 -6l-3 -1h-3q-35 0 -75 -64q1 -30 28 -52q14 -12 32.5 -21t38.5 -19q30 -14 58.5 -29.5t48.5 -40.5q11 -14 23 -26.5t24 -24.5 q20 -20 37 -39t29 -42q17 -31 17 -63q0 -11 -2 -20.5t-5 -20.5q-1 -19 -15.5 -32.5t-31.5 -25.5q-8 -5 -18 -13.5t-10 -13.5q1 -2 5 -6q4 -3 11 -8t21 -10l9 -4v-9q0 -67 -28 -117q-31 -57 -99 -96l-7 -4l-7 3q-48 20 -90.5 55.5t-66.5 75.5l-14 21h27q27 0 47.5 -13 t37.5 -28q16 -13 31 -23t34 -10h3l3 -2q15 -6 23 -1q15 9 15 63v4l2 3q7 11 12.5 25t5.5 28v9t-2 8q-7 20 -36 34q-35 0 -59.5 8t-47.5 18q-22 9 -45 16t-55 7h-8l-5 8q-12 21 -14 41.5t-2 40.5q0 18 -1.5 34.5t-11.5 33.5l-4 7l4 7q9 15 22.5 29t30 27t33.5 25t32 22 q5 4 10 7.5t10 6.5q-12 8 -25 15t-27 13q-16 7 -32 15.5t-28.5 19.5t-20 26.5t-7.5 36.5q0 74 93 127q38 23 81.5 37.5t75.5 23.5zM223 461q-35 0 -75 -65q-1 -5 -1.5 -9.5t-1.5 -9.5q-2 -11 -3.5 -21t-1.5 -19q0 -14 4.5 -25.5t17.5 -19.5q1 1 1.5 1t1.5 1q16 10 29 5 q7 -2 11 -10q26 -2 50 -12t44 -20l19 -9.5t17 -6.5q5 8 9.5 14.5t9.5 13.5q14 20 23 36.5t11 37.5q-12 11 -22.5 22.5t-21.5 22.5q-26 29 -52.5 51t-68.5 22z" />
<glyph unicode="&#xa8;" horiz-adv-x="566" d="M476 694q26 -26 28 -51.5t-11 -51t-36.5 -51.5t-49.5 -52q-26 26 -29 52t3.5 51.5t16 51t9.5 51.5h69zM132 694q26 -26 29 -51.5t-3.5 -51t-16 -51.5t-9.5 -52q-26 0 -39.5 1t-20 7.5t-7.5 20.5t-1 40q-17 38 -17 68q0 13 3.5 25t13 22t26 16t42.5 6z" />
<glyph unicode="&#xa9;" horiz-adv-x="832" d="M641 604q45 -33 73.5 -76.5t45.5 -93.5t23.5 -105t6.5 -111q-11 -23 -28 -50t-39 -54.5t-50 -54.5t-62 -49q-55 -23 -115 -25t-118.5 6t-112.5 22.5t-99 25.5q-89 45 -115.5 112t-3.5 156q11 56 29 106t45.5 94.5t67.5 83.5t96 72q22 11 49.5 21.5t58 16t64 4.5t66.5 -12 q0 -33 14 -51.5t33.5 -26.5t39.5 -9.5t31 -1.5zM255 574q-45 -33 -73.5 -76.5t-45.5 -93.5t-23.5 -105t-6.5 -111q7 -37 26 -60.5t45.5 -37.5t59 -21t66.5 -11t67.5 -8t63.5 -11q45 0 88 6.5t79 23.5t62.5 45.5t37.5 73.5q22 33 29 66.5t4 67.5t-12.5 67.5t-20.5 66.5 q-23 44 -55 68.5t-68 38.5t-73.5 22t-70.5 19q-8 22 -22 30.5t-31 8t-36.5 -8.5t-36.5 -19t-31.5 -22t-21.5 -19zM371 485q-34 -14 -71 -42t-81 -70q-22 -23 -34 -51t-12 -56v-9t1 -9q8 -45 46 -67q45 -43 102 -55q48 -10 113 2q58 11 113 36t97 47l4 2v46l-11 -3 q-19 -7 -38 -15t-39 -17q-49 -21 -100.5 -39.5t-114.5 -18.5q-21 11 -41 22.5t-33 27.5q-17 22 -17 48q0 20 8 40v2v1q0 9 9 27t26 38q39 45 76 45h3l3 2q7 8 25.5 20.5t44.5 12.5q35 0 67 -33l14 -14v54l-2 3q-65 63 -158 23z" />
<glyph unicode="&#xaa;" horiz-adv-x="325" d="M243 582q0 -26 5 -56.5t8 -60t1.5 -53.5t-14.5 -37q-39 13 -76 21.5t-66 21.5t-47 34.5t-18 60.5q13 26 32 40t41.5 20.5t48 7.5t51.5 1q0 13 -6 25t-16 22t-22 16t-25 6h-69q26 39 51.5 43t48 -12.5t41 -45t31.5 -54.5zM140 547q-13 -13 -25.5 -20.5t-22 -14t-15.5 -14 t-6 -20.5q13 -13 26 -20t25.5 -10t25.5 -3.5t26 -0.5v34q0 13 -0.5 25.5t-3.5 22t-10 15.5t-20 6z" />
<glyph unicode="&#xab;" horiz-adv-x="550" d="M299 645v-87q-34 -45 -63 -82q-12 -16 -24.5 -31.5t-23 -29t-18 -23.5l-10.5 -14q8 -12 18.5 -26t21.5 -28q14 -17 27 -34t22 -34q8 -4 15 -12.5t11 -25.5q2 -12 2.5 -24t0.5 -20v-24h-55l-7 7q-13 13 -23.5 31t-20.5 38q-17 31 -38.5 63t-55.5 50l-21 10l33 70l6 3 q26 17 47.5 43t44.5 55q17 22 33.5 43t36.5 41zM428 590q22 0 33.5 -14t11.5 -31v-9q-34 -38 -62 -71q-24 -28 -46.5 -53.5t-30.5 -33.5q14 -25 24 -49q9 -19 19 -37t21 -33t25 -26t32 -15l6 -1l5 -5q9 -9 12.5 -18.5t3.5 -18.5q0 -12 -4.5 -22t-11.5 -17l-7 -7h-64 l-163 254l14 14q45 45 88.5 91t73.5 91l7 11h13z" />
<glyph unicode="&#xac;" d="M810 515q-16 -66 -18 -124.5t2 -115.5t10 -115t6 -124q-32 -16 -43.5 -10.5t-15.5 21.5t-7.5 37.5t-19.5 38.5q16 33 18.5 66.5t2.5 70t3 78t19 90.5q-98 16 -195 13t-191 -7.5t-183 0.5t-171 38q82 0 184 6.5t208 15t208 15t183 6.5z" />
<glyph unicode="&#xad;" horiz-adv-x="529" d="M108 349q5 -3 9 -5l6 -3q2 -1 3 -2q22 -9 47.5 -12.5t52 -3.5t53 3t51.5 6l50 6t49 3h14v-16q0 -18 -1 -28t-6 -18q-7 -8 -15.5 -9t-22.5 -1q-23 0 -45 -2.5t-42 -6.5l-5 -1q-24 -3 -49 -6t-52.5 -3t-57 4t-61.5 15l-5 2l3 25l1 5h5h3q2 0 7 3q8 6 8 21v24z" />
<glyph unicode="&#xae;" horiz-adv-x="786" d="M658 608q29 -29 52 -62.5t37.5 -70t18.5 -74.5t-5 -76q-29 -48 -51 -99t-48.5 -97t-63.5 -82.5t-95 -55.5q-48 0 -103.5 -2t-111 5t-106.5 29t-90 70q-48 39 -61.5 94t-9 115.5t20 120t24.5 107.5q58 78 135 132t174 74q39 -10 77 -17t74 -19t69.5 -33t62.5 -59zM143 555 q-19 -48 -36 -103.5t-21.5 -111t7.5 -106.5t50 -90q29 -48 71 -69.5t90 -26.5t99.5 2.5t99.5 16.5q58 29 97.5 71t63.5 93t34.5 107.5t10.5 114.5q-9 10 -15 31t-13 40t-18 30t-30 1l-53 53q-7 13 -13 14t-12.5 -3.5t-13 -11.5t-13 -11t-13 -2.5t-12.5 14.5q-9 10 -10 15.5 t4 10.5t13.5 10.5t18.5 14.5q-58 10 -114.5 13t-107 -6.5t-93 -35.5t-71.5 -75zM529 479q19 -10 25.5 -20t6.5 -22t-3.5 -27t-3.5 -34q-38 -20 -79.5 -35.5t-99.5 -15.5q10 -19 27.5 -34t37 -27t37 -22t26.5 -20h51l26 -25q-20 -20 -55 -20t-73 20q-19 9 -38.5 26.5 t-41.5 37t-46.5 37t-52.5 27.5q-13 -19 -15 -40t1 -42t7 -40.5t2.5 -36t-11.5 -29t-36 -18.5q-9 48 -10 96.5t4 96.5t13.5 96t18.5 96q29 29 69.5 43.5t81.5 12t76.5 -22t54.5 -58.5zM324 504q-29 0 -37 -9t-8 -23t1.5 -32.5t-7.5 -37.5q19 -20 54 -23t74 -3q19 0 37.5 5 t32.5 14.5t23 24t9 33.5q-19 19 -38.5 29.5t-41 15t-46 5.5t-53.5 1z" />
<glyph unicode="&#xaf;" horiz-adv-x="692" d="M599 338q0 -24 -0.5 -37.5t-5 -19.5t-14 -7t-26.5 -1q-52 0 -104 -9t-108 -15t-117 -3t-130 27q12 1 22 8q8 6 15.5 19t7.5 38q52 -24 111 -27t119 3t119 15t111 9z" />
<glyph unicode="&#xb0;" horiz-adv-x="426" d="M388 567q15 -45 10 -81.5t-20 -62.5t-34.5 -40t-34.5 -14q-30 -15 -53.5 -16.5t-45.5 2t-45.5 9t-53.5 5.5q-30 15 -46 43t-23.5 61.5t-8.5 68.5t-1 65q15 30 42 56.5t56.5 37.5t57 0.5t42.5 -55.5q30 0 52.5 -6.5t41 -18t34 -25.5t30.5 -29zM151 607q-15 0 -23 -13 t-12 -31.5t-4.5 -39t-0.5 -35.5t13.5 -35t36 -34.5t50.5 -19.5t58 10q30 29 54.5 59t24.5 60q-15 30 -36.5 46t-47 23.5t-54.5 8.5t-59 1z" />
<glyph unicode="&#xb1;" horiz-adv-x="626" d="M287 382q33 0 65.5 6t61.5 10t53 2t41 -18q0 -16 -0.5 -25t-5 -13t-13.5 -4.5t-26 -0.5q0 16 -14.5 18t-34.5 -2t-42.5 -10t-38.5 -6q-12 -11 -10.5 -28.5t7.5 -37t12.5 -39t5.5 -35.5t-14.5 -26t-46.5 -10q0 16 -0.5 39.5t-4.5 48t-13 48t-25 40.5q-33 0 -65 -12.5 t-60.5 -21t-53 -4t-40.5 37.5q16 16 40.5 18.5t53 2.5t60.5 3t65 19q0 33 -6.5 59.5t-15 51t-15 50t-6.5 58.5q32 -17 43.5 -40.5t15.5 -52t7.5 -61t19.5 -65.5zM595 74q0 -22 -10 -33.5t-26 -17.5t-35.5 -8t-39 -4.5t-36.5 -7t-28 -15.5q-50 16 -98.5 18t-93.5 -2 t-85.5 -10t-73.5 -6l-44 43q44 22 91 31t96 11.5t98.5 2t98 2t95.5 11.5t91 31v-46z" />
<glyph unicode="&#xb2;" horiz-adv-x="372" d="M231 682q0 -33 -15 -52t-35 -33.5t-40.5 -28t-30.5 -36.5q34 -12 67.5 -5t65 16t59.5 10.5t51 -21.5q-23 0 -48.5 -10.5t-51 -24t-50.5 -26t-47.5 -16t-42 5.5t-33.5 39q-8 23 0 43.5t21.5 38.5t27.5 33.5t20 28t-1.5 22t-37.5 16.5h-90q0 24 18.5 43t41.5 19q22 0 44 -1 t42 -7t36.5 -18.5t28.5 -35.5z" />
<glyph unicode="&#xb3;" horiz-adv-x="233" d="M211 689q0 -20 -8.5 -39.5t-21.5 -34.5t-27 -24t-24 -9q10 -9 24 -14.5t27 -10.5t21.5 -11.5t8.5 -16.5q0 -30 -9 -50.5t-24 -35t-34.5 -25.5t-39.5 -21q-10 -10 -23.5 -10.5t-25.5 4.5t-20.5 14t-8.5 19v26q9 0 23 -3.5t28.5 -3.5t28.5 6.5t24 25.5q11 0 16 4.5t8 9.5 q3 6 4 14q-11 10 -29 12.5t-35 7.5t-30 17t-13 42q0 10 13 17t30 14.5t35 18.5t29 31q-20 10 -40 10.5t-37 -4.5t-31.5 -14.5t-23.5 -19.5v28q9 20 32 34t50 19t55 -1t48 -26z" />
<glyph unicode="&#xb4;" horiz-adv-x="404" d="M408 801v-68l-381 -256v127q96 53 190.5 99.5t190.5 97.5z" />
<glyph unicode="&#xb6;" horiz-adv-x="511" d="M301 881l9 -5q35 -18 43 -54q1 -5 1 -9.5v-9.5q0 -19 -5 -41q-1 -5 -1.5 -10t-1.5 -10q23 0 45.5 4.5t45.5 27.5l10 11v-799l-9 5q-38 18 -44 127q-1 12 -1 24.5v26.5q0 36 1.5 73.5t3.5 70.5q2 24 3 44t1 37q-26 0 -41 -4.5t-15 -23.5v-1l-1 -2q-12 -24 -14 -70t-2 -99 q0 -55 -2 -108.5t-14 -91.5l-2 -4h-4q-2 0 -6 1q-3 1 -6.5 1.5t-7.5 2.5q-8 3 -14.5 11t-6.5 23q9 100 17 180q3 34 6.5 66.5t5.5 59t4 43t2 18.5q-28 8 -52.5 11t-46.5 5q-19 1 -36.5 3.5t-34 7.5t-33 14.5t-32.5 25.5h-1v1q-26 54 -26 104t26 104v1q9 9 17 16q7 6 12 11.5 t6 6.5q18 35 53 42q16 3 33 1.5t36 -4.5q12 -2 24.5 -3t25.5 -1h29v139zM140 663q-11 -11 -17 -18t-9 -13q-2 -5 -2.5 -11.5t-0.5 -18.5q0 -13 1 -30t6.5 -35t18 -35t35.5 -29h129v190h-161zM348 697q5 -18 6.5 -36.5t1.5 -37.5v-21t-1 -20q0 -10 -0.5 -19t-0.5 -18 q0 -35 8.5 -62.5t39.5 -40.5q0 36 -0.5 66.5t-4 60.5t-10 61t-18.5 67h-21z" />
<glyph unicode="&#xb7;" horiz-adv-x="220" d="M170 339q-12 -12 -10 -28t2 -30.5t-9.5 -24.5t-44.5 -10q0 23 -9.5 36t-21.5 22t-21.5 16t-9.5 19q23 23 41 30.5t32.5 4.5t26.5 -13t24 -22z" />
<glyph unicode="&#xb8;" horiz-adv-x="315" d="M88 -89q11 -11 25.5 -12.5t31 1t33.5 6t33.5 2.5t31 -10t25.5 -32t9 -38.5t-12 -26.5t-25 -19.5t-28.5 -15.5t-23.5 -15.5t-10 -19.5h-135q0 34 22 46t51.5 16t59.5 7.5t47 20.5q-23 11 -45 9.5t-42 -8t-37 -13t-29.5 -5t-19.5 14.5t-7 47t0.5 66.5t5 58t13.5 41t26 15.5 v-136z" />
<glyph unicode="&#xb9;" horiz-adv-x="137" d="M48 733l9 -26q9 -29 20 -54q11 -28 20.5 -56t13.5 -56t-1.5 -56.5t-24.5 -56.5l-11 -16l-8 25q-11 33 -21 66.5t-15 67.5t-4 68t13 68z" />
<glyph unicode="&#xba;" horiz-adv-x="279" d="M201 455q-20 -19 -39 -20t-37.5 9t-37.5 28.5t-38 38.5q-21 31 -24.5 62t4.5 58.5t25 52t37 43.5q20 18 40 14.5t39.5 -17t38 -30.5t34.5 -26q41 -140 -42 -213zM189 619q-3 12 -6.5 23t-9.5 19.5t-14.5 12t-20.5 -0.5q-78 -75 -65 -122q18 -20 33.5 -28.5t29 -11t25 0 t22.5 5.5q12 3 16 15t3 27.5t-5 31.5t-8 28z" />
<glyph unicode="&#xbb;" horiz-adv-x="738" d="M160 628l223 -251l-4 -14q-14 -43 -44 -84.5t-62 -82.5q-14 -18 -27.5 -36t-25.5 -36l-17 -23l-20 20q-8 8 -17 21t-7 29q2 17 13.5 28t23.5 19q11 8 20.5 15.5t15.5 18.5l3 6l5 3q60 37 63 73q1 15 -8 31.5t-24 32.5t-33.5 32.5t-36.5 31.5q-32 26 -59 52t-41 53l-2 5 v56h61zM325 615q14 -28 39 -43.5t55 -31.5q22 -11 44 -23.5t42 -31.5q38 -35 53 -91q7 -1 14 -3t14 -7q27 -18 27 -65v-17l-16 -6q-26 -8 -53 -28.5t-54 -43.5q-31 -26 -62.5 -49t-64.5 -34l-3 -1h-4q-14 0 -21 5t-10 10q-4 5 -4 14q0 6 4 16q6 10 19 17.5t27 9.5l140 140 q-6 23 -18 40t-27.5 30t-34 23t-39.5 21q-27 14 -54.5 30t-50.5 40l-7 7v61z" />
<glyph unicode="&#xbc;" horiz-adv-x="725" d="M84 677q0 -54 6.5 -100t11 -86.5t2.5 -77.5t-20 -73q-18 36 -34.5 87t-25.5 105.5t-7.5 105.5t19.5 87q18 0 27.5 -7.5t14.5 -16.5q5 -11 6 -24zM469 581q0 -18 -7.5 -21t-16.5 -3t-16.5 -3t-7.5 -21q-36 -54 -79 -109t-83.5 -114t-74.5 -123t-52 -136v-48l-48 48 q36 72 73 144.5t77.5 144.5t86.5 144.5t100 144.5zM710 436h-48q-18 -18 -28 -37t-14.5 -41.5t-5 -50t-0.5 -63.5q27 13 48 18q18 5 33 2.5t15 -20.5q-18 -18 -35 -27.5t-31 -14.5q-16 -5 -30 -6q0 -36 7.5 -64t16.5 -50.5t16.5 -41.5t7.5 -37q-18 -18 -35 -13t-31 19 q-16 16 -30 42q0 18 -1 35.5t-5.5 31t-14.5 22t-28 8.5t-37 -7t-41.5 -11.5t-50 -2t-63.5 20.5q0 36 8 72t21.5 72t31 72t35.5 72q1 -13 6 -24q5 -9 14.5 -16.5t27.5 -7.5q-18 -18 -34.5 -36t-25.5 -36t-7.5 -36t19.5 -36q72 -72 145 0q0 36 1.5 72t10.5 72t28.5 72.5 t55.5 72.5q18 0 27.5 -8.5t14 -22t5.5 -31t1 -35.5z" />
<glyph unicode="&#xbd;" horiz-adv-x="728" d="M108 739q0 -53 0.5 -98t5 -89t14 -89.5t26.5 -97.5q35 35 63.5 76.5t59.5 81t68 72.5t90 50q-140 -140 -216.5 -280.5t-110.5 -280.5v-47l-47 -47l-47 47q0 35 16.5 70t37.5 68.5t40 66t24 62.5t-9.5 57t-61.5 50q0 53 -6 97.5t-6 84t12 75.5t47 71zM576 365 q-18 -35 -43 -70.5t-51 -70.5t-51 -70t-43 -70q53 0 97.5 22t84 48t75.5 48t71 22q-35 -35 -79 -76t-96.5 -76t-114 -58.5t-131.5 -23.5q18 53 42.5 97.5t51 84t51 75.5t42.5 71h-187q-18 18 -19.5 34t7.5 24.5t25 7t34 -18.5q35 0 69 6.5t65 11t56.5 2t43.5 -19.5z" />
<glyph unicode="&#xbe;" horiz-adv-x="762" d="M359 671q0 -17 -1.5 -39t-9.5 -42t-25 -33.5t-49 -13.5q15 -17 36.5 -33.5t37.5 -33t21.5 -32t-10.5 -30.5q33 0 65 21t60.5 49t52 57t40.5 45q-11 -43 -35.5 -83t-56 -79t-67.5 -77t-71 -77t-65.5 -79t-51.5 -83h-44q0 49 20.5 83.5t49 63t57.5 55t46 59.5 q-64 -33 -129 -66t-128 -63q0 32 10 51.5t26.5 31.5t38 19t45 16t47.5 21.5t45 34.5q-15 31 -37 49t-42 30t-34.5 22.5t-14.5 27.5q16 0 32.5 7.5t33 19t32 26.5t30.5 30q-48 17 -88 12t-72 -20.5t-56 -37t-41 -37.5l-44 43q16 32 40 50t52 30t60 22t65 27q16 0 32 -0.5 t32 -5t32 -13.5t33 -25zM620 240q15 -17 31 -19.5t32 -2.5t32.5 -3t33.5 -19l-89 -44q-15 -17 -10.5 -39.5t12.5 -47t11.5 -47.5t-13.5 -39q-31 16 -48 33t-24.5 33t-9 32t-1.5 31q-17 0 -40 0.5t-47 5t-47 13t-40 25.5q-11 11 -12 25t4 29.5t14 31.5t17.5 31.5t15 30 t6.5 25.5q15 0 23 -0.5t12 -5t4.5 -13.5t0.5 -26q-11 -13 -15 -26q-4 -12 -2 -26.5t17 -31.5h89q0 31 1.5 63.5t9 65t24.5 65t48 64.5q0 -15 -6.5 -44.5t-14 -62.5t-13.5 -62.5t-6 -44.5z" />
<glyph unicode="&#xbf;" horiz-adv-x="561" d="M155 777q21 10 35.5 9.5t24.5 -7t16.5 -17t11.5 -20.5q4 -8 8 -15t10 -13l4 -3v-5q0 -18 -5.5 -31t-14.5 -22t-19.5 -15.5t-20.5 -11.5q-11 -5 -19.5 -9.5t-15.5 -11.5l-4 -4h-5q-12 0 -28 0.5t-30 3.5q-26 5 -34.5 15.5t-9.5 21.5q-6 13 -6 28q0 20 15 38 q9 14 23.5 23.5t28.5 18.5q10 7 18.5 13t14.5 11l1 1zM176 703q-7 -2 -20 -15h24q-1 8 -2.5 11t-1.5 4zM93 501q31 33 56 25q21 -8 27.5 -38.5t10.5 -68.5q2 -16 4 -34t6 -28q66 15 136 -20q33 -16 68 -43t74 -66q50 -50 41 -112q-4 -27 -15 -54t-25 -53q-8 -17 -16 -32.5 t-14 -31.5l-1 -6l-6 -3q-17 -5 -33.5 -11.5t-33.5 -14.5q-26 -11 -52.5 -21.5t-53.5 -17t-54 -6.5t-54 9l-9 4v9q0 8 -3.5 12.5t-9.5 9.5q-5 7 -11.5 15.5t-6.5 24.5v5l3 4q17 14 36 11t38 -9q18 -7 30 -8.5t18 6.5l7 6l7 -4q35 -18 80 9q21 13 43 33.5t43 40.5v112 q-23 32 -54.5 58t-69.5 42q-40 17 -82.5 20.5t-83.5 -6.5l-7 -2l-5 5q-14 15 -16 38.5t-2 54.5q0 28 -1.5 59.5t-12.5 64.5l-1 8z" />
<glyph unicode="&#xc0;" horiz-adv-x="565" d="M89 973q22 3 36.5 -2.5t23 -15t13 -22.5t8.5 -25q4 -17 10 -32t18 -26h1v-1q20 -29 44 -43.5t49 -19.5t47.5 -4t39.5 3l3 1l3 -3q8 -8 17.5 -18.5t5.5 -22.5q-5 -13 -23.5 -17.5t-43.5 -6.5q-27 -3 -50 3.5t-43.5 19t-38 29t-32.5 31.5q-8 9 -16.5 16t-16.5 13l-3 4v4 q-2 15 -10.5 30t-18.5 31q-11 15 -20 30.5t-11 34.5l-1 8zM220 706l5 -2q56 -18 72 -68q8 -21 7.5 -43t-1.5 -42q-2 -23 -1 -42t12 -30l1 -1v-2q8 -17 13 -39.5t10 -48.5q3 -21 7 -42t11 -39.5t17 -33t25 -23.5q43 -24 128 8l12 6v-13q0 -22 -20 -33t-44 -21q-17 -7 -36 -15 t-33 -21q2 -11 11 -24t20 -27q17 -21 30.5 -42t13.5 -42q0 -2 -0.5 -5t-0.5 -5q-6 -23 -34 -38l-2 -1h-2q-17 0 -25 12t-10 17q-7 12 -11.5 27t-9.5 31q-8 26 -16.5 51.5t-22.5 39.5h-165q-11 -23 -19 -49t-16 -54q-7 -26 -15.5 -53t-19.5 -53.5t-26.5 -52.5t-36.5 -48 l-15 -14v67l90 332q17 62 33 122t29 107t21 76l8 29q0 9 -4 19t-7 20q-4 11 -7.5 23.5t-3.5 25.5q0 12 5 24.5t19 26.5zM211 257q0 -23 14 -39q11 1 18 5.5t14 12.5q8 7 17 13.5t23 8.5q-2 6 -6.5 25t-10.5 42t-11 45.5t-8 35.5q-20 -42 -35 -80.5t-15 -68.5z" />
<glyph unicode="&#xc1;" horiz-adv-x="499" d="M526 1012q-17 -34 -49 -67t-70.5 -63t-79.5 -55t-76 -43q-34 0 -38.5 8t4 21t21.5 29.5t13 33.5l275 182v-46zM299 510q34 -68 67 -129.5t58.5 -121.5t41 -121.5t15.5 -129.5h-47q0 17 -7 41.5t-15 50.5t-15 50t-7 40q-23 -11 -52 -9t-59.5 7t-59.5 9t-52 -2.5t-37 -28 t-14 -67.5q0 -17 -0.5 -48t-5 -65t-14 -65.5t-26.5 -48.5l-46 46q0 68 16.5 133t40.5 128.5t51 126t47 126t29 128.5t-2 133q35 11 55.5 8.5t30.5 -15.5t12.5 -33.5t1.5 -44.5t-4 -49.5t-3 -48.5zM251 463l-45 -181h139q0 18 -8 42t-21 49.5t-30 49.5t-35 40z" />
<glyph unicode="&#xc2;" horiz-adv-x="592" d="M211 832q-17 0 -40.5 14.5t-48 35t-47.5 42.5t-39 38q22 22 40 23.5t34 -9t29.5 -30.5t25.5 -42t23.5 -41.5t22.5 -30.5zM603 962q-133 -131 -133 -259h45q0 31 14.5 63.5t35 65t42.5 65t38 65.5q-16 17 -24.5 19.5t-12.5 -2.5t-5 -17zM341 703q33 -50 51 -92.5t30 -83.5 t22 -83t26 -91l88 -42q-33 -22 -42.5 -47t-5.5 -51.5t16 -54t23 -54t15.5 -51.5t-6.5 -47q-33 16 -51 46t-26 66.5t-9.5 75.5t-1.5 72l-217 -43q-33 -33 -51 -65.5t-30.5 -65.5t-22.5 -65.5t-26 -65.5h-87l130 262q-12 1 -22 5q-8 4 -14.5 12.5t-6.5 25.5q49 17 75.5 48.5 t38.5 72t14 87.5t2 96q0 17 7.5 40t20 43.5t28.5 35t32 14.5zM341 528l-88 -217h175q-17 33 -32.5 58.5t-27.5 49.5t-19.5 50t-7.5 59z" />
<glyph unicode="&#xc3;" horiz-adv-x="492" d="M479 789q-21 -21 -42 -14.5t-42 25.5t-42 42t-42 35t-42 4.5t-42 -49.5q-15 -31 -37.5 -59.5t-50 -44.5t-58.5 -13.5t-62 34.5q-16 0 -25 14.5t-13 37.5t-4.5 53t-0.5 62h43q10 -11 14.5 -27t7 -33.5t4.5 -34t8 -27t17.5 -13t32.5 7.5q31 31 62.5 61.5t63 54t63 38 t62.5 14.5q15 -32 31 -56t31.5 -43.5t31.5 -36t31 -32.5zM311 705q16 -63 38 -125.5t41.5 -125.5t33.5 -125.5t14 -125.5q0 -32 12 -57t19.5 -48.5t3.5 -49t-35 -56.5q-16 31 -25 62.5t-13 63t-4.5 63t-0.5 62.5q-32 0 -62.5 -0.5t-58 -4.5t-50 -12t-37.5 -23 q-16 -32 -32.5 -68.5t-36 -68.5t-44 -53t-55.5 -21q0 31 12.5 62.5t24 63t16 63t-11.5 62.5q31 63 62 125.5t58.5 122t50.5 113.5t40 101h40zM311 497l-84 -210q33 0 64 5t63 35z" />
<glyph unicode="&#xc4;" horiz-adv-x="487" d="M179 840q-17 -18 -33 -19.5t-29 7.5t-21 25t-8 34q18 34 34 37.5t29 -9.5t20.5 -35t7.5 -40zM316 840l47 -47l43 47q0 18 -14 26.5t-31 8.5t-31 -8.5t-14 -26.5zM283 469q34 -35 53.5 -68.5t36.5 -63.5t37 -55t54 -42q-11 -23 -12.5 -45t1 -43.5t6 -41.5t2.5 -38t-10 -33 t-32 -27q-17 18 -20 42.5t-3 50t-3 50t-20 42.5l-228 -47q-17 -34 -27 -68.5t-18.5 -69t-18.5 -69t-26 -68.5l-47 47q34 85 54.5 185t42 203t51 203t80.5 187q34 -18 45.5 -43t12 -55.5t-5 -64.5t-5.5 -68zM236 469l-44 -229h134z" />
<glyph unicode="&#xc5;" horiz-adv-x="538" d="M296 703q33 -50 51 -92.5t30 -83.5t22 -83t26 -91l88 -42q-33 -22 -42.5 -47t-5.5 -51.5t16 -54t23 -54t15.5 -51.5t-6.5 -47q-33 16 -51 46t-26 66.5t-9.5 75.5t-1.5 72l-217 -43q-33 -33 -51 -65.5t-30.5 -65.5t-22.5 -65.5t-26 -65.5h-87l130 262q-12 1 -22 5 q-8 4 -14.5 12.5t-6.5 25.5q49 17 75.5 48.5t38.5 72t14 87.5t2 96q0 17 7.5 40t20 43.5t28.5 35t32 14.5zM296 528l-88 -217h175q-17 33 -32.5 58.5t-27.5 49.5t-19.5 50t-7.5 59zM393 804q10 -18 6.5 -32.5t-15 -26t-29 -21t-35.5 -19.5q-27 -9 -50 -5t-41.5 15.5 t-32.5 29t-24 36.5q-9 18 -2 32t21 25.5t30 21t26 19.5q109 0 146 -75zM271 830q-18 0 -34 -3.5t-16 -22.5q39 -73 75 -73q18 9 27.5 18.5t14 18.5t5.5 18t1 18q0 10 -8 15t-19 7.5t-24 3t-22 0.5z" />
<glyph unicode="&#xc6;" horiz-adv-x="882" d="M344 935q10 4 21 -4t16 -12l2 -3v-3q0 -32 4.5 -46.5t22.5 -14.5q41 0 82 7t81 15q31 6 62 11.5t62.5 8.5t63.5 2t64 -9l13 -4l-45 -47q-101 -9 -182 -16q-35 -3 -68 -6t-60 -5.5t-44.5 -4t-20.5 -1.5q1 -23 6 -41t11 -36q6 -19 11.5 -40t5.5 -47l2.5 -14.5t6 -36.5 t7.5 -47.5t8 -48t6.5 -38.5t2.5 -18q29 -12 66 -4t75 20q26 8 49.5 14.5t44.5 6.5h84l-8 -13q-18 -27 -41.5 -42.5t-50 -24.5t-55.5 -13t-58 -7q-26 -2 -53 -5.5t-52 -11.5q0 -27 -3 -58q-1 -17 -1.5 -34.5t-0.5 -34.5t1 -33t4 -32q13 -69 63 -104q51 1 121.5 21.5 t149.5 47.5l11 3v-52l-6 -2q-17 -6 -37 -14t-40 -18q-33 -15 -70.5 -30t-75.5 -23q-45 -9 -85 -5t-77 23l-10 5l17 17q7 7 13.5 13t8.5 8q-18 54 -32.5 108t-14.5 109q0 21 2.5 42t8.5 41q-13 2 -27.5 4.5t-29.5 5.5q-25 5 -51.5 9.5t-49.5 2.5q-49 -6 -64 -51l-105 -311 l-1 -2q-8 -7 -17.5 -14t-18.5 -2q-9 3 -10.5 11.5t-1.5 10.5v1v1q26 117 63 228t75 220q38 108 75 219t63 227q0 18 11 21zM374 718q-4 -8 -14 -30.5t-23 -51.5t-27.5 -62t-27.5 -61t-22 -48.5t-11 -25.5h153q0 69 -4 139.5t-24 139.5z" />
<glyph unicode="&#xc7;" horiz-adv-x="783" d="M289 576q76 33 155 -20l10 -6l-56 -56l-6 12q-10 21 -26 25q-18 5 -43.5 -8t-53.5 -30q-23 -14 -49 -29q-66 -65 -91 -130q-12 -33 -12 -63q0 -3 0.5 -6.5t0.5 -6.5q3 -39 28 -78q39 -40 91 -67.5t114 -42.5q58 -14 118 -14t114 14q28 27 61 55t89 57l11 -16 q-11 -11 -22.5 -25t-24.5 -29q-23 -28 -49 -57t-57 -50q-66 -46 -143 -32v-51q6 1 12 3t13 4q10 3 19.5 6t20.5 3q25 0 44 -19q29 -15 45 -36.5t23.5 -47.5t8.5 -54.5t1 -57.5v-4l-4 -4q-20 -20 -41 -37t-44 -17q-21 0 -40 18q-10 10 -20 17t-18 12q-15 9 -27 20t-12 33v6 l5 3q15 7 28.5 7t25 -4.5t21.5 -12t18 -14.5q9 -8 17.5 -14t13.5 -4q2 2 7.5 8.5t12.5 26.5q0 26 -4 50.5t-27 50.5q-23 -2 -36 -11t-23 -19q-6 -6 -11.5 -10.5t-12.5 -6.5q-10 -3 -17.5 1t-12.5 8q-15 2 -26 17q-8 12 -12 33q-4 19 -4.5 39t-0.5 34v10h10q16 0 24 12 q2 4 2 7q-54 14 -107 29t-101 35q-113 50 -163 126l-2 2v3q0 36 8.5 70.5t21.5 67.5t29 63.5t31 58.5q7 12 13 22.5t11 21.5v1l1 1q26 27 56 54.5t64 42.5z" />
<glyph unicode="&#xc8;" horiz-adv-x="613" d="M138 1070q-19 -18 -13 -36t20 -32q17 -17 43 -31q0 -24 17 -34t39.5 -14t44.5 -6t32.5 -10t3 -26t-43.5 -54q-35 0 -70 16.5t-67 44t-59 62.5t-46 72l50 48q0 -18 7.5 -20.5t16.5 2.5q11 5 25 18zM427 682v-48q-23 0 -50 3t-55 5.5t-55.5 3t-52 -5t-44.5 -19t-32 -38.5 v-192q24 0 52 6.5t57.5 14.5t60 14.5t60 6.5t57.5 -9t52 -33q-36 -19 -80 -30t-89.5 -20.5t-89.5 -19.5t-80 -28q0 -36 1 -72t5.5 -68t14.5 -58.5t29 -43.5q48 0 88.5 14t77 34t69.5 42t65 38t65 22.5t70 -5.5q-37 -12 -77 -41t-83.5 -61.5t-89 -61.5t-93 -41t-95.5 -0.5 t-96 60.5v532q-27 1 -43 6q-14 5 -19.5 15t12.5 30q37 35 89 53.5t107 23t106 -3.5t86 -25z" />
<glyph unicode="&#xc9;" horiz-adv-x="557" d="M567 1086q-39 -38 -78 -69t-78 -61t-78 -61t-78 -70h-52q39 39 78.5 77t83 72.5t93.5 63.5t109 48zM464 671q-27 -27 -64 -34t-78 -7t-81 1t-72 -7.5t-52 -33.5t-20 -77v-158l367 56q0 -21 -9.5 -40.5t-24.5 -34t-34 -23.5t-38 -9h-261q0 -39 1 -68.5t6 -53.5t16 -44.5 t32 -39.5q38 -27 77 -33t76.5 -0.5t73.5 19.5t69 29t63 26t56 11q0 -40 -18 -62.5t-47 -37.5t-66.5 -27t-77.5 -31q-26 13 -59 11t-68 -7.5t-68.5 -10t-59.5 3t-42 32.5t-16 77q-13 51 -14.5 103t1.5 102.5t7 99t2.5 95t-11.5 90t-36 83.5q59 19 125 21.5t129.5 -2 t119.5 -12t96 -7.5z" />
<glyph unicode="&#xca;" horiz-adv-x="517" d="M141 1010q-20 -39 -40 -77t-44.5 -72.5t-54.5 -63t-69 -48.5q0 20 16 48t35.5 57t36 56.5t16.5 47.5l52 105zM452 854q-20 0 -47.5 1.5t-56.5 11.5t-57 31t-48 60l53 52q0 -26 22.5 -40.5t52.5 -23t61.5 -14.5t48.5 -14.5t13.5 -23t-42.5 -40.5zM452 649 q-13 -13 -34 -18.5t-45.5 -6.5t-51 -1t-51 -1t-45 -6.5t-32.5 -18.5q-39 0 -62 -12t-34.5 -32.5t-14 -47t-1 -55.5t4.5 -58.5t3 -55.5q26 -13 55.5 -15t60 1t59.5 7.5t55 3t47 -12.5t34 -37q-39 -20 -78 -30.5t-77.5 -15t-77.5 -5.5t-78 -1v-156q38 -13 76.5 -14.5t76 2.5 t73.5 11.5t69.5 12t63.5 3t56 -14.5q-26 -25 -60 -39t-73 -21.5t-81 -10t-85.5 -5.5t-86 -8t-81.5 -17v48q10 39 9 89t-6 105t-10.5 112t-5.5 110.5t8.5 100.5t33 82.5t67 56t110.5 20.5q20 0 48 -1t57 -5.5t56.5 -14.5t47.5 -28z" />
<glyph unicode="&#xcb;" horiz-adv-x="598" d="M361 1025q21 -22 23.5 -41.5t-2.5 -35.5q-6 -18 -21 -35q-21 0 -33.5 8.5t-23 19t-23 19t-33.5 8.5q21 21 33.5 41.5t23 36.5t23 25.5t33.5 9.5v-56zM137 913q0 -21 -9 -23.5t-20 2.5q-12 6 -28 21q0 21 1 41t6 35.5t17 25.5t33 10t31 -17.5t10 -38.5t-10 -38.5 t-31 -17.5zM529 744q-63 -21 -125.5 -42.5t-120 -48t-109.5 -59t-94 -74.5v-224q63 20 125.5 39t120.5 29.5t109.5 8.5t93.5 -23q-42 -20 -93.5 -40t-109.5 -36t-120.5 -25.5t-125.5 -9.5v-113q63 0 126.5 -9t126.5 -19.5t126 -19t126 -8.5q-14 -42 -37 -62.5t-52.5 -26.5 t-64.5 -1.5t-74 12.5t-81 15.5t-84 7.5h-168q0 84 1 167t6 162t16.5 152t32.5 137q28 0 60.5 12t68.5 29t74.5 35.5t79 30.5t82.5 15t84 -11z" />
<glyph unicode="&#xcc;" horiz-adv-x="628" d="M369 1066q22 -23 24.5 -44t-2.5 -38q-6 -19 -22 -37q-23 0 -36 9t-24 20.5t-24 20.5t-35 9q22 22 35 43.5t24 37.5t24 26t36 10v-57zM137 947q0 -20 -9.5 -22.5t-20.5 2.5q-13 6 -29 20q0 22 1 43.5t6.5 38t17.5 27t34 10.5q21 0 31 -18.5t10 -41t-10 -41t-31 -18.5z M541 775q-65 -22 -129 -44.5t-124 -50t-113.5 -60.5t-96.5 -76v-231q64 21 128.5 40t124.5 29.5t113.5 9t96.5 -23.5q-43 -21 -96.5 -41t-113.5 -36.5t-124.5 -26.5t-128.5 -10v-117q64 0 129.5 -9.5t131 -20.5t130.5 -20.5t130 -9.5q-15 -43 -38 -63.5t-53.5 -26.5 t-67 -1.5t-77 13t-84 16.5t-87.5 8h-172q0 87 1 172.5t6.5 166.5t17 156t33.5 140q28 0 61.5 13t71 30.5t77.5 37t82 32.5t85 16t86 -12z" />
<glyph unicode="&#xcd;" horiz-adv-x="776" d="M456 835q-42 6 -73 28t-59.5 47.5t-60.5 48t-75 28.5q3 21 13.5 31.5t21.5 14.5q13 4 30 3q43 -6 74.5 -21.5t55 -40.5t41 -59.5t32.5 -79.5zM707 567l-228 32q-30 -60 -41 -123t-9.5 -128.5t12 -132t22.5 -132.5q14 -2 37.5 3t51.5 10.5t58.5 9t57 0t47.5 -18t31 -44.5 q-88 -9 -175.5 -17t-174.5 -12.5t-173.5 -2.5t-171.5 14l8 60q31 9 72 10t83 3t80.5 10t64 31t34 67t-9.5 118l-23 235q-26 18 -54 23.5t-57 5t-59 -4t-59 -4.5t-57 4.5t-54 23.5q32 24 66.5 35t70.5 15.5t72.5 5.5t72.5 5.5t70.5 15.5t66.5 35q10 -30 35.5 -41.5t57 -14 t65.5 -2.5t60.5 -6.5t41 -26t8.5 -61.5z" />
<glyph unicode="&#xce;" horiz-adv-x="708" d="M630 1081q-45 -32 -82 -65t-72 -62t-70.5 -52.5t-77.5 -35.5q-20 3 -13 11t23.5 20t34.5 27.5t21 35.5q16 11 33 29.5t35.5 38t38 36.5t40.5 27t43.5 9t45.5 -19zM613 659q-26 -37 -56 -45.5t-59 -3.5t-55.5 16.5t-46.5 14.5q-10 -59 -19.5 -125.5t-11 -136.5t8 -140 t38.5 -135q39 -7 78.5 -5.5t75.5 5t66 6.5t50 0q-18 -23 -45 -33.5t-57.5 -15.5t-62.5 -8.5t-58.5 -13.5t-46.5 -30.5t-26 -59.5q-21 30 -45.5 40.5t-51 12t-53.5 -2t-53.5 -2.5t-51.5 12t-47 41q23 16 52 22.5t59 6.5t58 -4t48 -7q9 58 12 126t4.5 138t4 138t12.5 126 q-39 6 -79 4.5t-81 -4.5t-81 -4.5t-79 4.5q69 50 143 78t150.5 35t153.5 -6t152 -44z" />
<glyph unicode="&#xcf;" horiz-adv-x="540" d="M344 833q-18 2 -35.5 3t-31.5 3q-16 2 -30 3q-17 20 -18.5 29.5t3.5 13.5t19 4q20 17 31 17.5t19 -9t17 -27.5t26 -37zM98 804q-15 -11 -26 -15q-10 -4 -17.5 -1t-5.5 21l-43 54q1 18 10.5 26t23 6.5t30 -12t33.5 -29.5zM428 678q-2 -17 -19.5 -25t-45 -10t-62.5 0t-71 5 l3 -537q23 -14 50.5 -18t55.5 -3.5t56 2t52 -2t43 -15t29 -36.5l-54 -45q-108 10 -217.5 13.5t-220.5 -22.5l4 47q1 18 18 27t40 11.5t48 1t43 -2.5l-2 535q-11 13 -26.5 16.5t-32 2.5t-32 -3.5t-27.5 0t-18.5 12.5t-4.5 34q56 13 110.5 18t104.5 5t95 -3.5t81 -6.5z" />
<glyph unicode="&#xd0;" horiz-adv-x="659" d="M554 609q33 -50 56.5 -100t31.5 -100t-1.5 -100.5t-43.5 -100.5q0 -67 -32.5 -128t-100.5 -95q-22 0 -44 9.5t-42 20.5t-37 20.5t-29.5 9.5t-19.5 -13.5t-7 -46.5q-33 17 -51 55.5t-26 84t-9.5 92.5t-1.5 80q-11 11 -29 12.5t-37.5 -1t-39.5 -6t-36.5 -2t-26.5 10 t-10 31.5q16 17 40 19.5t49 2.5t49 3t41 20q-11 22 -12.5 44.5t2 44.5t9.5 44.5t10 44.5t3 44.5t-12 44.5v45q50 -17 99.5 -20.5t95.5 -7.5t87 -16t75 -46zM240 609v-222q34 0 66 12.5t57 21t40.5 4t15.5 -37.5q-17 -17 -40.5 -27t-48.5 -18t-49 -18t-41 -27l45 -223 q17 0 47.5 -5.5t64.5 -5.5t64.5 11.5t47.5 44.5q33 33 49.5 87.5t16.5 113t-16.5 113t-49.5 87.5q-17 33 -48.5 51.5t-69 26.5t-77.5 9.5t-74 1.5z" />
<glyph unicode="&#xd1;" horiz-adv-x="722" d="M455 854q28 0 51.5 16t45 37.5t42 43.5t42 34t45 9.5t50.5 -30.5q-21 -21 -42.5 -50t-47 -60.5t-57.5 -60.5t-74 -50q-28 14 -51.5 35.5t-46.5 44.5t-46.5 44.5t-51 35t-61 17t-74.5 -10.5q-28 0 -43.5 -16t-24.5 -37.5t-15 -43.5t-15 -34t-24.5 -10t-43.5 30 q0 42 19 81.5t50 71t71 50.5t81 19q21 0 50 -10.5t60.5 -31.5t60.5 -52t50 -72zM124 697q0 -41 17 -78t44.5 -71t63 -65t72 -60t72 -57t62.5 -55q20 -21 40 -41l36 -36q18 -18 35 -34v442l55 55l55 -55h-55l55 -608h-55q-62 42 -124.5 100.5t-124.5 121t-124 121t-124 99.5 q0 -62 1 -124t6 -124t16 -124.5t32 -124.5h-55q-28 55 -46.5 118.5t-27.5 129.5t-9 132t9 127.5t27.5 115.5t46.5 95z" />
<glyph unicode="&#xd2;" horiz-adv-x="531" d="M430 818q-12 -24 -27 -39.5t-28.5 -20t-25 2t-17.5 24.5q-17 8 -40 14.5t-47 13.5t-45.5 17t-34 25.5t-14 38.5t15.5 56zM493 292q-20 -39 -48 -85.5t-62.5 -90.5t-72.5 -81t-77 -56q-20 0 -48 1.5t-57 11.5t-56.5 31t-46.5 60q0 58 9 117t23.5 117.5t33 117t38.5 117.5 q19 39 47.5 68t62.5 48.5t72.5 29.5t77.5 10q26 -26 40 -56t21.5 -63.5t10 -69.5t5.5 -73.5t8.5 -76t18.5 -77.5zM285 604q-26 0 -37 -7.5t-13.5 -19.5t-2 -25t-2 -25t-13.5 -19.5t-37 -7.5q-19 -59 -36 -117.5t-22 -117t7 -117.5t51 -117q20 0 39.5 17t39 41.5t39 51 t39.5 46.5q39 39 52 87t13 102t-6.5 111.5t-6.5 116.5h-104z" />
<glyph unicode="&#xd3;" horiz-adv-x="585" d="M512 930q-49 -32 -103.5 -48t-105 -28.5t-92 -27t-63.5 -43.5l-38 29q22 29 62.5 53.5t90 43.5t104 32.5t105.5 19.5zM563 464q0 -73 -17.5 -144t-49.5 -134.5t-77 -116.5t-100 -90q-36 0 -63.5 8.5t-50.5 22t-42 31t-37 36.5q-18 36 -42.5 73t-42.5 78t-24.5 87 t11.5 101q19 37 46.5 80.5t63.5 84.5t81.5 75t99.5 52q37 -18 79.5 -38t79 -47.5t61 -65.5t24.5 -93zM271 610v-48q0 -37 -10.5 -51.5t-27 -18.5t-35 -3t-35 -3t-27 -19t-10.5 -51q-18 -55 -19.5 -101t7.5 -87t25.5 -78t34.5 -73q36 -19 72 -13t68 24t58.5 42.5t44.5 42.5 q18 36 35.5 72.5t31.5 73t22.5 73t8.5 72.5q-38 74 -104 110t-140 36z" />
<glyph unicode="&#xd4;" horiz-adv-x="683" d="M174 804q19 0 21.5 -8t-2.5 -18q-5 -11 -19 -25q0 -20 -7.5 -30t-16.5 -15q-11 -5 -24 -6q-19 38 -13 76.5t24.5 76.5t43.5 75.5t44 74.5q25 -12 31.5 -28t0.5 -34t-19.5 -37.5t-27.5 -37.5t-25 -34.5t-11 -29.5zM529 957q-18 18 -36 19.5t-32 -8t-23 -26.5t-9 -36 q37 0 63.5 -15t46 -36t34.5 -44.5t30.5 -40.5t33.5 -23.5t44 6.5q-19 38 -38 67.5t-38 53.5t-38 44t-38 39zM631 572q19 -39 21 -85t-2.5 -93t-11.5 -93t-7 -84q-56 -57 -114 -103t-119.5 -74.5t-129 -36.5t-142.5 10q-38 19 -59 56t-30.5 84.5t-11 102.5t-1.5 111 q19 77 56 135t89 101t117.5 72t142.5 47q37 0 66 -9t53 -28t43.5 -47t39.5 -66zM276 572q-38 0 -66.5 -17.5t-47 -46.5t-27.5 -66t-9 -75q-19 -37 -28 -82t-4.5 -87.5t24 -78t56.5 -54.5q38 0 76.5 8.5t77 23t77 32.5t76.5 37q37 38 57 84t29 93t10.5 93t1.5 84 q-13 38 -36.5 64t-53 40t-61.5 17t-61.5 -4t-53.5 -23.5t-37 -41.5z" />
<glyph unicode="&#xd5;" horiz-adv-x="708" d="M683 389q0 -54 -8.5 -98.5t-22.5 -80t-32 -62t-37 -44.5q-38 -36 -75 -62.5t-74.5 -40t-74.5 -12.5t-74 19q-57 0 -96 17t-67 48.5t-48.5 75.5t-39.5 97q0 54 2.5 106.5t16.5 102t44.5 93t87.5 79.5q37 18 73.5 33.5t69 20t60 -6.5t46.5 -47q37 -18 81 -44t81 -57t62 -66 t25 -71zM285 627q-13 -24 -29 -37.5t-33 -22.5t-33 -17t-28.5 -21t-20 -34.5t-7.5 -57.5q-18 -36 -19.5 -78.5t7.5 -82.5t26.5 -73.5t36.5 -51.5q18 -36 45.5 -55.5t60 -28.5t69 -10.5t74.5 -1.5q37 18 65 52.5t47 79t28 96.5t9 106t-25.5 91t-67.5 64t-95.5 46t-109.5 37z M648 936q0 19 8.5 20.5t22.5 -8t32 -26.5t37 -36q0 -39 -17 -68.5t-45.5 -53t-64.5 -43t-73 -38.5q-38 -10 -67 0t-53 30.5t-43.5 48t-38.5 54t-39 47t-43.5 27.5t-53 -4.5t-67.5 -49.5q-20 -20 -31 -46.5t-20.5 -50t-20.5 -40t-30 -16.5q-19 37 -19.5 75t13.5 76.5t42 76 t66 75.5q37 0 67.5 -1t59 -5.5t58.5 -14.5t68 -29q19 -19 30 -37.5t20 -37.5t20 -38.5t30 -39.5q77 0 114.5 39t37.5 114z" />
<glyph unicode="&#xd6;" horiz-adv-x="688" d="M252 738q0 -18 -8 -20.5t-17 2.5q-11 5 -24 18q-19 0 -29.5 8t-15 21.5t-5.5 31t-1 35.5t15.5 28t34.5 19t34.5 19.5t15.5 28.5q37 -18 42 -43.5t-4.5 -52.5t-23.5 -52t-14 -43zM403 929q0 -18 -8 -28.5t-17.5 -19.5t-17.5 -19t-8 -28q19 -19 37 -28.5t32 -14.5 q17 -5 31 -6q0 18 6 43t6 47.5t-12 38t-49 15.5zM671 389q0 -54 -8.5 -98.5t-22.5 -80t-32 -62t-37 -44.5q-38 -36 -75 -62.5t-74.5 -40t-74.5 -12.5t-74 19q-57 0 -96 17t-67 48.5t-48.5 75.5t-39.5 97q0 54 2.5 106.5t16.5 102t44.5 93t87.5 79.5q37 18 73.5 33.5t69 20 t60 -6.5t46.5 -47q37 -18 81 -44t81 -57t62 -66t25 -71zM273 627q-13 -24 -29 -37.5t-33 -22.5t-33 -17t-28.5 -21t-20 -34.5t-7.5 -57.5q-18 -36 -19.5 -78.5t7.5 -82.5t26.5 -73.5t36.5 -51.5q18 -36 45.5 -55.5t60 -28.5t69 -10.5t74.5 -1.5q37 18 65 52.5t47 79t28 96.5 t9 106t-25.5 91t-67.5 64t-95.5 46t-109.5 37z" />
<glyph unicode="&#xd7;" horiz-adv-x="547" d="M264 422q26 13 45 33.5t35.5 42.5t32 42t36 33.5t48 16.5t66.5 -10q-26 -27 -55.5 -53t-55.5 -52.5t-46.5 -53t-29 -52.5t-3 -52t32.5 -52q0 -14 7.5 -23t17.5 -16.5t20.5 -14t16 -14t4.5 -16.5t-14 -22q-27 -13 -45 -10t-31.5 14.5t-23 29t-18 33.5t-18 27.5t-22.5 11.5 q-20 -20 -39.5 -39t-39 -34t-39.5 -24t-39 -9q-14 15 -20 26q-5 10 -2.5 18t22.5 8q0 20 9 39t23.5 34t33.5 24t39 9q-13 26 -37.5 52.5t-50.5 52.5t-50 52.5t-37.5 52.5t-11 52.5t28.5 52.5q20 -39 48 -69.5t57.5 -55.5t57 -45.5t47.5 -39.5z" />
<glyph unicode="&#xd8;" horiz-adv-x="717" d="M643 844q0 -18 -10.5 -38t-26.5 -40.5t-35.5 -40.5t-38.5 -39q19 -23 46 -45t52 -47.5t42.5 -56t17.5 -71.5q0 -65 -27.5 -125.5t-73 -112t-104.5 -91.5t-123 -63q-28 -16 -55.5 -22.5t-53.5 -11.5t-50 -11t-44.5 -20t-37.5 -39t-29 -68v-48h-62q55 55 69 102t6.5 89.5 t-26.5 83.5t-30.5 83.5t-5.5 89.5t49 102q0 41 9 74t28.5 59t49.5 47.5t71 39.5q64 0 118 28.5t101 71t89.5 91.5t84.5 90v-61zM362 624q-19 0 -30 -18t-21.5 -43t-24 -52t-36.5 -45q-19 0 -28.5 17t-14.5 37q-5 24 -6 55q-23 -41 -42 -92.5t-29.5 -109t-9 -118t19.5 -120.5 zM470 575l-269 -440q42 -23 73 -25t56.5 8.5t47 29t43.5 36.5q42 22 81.5 54.5t71 73.5t50.5 91.5t19 110.5q-23 23 -44 42t-42 29.5t-42.5 9t-44.5 -19.5z" />
<glyph unicode="&#xd9;" horiz-adv-x="688" d="M413 773l-41 -14q-32 -11 -64.5 3t-63.5 39.5t-60.5 58t-55.5 59.5l-14 42q37 -5 72.5 -27t71.5 -50.5t74 -58.5t81 -52zM541 633q0 -46 -5.5 -101t-9.5 -112.5t-2 -115t17 -108t46.5 -90t88.5 -62.5q-17 -18 -41 -13t-49.5 17.5t-49.5 26t-42 13.5q-17 -17 -27 -26.5 t-23 -18t-32 -18.5t-53 -28q-34 -17 -74.5 -10t-79 28.5t-70.5 53.5t-48 66q0 68 -13.5 135.5t-26.5 135t-18.5 135.5t11.5 136q18 0 28 -7t18.5 -15t18 -15t26.5 -7q-17 -68 -23 -142.5t7 -147t49 -138.5t104 -117q34 -17 67 -17.5t58.5 12.5t41 37.5t15.5 58.5 q-18 51 -21 109t-3 117.5t-2.5 117.5t-20.5 110l47 90z" />
<glyph unicode="&#xda;" horiz-adv-x="603" d="M397 987q-11 -59 -46.5 -93.5t-81.5 -58.5t-94 -45t-84 -52q-8 37 5 67t37.5 55t56 45.5t60 39.5t49 37t24.5 38q15 -3 29 -5.5t24.5 -6.5t16 -9t4.5 -12zM446 491q0 -52 10.5 -109t29.5 -110.5t44.5 -99.5t55.5 -76l-19 -60q-23 0 -44.5 18t-38.5 41q-20 26 -38 59 q0 -44 -32 -86t-106 -71q-29 -15 -61.5 -9t-64 28t-60.5 58t-51 80q-8 75 -20.5 143t-20 135t-5 135t25.5 142q7 -82 14 -160t23.5 -154t49 -150.5t92.5 -148.5q34 -15 57.5 -10t39 23.5t23.5 47.5t12 62.5t4.5 68.5t0.5 65q10 34 9.5 64.5t-5.5 58t-11.5 54.5t-10 55 t-0.5 58.5t18 65.5q20 0 28 -14.5t10 -37t1.5 -49.5t1.5 -51t10 -42.5t28 -23.5z" />
<glyph unicode="&#xdb;" horiz-adv-x="773" d="M634 873v-48q-36 35 -77 71t-72.5 76t-45.5 85.5t4 99.5q18 -35 43 -70.5t52 -71.5t52.5 -71.5t43.5 -70.5zM204 1014q-18 -36 -36.5 -77.5t-41 -77t-50 -59t-63.5 -23.5q0 72 36 136.5t107 100.5h48zM634 422q0 -54 16.5 -99.5t43 -85.5t61 -76.5t70.5 -72.5 q0 -12 3.5 -13.5t8.5 3t10.5 11t10.5 10.5t8.5 2.5t3.5 -13.5q18 -18 20.5 -35t-2.5 -31q-5 -16 -18 -30q-48 0 -81 14.5t-57 37t-41 50t-32.5 54t-32.5 49t-40 34.5q-18 -35 -45 -77t-62.5 -78t-80.5 -60t-99 -24q-36 0 -70 16.5t-61 43.5t-43.5 61t-16.5 70 q-35 109 -35 245t35 280h48q0 -48 -6 -102.5t-11.5 -111.5t-6 -114t10 -110t36 -99.5t73.5 -82.5q24 -12 47.5 -9.5t46 14.5t43.5 30.5t39.5 38.5t34 38.5t27.5 30.5q24 48 30.5 95.5t3.5 95.5t-10 95.5t-9.5 95.5t3.5 95.5t30 95.5q35 -12 52.5 -35t24.5 -53.5t6 -67 t-2 -75t1 -77t14 -74.5z" />
<glyph unicode="&#xdc;" horiz-adv-x="719" d="M529 819q-19 0 -30 -8t-20.5 -17.5t-20 -17.5t-28.5 -8q-75 75 0 150q37 0 50 -8.5t17.5 -23t8.5 -32t23 -35.5zM280 819v-51q-19 0 -30 1t-20.5 5.5t-20 15t-28.5 29.5q0 18 15.5 34t34 21t34 -6.5t15.5 -48.5zM580 431q25 -38 32 -85.5t8 -97t2.5 -97t15.5 -85t46 -60 t94 -22.5q-19 -37 -37.5 -49.5t-37.5 -13t-37.5 5.5t-37.5 6q-18 19 -35.5 46.5t-32 60t-23 69t-8.5 73.5q-37 -56 -75 -100.5t-80 -68t-89.5 -21t-103.5 39.5q-56 56 -84.5 136.5t-28.5 169.5t28.5 178.5t84.5 163.5q0 -50 -6.5 -103t-13.5 -106.5t-11 -107t1.5 -103 t23 -95t54.5 -82.5q38 0 75 17t69.5 45t59.5 63.5t45 72.5q25 37 32.5 85t6 98t-5.5 98t-1.5 85.5t17.5 60.5t53 23q18 -19 20 -54.5t-2.5 -77.5t-11 -86.5t-6.5 -81.5z" />
<glyph unicode="&#xdd;" horiz-adv-x="450" d="M388 1001v-37q-41 -13 -81.5 -39t-77.5 -59.5t-70 -73t-60 -79.5q-11 11 -19 22q-7 10 -12.5 23t-5.5 27q41 27 76.5 64t73 71t80 57.5t96.5 23.5zM269 416q14 40 23 85t22.5 85.5t36 72t62.5 45.5q18 -18 19.5 -33.5t-6.5 -29.5t-22 -27.5t-28 -27.5t-24.5 -29.5 t-10.5 -33.5v-145q-13 -54 -21 -107.5t-14.5 -104t-14.5 -97t-22 -86.5q-14 0 -21 5t-10 12q-4 8 -4 18l35 325q-40 40 -84.5 81t-81.5 85.5t-61 92.5t-24 102q27 -27 54.5 -60.5t58 -70.5t64.5 -77t74 -80z" />
<glyph unicode="&#xde;" horiz-adv-x="446" d="M103 546q26 13 57.5 24.5t67 18t73.5 5.5t77 -14q13 -13 24.5 -31t18 -37.5t5.5 -37.5t-14 -31q-9 -60 -42 -95t-75 -57t-84.5 -37.5t-70.5 -37.5t-32.5 -56.5t29.5 -94.5q0 -13 -0.5 -30.5t-3.5 -33.5t-10 -27.5t-20 -11.5t-20 0.5t-10 3.5t-3.5 10t-0.5 20 q-14 13 -15 25.5t2 22.5q4 11 13 21q-26 64 -34.5 140t-8.5 156.5t4 162.5t4 159q0 13 6 30t15.5 30t22 17.5t25.5 -8.5q-13 -26 -9.5 -52t9.5 -51.5t9.5 -51.5t-9.5 -51zM103 477v-206q39 13 76.5 32t69.5 45t56.5 58t37.5 71q-26 26 -56.5 29t-63 -3.5t-63.5 -16t-57 -9.5 z" />
<glyph unicode="&#xdf;" horiz-adv-x="666" d="M468 706q10 -40 2 -70.5t-26 -56t-41.5 -47.5t-44.5 -44t-35.5 -46t-14.5 -54q20 -20 48.5 -26t60.5 -7t65.5 -2t62 -12t50.5 -36.5t32 -74.5q-10 -50 -35.5 -90.5t-60.5 -73.5t-78 -60t-88.5 -50t-90.5 -43.5t-84 -40.5q-15 0 -23 6.5t-12 18t-4.5 25.5t-0.5 29 q59 30 117.5 54.5t110.5 54.5t95.5 70t73.5 100l-40 38q-45 0 -88.5 0.5t-84.5 4.5t-77.5 12t-66.5 23q0 40 12 74t30.5 64.5t41.5 60.5t45 60.5t40.5 64.5t28.5 74q-30 0 -66 11t-73 18.5t-72.5 3.5t-65.5 -33v-874q-1 -11 -5 -20q-4 -8 -12 -14t-23 -6q-15 119 -17 244 t2 252t9.5 252t5.5 244q45 30 101 38.5t112 -3t105 -40.5t79 -73z" />
<glyph unicode="&#xe0;" horiz-adv-x="791" d="M569 764q-97 -33 -188.5 -33t-156.5 33l-86 86v88q21 -44 52.5 -67.5t68.5 -36t78 -16.5t82 -9t79.5 -14t70.5 -31zM611 333q16 -49 53.5 -96.5t82.5 -88t90.5 -72t77.5 -47.5q-17 -32 -33 -36t-32 4t-32.5 20t-32.5 12q-32 16 -57 39.5t-45.5 47.5t-38 47t-33.5 40 q-32 -32 -65 -64t-69 -60.5t-77 -52t-90 -39.5q-65 0 -129.5 26.5t-130.5 59.5q-32 32 -35.5 64.5t8.5 65.5t33 65.5t38 64.5q16 32 47 63t67.5 55t75 38.5t70.5 14.5q21 -11 55 -13t69.5 -3t69 -5.5t55 -19.5t26 -45.5t-17.5 -84.5zM224 377q-130 -133 -130 -260 q65 -33 130 -38.5t130 -5.5q32 16 56.5 40t44.5 52.5t36.5 60t33.5 63.5q11 43 -1 75t-38.5 52t-62.5 28.5t-73 4t-71 -22t-55 -49.5z" />
<glyph unicode="&#xe1;" horiz-adv-x="868" d="M667 987q0 -18 -16 -28.5t-39.5 -20t-49 -20.5t-44.5 -30q-18 -18 -37 -51.5t-42 -70t-51.5 -70.5t-65.5 -52l-50 48q37 37 74.5 88.5t79 102t88.5 93t102 61.5zM667 347q-19 -55 -4.5 -94t47 -71t75 -62.5t79.5 -67.5q18 19 28 21.5t19.5 -2.5t20.5 -12t30 -7 q0 -19 -8 -29t-18 -15q-11 -5 -25 -6q-146 0 -295 149q-55 -37 -110 -71.5t-110.5 -58t-111 -30.5t-110.5 11q-18 0 -36.5 8.5t-37 23t-36.5 32.5t-36 37q-13 49 -6.5 90.5t25.5 77t47 66t59.5 57.5t63 52t55.5 49q56 0 111 4.5t106 -4.5t96 -41.5t82 -106.5zM370 398 q-37 0 -79.5 -18t-79 -50t-61 -78t-24.5 -101q18 -18 37 -35.5t42 -32t51.5 -23t65.5 -8.5q25 13 52.5 26t53.5 28t48 33t35.5 41.5t16.5 52.5t-10 66q13 37 10.5 58.5t-15 32.5t-31.5 13.5t-39.5 1.5t-40 -4t-32.5 -3z" />
<glyph unicode="&#xe2;" horiz-adv-x="792" d="M488 672q-16 33 -45.5 52t-61.5 35t-62 35t-46 51q-48 -17 -82 -46.5t-58 -61.5t-41 -61.5t-32 -44.5q-17 15 -12 38.5t21 51.5t37 60t38 64l129 128q11 -43 40 -70t63.5 -46t68.5 -34t54 -34t20.5 -46.5t-31.5 -70.5zM529 330q-15 -32 -2 -70.5t41 -74.5t64.5 -66 t68.5 -45q16 -16 38.5 -13t42.5 7t34 -1t14 -36q-17 -17 -39.5 -25t-47 -8t-47.5 8t-39 25q-32 16 -57 38.5t-49 46.5t-49.5 47t-56.5 39q-33 -33 -66 -64.5t-69 -59.5t-77 -51.5t-89 -39.5q-17 16 -39 26.5t-41.5 22.5t-33.5 29.5t-14 49.5q0 65 22.5 121.5t63 104.5 t95.5 87.5t120 71.5q48 0 81.5 -14.5t57.5 -38.5t41 -54.5t32 -62.5zM144 288q-17 -32 -30.5 -57.5t-17.5 -49.5t6 -49.5t42 -57.5q65 0 107 28.5t70 72.5t46 96.5t34 100.5q-21 22 -45 27t-49 -1t-49.5 -20t-46 -30.5t-39 -33t-28.5 -26.5z" />
<glyph unicode="&#xe3;" horiz-adv-x="726" d="M493 679q-17 33 -47 52t-62.5 35.5t-63 36t-46.5 53.5q-50 -17 -84.5 -47t-59.5 -63.5t-42.5 -64t-33.5 -46.5q-17 16 -11.5 40t22 53t38 61.5t38.5 66.5l133 131q11 -44 40.5 -71.5t65 -47t70 -35t55 -35t21 -47.5t-32.5 -72zM537 328q-11 -22 -8.5 -47t14.5 -50.5 t32 -50.5t43 -47t48 -39.5t47 -28.5q11 -11 25 -12t28.5 1.5t28.5 5.5t25 2t17.5 -9.5t6.5 -30.5q-16 -17 -39 -25t-48 -8t-48 8t-39 25q-34 16 -60.5 39t-51 47.5t-50.5 47.5t-59 40q-33 -33 -66.5 -65t-70.5 -60.5t-79 -52.5t-92 -40q-17 16 -39.5 26.5t-42.5 23 t-34.5 30.5t-14.5 51q0 65 23 123t64.5 107.5t98 91t122.5 74.5q49 0 83 -15t59 -40t42.5 -57t34.5 -65zM141 283q-17 -33 -31 -58.5t-18 -50.5t6 -50.5t43 -58.5q66 0 109.5 29.5t72.5 74.5t47 99.5t35 104.5q-33 33 -72 29.5t-76.5 -24.5t-68.5 -49.5t-47 -45.5z" />
<glyph unicode="&#xe4;" horiz-adv-x="943" d="M624 819q0 11 5 12t13.5 -4.5t19.5 -16t22 -21.5q0 -23 -10.5 -40.5t-27 -32t-38 -26.5t-43.5 -23q-30 -8 -51.5 4.5t-38 32.5t-31.5 42.5t-32 35.5t-38.5 10t-51.5 -33q-12 -12 -18.5 -27.5t-12.5 -30t-12.5 -24.5t-18.5 -10q-22 46 -3.5 91.5t65.5 90.5q22 0 40 -0.5 t35 -3.5t35 -9t41 -17q11 -11 17.5 -22.5t12.5 -22.5t12.5 -22.5t17.5 -23.5q91 0 91 91zM626 516q-15 -32 -22 -56.5t-3.5 -48.5t20 -49t47.5 -57q10 -21 30 -35.5t44.5 -26t51.5 -21.5t51.5 -21.5t44.5 -26t30 -34.5q-47 -16 -88 -10.5t-80.5 25t-80 49t-86.5 60.5 q-15 -47 -45 -86t-69.5 -70.5t-85.5 -55t-94 -38.5q-31 0 -55.5 7t-44 18.5t-36 26.5t-31.5 31q0 78 28.5 148.5t76 133.5t107.5 118t123 102q15 0 43 -1.5t55.5 -9t48 -24.5t20.5 -48zM376 475q-21 -32 -44.5 -61t-44.5 -57t-37.5 -56.5t-23.5 -60t-2 -66.5t26 -77 q15 -16 37.5 -10.5t46 21.5t46 37t38.5 36q42 21 64 45t31.5 50.5t8.5 55.5t-6 59.5t-10.5 62t-5.5 62.5q-15 0 -30.5 -6.5t-31 -14t-31 -14t-31.5 -6.5z" />
<glyph unicode="&#xe5;" horiz-adv-x="796" d="M168 708q13 -28 9 -50t-15 -40t-22 -33t-11 -29q-15 -14 -23.5 -15t-15.5 6t-15 20t-21 27q0 15 7 34.5t21 37t35.5 30t50.5 12.5zM356 708q0 -15 -5.5 -29t-9 -28t-1.5 -28t16 -29q15 0 28.5 0.5t24 4.5t17 11.5t6.5 22.5q0 13 -6.5 26.5t-17 24.5t-24 17.5t-28.5 6.5z M773 139q-14 -14 -35 -26.5t-45.5 -16t-52.5 5.5t-56 37l-76 76q-28 -29 -56.5 -61.5t-59 -63.5t-63.5 -55.5t-70 -35.5t-79 -6t-90 33q-28 14 -42.5 41t-17.5 59t3.5 65.5t20.5 61.5q13 43 40 78.5t62.5 64t77 49.5t84.5 36q57 14 94.5 5t62.5 -32.5t41 -58t30 -71.5 t30 -73.5t41 -63.5t62 -41t94 -7zM282 405q-43 -14 -72.5 -41.5t-51.5 -63t-37.5 -77t-30.5 -84.5q0 -28 13.5 -48.5t35 -31t48.5 -10t55 14.5q43 14 84 41t73 62.5t51.5 77t19.5 84.5q0 42 -19 59.5t-47.5 21t-61 -0.5t-60.5 -4z" />
<glyph unicode="&#xe6;" horiz-adv-x="1136" d="M1104 492l-6 -34t-7 -37t-8 -45.5t-10 -58.5q-36 -11 -72.5 -21.5t-76.5 -20.5t-85 -19.5t-97 -17.5l-35 53q52 8 95 11t78 9.5t62.5 21t50.5 44.5q3 16 12 31t16 31t7.5 32.5t-12.5 36.5q-69 -5 -125.5 -34.5t-102.5 -72.5t-81 -94t-60 -98q-3 -17 8.5 -35t30 -34 t39.5 -27.5t38 -14.5q33 -6 74 -6.5t82.5 -3.5t80.5 -12.5t69 -31.5q-38 -27 -80.5 -31.5t-88.5 -0.5t-95.5 9t-101.5 -3q-14 20 -34 40.5t-42 41.5t-43 41.5t-35 40.5q-19 -14 -34 0.5t-31.5 39t-38 48.5t-54.5 30t-67 2.5t-66.5 -19t-63 -45t-55.5 -75.5 q11 -36 39.5 -51.5t62 -17.5t66.5 7t52 23q19 13 30.5 20.5t20.5 10t18.5 1.5t26.5 -4q16 -3 16.5 -9.5t-4.5 -14.5q-6 -9 -20 -19q-42 -44 -81 -70.5t-79 -36.5t-82 -3t-88 32q-17 3 -31.5 13.5t-24.5 25t-15 31.5t-2 34q6 33 27.5 69t48.5 70t55 61t48 42q33 -6 58 -10 t46.5 -3.5t40 6.5t38.5 20q6 33 -12.5 61.5t-52.5 51t-80 39t-95 25.5q-3 -16 -11.5 -24t-18 -15t-18 -15.5t-11.5 -24.5q-14 19 -21 30.5t-9.5 20.5t-2 18.5t3.5 25.5q36 10 78 18t85 9t82 -7.5t69 -30.5q27 -38 55.5 -70.5t56.5 -67.5t55 -76t52 -97q19 42 53 93 t77.5 97.5t92.5 82t97.5 47t93.5 -7.5t79 -81z" />
<glyph unicode="&#xe7;" horiz-adv-x="577" d="M518 454q0 -28 -6.5 -31.5t-17.5 3.5t-25 17.5t-28 10.5q-116 0 -202 -51.5t-143 -139.5q-15 -29 -15.5 -57t10 -53.5t31.5 -46.5t49 -35q58 -15 103 -10t84.5 19t77.5 33t82 33h39q-29 -28 -64 -44.5t-71 -31t-71 -31.5t-64 -46q29 0 56.5 -1t49.5 -8.5t35 -23t13 -44.5 q14 -28 20.5 -50t3 -40t-19 -33.5t-44.5 -29.5q-14 0 -27.5 6.5t-24 17.5t-17 25t-6.5 29l75 38l-37 37l-116 -115q-29 15 -32.5 36t3.5 46t18 53t11 57q-29 15 -57.5 24t-57 20t-57.5 27t-58 45q0 43 6.5 80t17.5 69.5t25 62t29 58.5q43 28 92.5 55t103.5 45t111 23.5 t115 -8.5v-40z" />
<glyph unicode="&#xe8;" horiz-adv-x="605" d="M545 818l-276 -277q-13 13 -20 20.5t-10 14t-3.5 14t-0.5 20.5q39 25 73 51t70 52t76 52.5t91 52.5zM232 476q-41 -13 -73.5 -32t-56 -42t-36.5 -49t-13 -53q-13 -39 -13 -79q0 -38 14 -77q29 -77 109 -130q13 -14 37 -21t56 -7t64 7t58 20h2l1 1q8 9 23.5 15.5 t33.5 12.5q31 10 64 27.5t50 53.5l6 11h-13q-37 0 -74.5 -14t-73.5 -31q-33 -14 -66.5 -27.5t-66.5 -15.5q-70 -7 -128 52q-9 8 -23.5 29.5t-14.5 50.5q0 39 35 76q39 0 83 -5.5t89 -12.5q45 -6 89.5 -11.5t82.5 -5.5h2l2 1q31 16 52.5 40t29.5 52q5 20 5 34q0 29 -15 58 q-2 55 -48 83q-29 16 -67.5 20.5t-78 1t-74 -12.5t-53.5 -20zM210 387q48 40 93 40q9 0 18.5 0.5t20.5 1.5q17 1 35 1.5t34.5 -1t30 -6t21.5 -14.5q11 -12 11 -37q0 -8 -1 -17t-4 -19l-1 -4l3 -4q3 -1 4 -4h-3q-8 0 -16.5 -1t-15.5 -7q-4 -4 -5 -9h-291q14 23 31 43.5 t35 36.5z" />
<glyph unicode="&#xe9;" horiz-adv-x="527" d="M297 740l156 -158l-13 -6q-17 -8 -33 -6t-31.5 9.5t-31 19.5t-30.5 24q-14 12 -28 23t-28 18l-1 1l-1 1q-15 14 -21 29.5t-1 27.5q6 17 29 17h34zM343 510q26 0 52 -6t47 -17q54 -27 56 -73q5 -20 5 -35q0 -36 -24 -60q-14 -16 -36 -27t-47 -22q-19 -8 -38 -17t-37 -21 q-14 -10 -30 -13.5t-32 -3.5t-32.5 3t-31.5 6q-26 5 -46.5 7.5t-34.5 -8.5q-19 -16 -19 -70q0 -21 0.5 -37t5.5 -28q5 -11 15.5 -21t28.5 -19q136 0 312 56l8 3l4 -8q10 -21 4 -38q-6 -15 -22 -23.5t-33 -15.5q-11 -5 -21.5 -9t-16.5 -10l-3 -3h-4q-21 0 -43.5 -2t-46.5 -4 q-52 -5 -104 -7.5t-97 14.5h-2l-1 1q-35 23 -44 55.5t-4 66.5t19.5 66t25.5 54q25 51 52.5 92t56.5 73q72 78 155 101h2h1zM318 432q-38 -20 -72.5 -53t-57.5 -71h96q11 5 22 8.5t22 7.5q18 5 35 11.5t30 16.5q27 21 28 57q-18 17 -40.5 20t-62.5 3z" />
<glyph unicode="&#xea;" horiz-adv-x="750" d="M478 658q13 0 25.5 5t22 8t15.5 1.5t6 -14.5q13 -14 9.5 -21t-13.5 -10q-11 -4 -30 -4q-52 0 -99 26t-72 78q-26 -9 -44 -25t-31.5 -36t-24 -42t-21 -42t-23 -36.5t-29.5 -24.5q-26 25 -24 45t15 39.5t28 40.5t15 47q26 25 46.5 50.5t40 48t39.5 41.5t46 32 q0 -26 6.5 -57t19 -60t32 -53t45.5 -37zM651 418q-65 -26 -124 -56.5t-117 -56.5t-117 -43.5t-124 -17.5q0 -13 -5.5 -26t-11.5 -29.5t-11.5 -36.5t-5.5 -46q25 -13 51 -20t52 -10t52 -3.5t52 -0.5q38 13 71 36t65.5 45.5t65.5 39.5t72 17q-39 -52 -89 -95.5t-108 -72 t-121.5 -40t-128.5 1.5q-13 13 -25.5 26.5t-22 29.5t-15.5 35.5t-6 45.5q-13 64 -7 111.5t28.5 86.5t61 74t89.5 74q13 26 37.5 44.5t57 25t70 -1.5t76.5 -34q13 -13 31 -26t37.5 -25.5t38 -25.5t31.5 -26zM375 487q-26 0 -51 -12.5t-47.5 -35t-41.5 -55t-32 -71.5 q39 0 77.5 11.5t77.5 28t77.5 34.5t77.5 31v34q-13 13 -26.5 20t-29.5 10.5t-36 4t-46 0.5z" />
<glyph unicode="&#xeb;" horiz-adv-x="490" d="M232 656q10 -11 11 -22t-4 -21.5t-15 -21.5t-21 -22q-9 0 -15 4q-5 3 -9.5 8.5t-4.5 16.5q-11 11 -8 22t11.5 21.5t17 21.5t8.5 22q22 0 25.5 -3.5t3.5 -25.5zM348 676q0 -11 -8.5 -26.5t-17 -31.5t-11.5 -31.5t9 -26.5q21 0 33 9.5t20.5 23t15 28.5t17.5 26 q-11 11 -17.5 17t-11.5 8.5t-11.5 3t-17.5 0.5zM324 512l-2 -1q-54 -33 -111 -72t-102 -87q-49 -52 -69 -104q-16 -41 -16 -85q0 -20 3 -39q1 -22 26.5 -53.5t57.5 -64.5l8 -7l2 -1q61 -15 127 -1q29 6 56 16t53 21q16 7 30.5 12.5t29.5 10.5l2 1l2 2q24 24 36 38.5t7 25.5 t-21 11h-2q-47 -25 -85 -43q-16 -8 -31.5 -16t-28 -14t-20 -10t-8.5 -4q-22 0 -47 1t-47.5 6t-41 15.5t-28.5 29.5q-18 36 -18 76q0 23 6 41q10 30 35 42q1 0 13.5 1.5t33 3.5t46.5 4.5t53 5.5l144 14l1 1q20 10 26.5 23t6.5 27q0 8 -1 15t-3 14q-1 7 -2 12.5t-1 10.5 q0 10 6 16l3 3v4q0 45 -52 74q-20 12 -41 18t-33 6h-3zM213 363q19 17 40 35t42 27q44 19 80 -15v-45q-5 -1 -27.5 -3.5t-51 -6.5t-58 -7.5t-48.5 -5.5q5 5 11 10t12 11z" />
<glyph unicode="&#xec;" horiz-adv-x="463" d="M359 675q0 -18 -8.5 -20t-20.5 2t-25 9.5t-23 3.5q-18 17 -41.5 38t-46 43.5t-41 46.5t-28 47.5t-6.5 45.5t25 42q16 -35 38.5 -70t50 -69t59.5 -64.5t67 -54.5zM409 417l-37 -421q-8 0 -13.5 -3t-11.5 -6.5t-13 -5t-18 1.5q-16 34 -11.5 71t14.5 75t18.5 77t0.5 77 q-3 26 -2 60t-5 63t-25 46t-62 9l-207 21q11 32 27 43.5t36.5 10.5t44 -10t48.5 -16.5t51 -9.5t51 11q24 9 45.5 4.5t37.5 -18.5t24.5 -35t6.5 -45z" />
<glyph unicode="&#xed;" horiz-adv-x="469" d="M417 941q-14 -37 -41 -72t-60 -68.5t-70.5 -66t-72.5 -64.5q-12 2 -15 7.5t-2 13t3 15t0 12.5q33 32 63 63.5t60.5 61t63.5 54.5t71 44zM366 348q-3 -54 -2 -104.5t2 -99.5t-1.5 -98t-12.5 -101q-22 0 -37.5 6.5t-26.5 22.5l14 503q-20 7 -43 5.5t-48 -6t-50.5 -8.5 t-49 -3.5t-44.5 9t-37 30.5q22 1 58 9t76.5 16t83 15t79 7.5t63 -8.5t35 -31.5t-4 -62.5t-54.5 -101z" />
<glyph unicode="&#xee;" horiz-adv-x="443" d="M335 685q-5 -16 -17 -21.5t-26.5 -4t-28 7.5t-21.5 12l-87 88l-107 -104q-16 25 -10.5 52t22 54t39.5 53.5t42 50.5q28 -11 51 -36t45 -54t45.5 -56t52.5 -42zM387 522q16 -59 12.5 -127t-9.5 -138t-8 -137.5t17 -125.5l-50 -53q-32 30 -38.5 72.5t-1 91t15.5 99t10 95.5 l-13 129l-258 17v42q40 -11 79 -6t79 15t80.5 19.5t84.5 6.5z" />
<glyph unicode="&#xef;" horiz-adv-x="481" d="M355 797q0 -20 -8 -29t-19 -19q-11 0 -21.5 -1t-21 0.5t-20 6t-17.5 15.5q0 16 3 33t10.5 30t20 18t30.5 -3q8 -5 13 -11.5t9 -13.5t8.5 -13.5t12.5 -12.5zM171 784q5 -16 -1.5 -29.5t-18.5 -23.5t-27 -16.5t-26 -8.5q-18 8 -27 23t-11.5 31.5t1 32t11.5 25.5 q32 12 57.5 0t41.5 -34zM421 474q-11 -74 -28.5 -147t-38 -145t-40.5 -143.5t-36 -144.5q-11 0 -18.5 3.5t-12.5 9.5t-9.5 12.5t-10.5 12.5q38 130 67 269t61 273q-40 16 -81 15t-80.5 -6t-78 -6.5t-73.5 14.5q37 21 80.5 30.5t89.5 14.5t92 8t89 11z" />
<glyph unicode="&#xf0;" horiz-adv-x="720" d="M349 996q0 -19 -16 -30t-35 -20.5t-35 -20.5t-16 -30l152 -254h-50q0 -48 17 -82.5t44.5 -60.5t61.5 -46t67 -39t62 -39.5t46.5 -46.5t20.5 -60.5t-16 -81.5q-38 -38 -76 -74.5t-76 -65t-76 -46t-75 -17.5q-38 -19 -67.5 -12.5t-53 25.5t-43.5 44.5t-39 44.5 q-19 38 -28 83t-4 87.5t25 78t58 54.5q12 25 31.5 39.5t39 23t36.5 14t24 14t1 22.5t-31 40q0 19 -8 29t-18 15q-11 5 -25 6q0 19 9 29.5t23 15t32.5 5.5t37.5 1l-152 152q-19 -19 -37.5 -46.5t-32.5 -61t-23 -70.5t-9 -75q-25 25 -24.5 57.5t11.5 68t25.5 71t17.5 66.5 t-13.5 55t-67.5 37v51q19 0 38 -8t38.5 -17.5t38.5 -17.5t38 -8q12 0 21.5 11t17.5 26.5t17.5 32t22 28t30 14t43.5 -10.5zM298 438q-38 -19 -65.5 -47.5t-42 -66t-13.5 -85t20 -104.5q0 -19 9.5 -37.5t28.5 -32.5t47.5 -23t66.5 -9q37 0 74.5 16.5t70.5 40.5t61 50t47 45 q0 50 -15.5 85t-41 59t-58 39t-66 26.5t-66 21t-57.5 22.5z" />
<glyph unicode="&#xf1;" horiz-adv-x="667" d="M562 655q-30 0 -54 -12.5t-46.5 -27.5t-46.5 -27.5t-54 -12.5q-15 15 -38 41t-53.5 49t-68.5 34.5t-83 -2.5q-15 -16 -18 -37t-3 -40t-2.5 -32t-17.5 -13q-30 15 -40 30t-9.5 30t5.5 30.5t5 31.5q60 60 120.5 84t120.5 -5q31 -15 54.5 -36t42 -40t34.5 -32t31 -13 q30 10 45.5 37.5t23 58.5t12 60.5t12 43.5t23 7t45.5 -47zM77 332q30 10 61 29t62.5 40t64 42t67.5 35t72 19t77 -5q45 -44 76 -96t50 -109t27.5 -116.5t8.5 -119.5q0 -16 -6.5 -18t-14.5 2q-9 4 -20 16q-15 60 -25 112.5t-25 97.5t-40.5 83t-70.5 68q-45 15 -77.5 10.5 t-59 -19.5t-51 -35t-54.5 -36q-15 -30 -29 -66.5t-21.5 -74t-6.5 -74t16 -66.5q15 0 23 -6.5t8 -14.5t-8 -14.5t-23 -6.5q-1 -11 -5 -15t-12 -2.5t-23 17.5q-30 45 -51.5 104t-29 123t1 130t38.5 126q20 0 28 -9t8 -23t-5.5 -32t-12.5 -36t-12.5 -34t-5.5 -26z" />
<glyph unicode="&#xf2;" horiz-adv-x="541" d="M358 600h-35q-39 13 -72.5 37.5t-66 50.5t-66.5 50t-74 37v35q40 -13 84 -32.5t86.5 -46t80 -59t63.5 -72.5zM533 321q0 -52 -13 -103t-39 -93.5t-65.5 -73.5t-92.5 -44q-26 -13 -57.5 -14t-64 5.5t-64.5 18t-59 24.5q-26 26 -39.5 58.5t-16.5 68.5t3 75t19 78 q0 40 17.5 68t44 50.5t57 44t56.5 47.5q26 -26 57 -42t63 -27.5t63 -22t57 -25t45.5 -36.5t28.5 -57zM219 461l35 -34h-35q-10 9 -18 13q-7 3 -12 1.5t-5 -14.5q-54 -54 -80 -128t-26 -153q13 -26 43.5 -45.5t66.5 -29t72.5 -9t62.5 13.5q40 13 67.5 33t47 46t33.5 59t27 72 q-9 26 -28 44t-44 31.5t-54 24t-57.5 21.5t-53.5 23.5t-42 30.5z" />
<glyph unicode="&#xf3;" horiz-adv-x="631" d="M450 827q0 -26 -17 -35.5t-39.5 -16t-46.5 -16.5t-37 -36q-26 -13 -47 -35.5t-43.5 -42.5t-50 -30t-66.5 2q39 27 78.5 63t81.5 69t88 55.5t99 22.5zM589 338q13 -38 14 -71.5t-9 -66.5t-29 -67t-45 -73q-26 -27 -69 -40.5t-92 -17t-98.5 3t-88.5 20.5q-26 0 -50.5 12 t-44 31.5t-31.5 44t-12 50.5q-14 39 -10 73t17 66.5t30.5 66t31.5 72.5q39 26 83 40t86 17.5t79.5 -2.5t63.5 -18q27 -14 57.5 -27.5t56.5 -30t43 -36.5t17 -47zM240 442v-68q-25 -27 -46.5 -27t-21.5 27q-27 -27 -48 -53t-21 -52q-14 -26 -20 -51.5t-3 -48.5t16.5 -42 t39.5 -32q39 -13 83.5 -19.5t87 -6.5t80 6.5t63.5 19.5q53 52 79 105t26 104q-26 52 -63.5 75.5t-80 33t-87 13.5t-84.5 16z" />
<glyph unicode="&#xf4;" horiz-adv-x="602" d="M502 602q-50 -12 -88.5 2.5t-72.5 39t-66.5 51.5t-69.5 40q-25 -25 -44.5 -50t-38 -50t-38.5 -50t-45 -50q0 37 16 74t38 71.5t44.5 65t34.5 54.5q49 -24 93 -49t84.5 -49.5t78 -49.5t74.5 -50zM570 404q24 -62 15 -112.5t-37 -94t-67.5 -82.5t-76.5 -76 q-38 -12 -74.5 -23t-70.5 -17t-64.5 -5t-55.5 13q-38 25 -67 56t-44.5 68t-14 80t25.5 93q0 12 6 30t15.5 36.5t22 36.5t24.5 30q12 0 23.5 -5.5t20.5 -11.5q11 -7 21 -16q49 37 108 65t115 34t102.5 -15.5t72.5 -83.5zM404 437q-50 -12 -98 -20.5t-88 -21t-69.5 -33.5 t-41.5 -58q-26 -24 -33 -58.5t-1 -68.5t24 -62.5t42 -40.5q100 -53 198 0q37 24 73 55t63.5 68t44.5 80.5t17 92.5q-12 25 -29.5 38.5t-36 20t-36 7.5t-29.5 1z" />
<glyph unicode="&#xf5;" horiz-adv-x="672" d="M582 759q8 0 15 -4q5 -3 10 -9t5 -17q-11 -12 -28.5 -29t-38 -35t-44 -35t-46.5 -28q-24 0 -46 9t-42.5 21.5t-40 25t-39.5 19.5t-41.5 5t-45.5 -18q-12 -12 -24.5 -33.5t-27.5 -42t-33 -36t-42 -15.5q0 36 16 66t40 57t52 51.5t52 47.5q31 8 60.5 -2t57.5 -25.5 t55.5 -31t56 -18.5t58 13.5t61.5 63.5zM371 515q-12 0 -29 -1t-35.5 -7.5t-36 -19.5t-30.5 -37q-43 -3 -92 -58q-18 -21 -36.5 -48.5t-32.5 -56.5l-1 -2v-2q0 -35 1 -66t7 -58q13 -58 58 -103q13 -25 36.5 -38.5t51 -19.5t56 -7t52.5 -1h2l2 1q22 11 47.5 25t52.5 31.5 t53.5 38.5t50.5 45q108 108 87 217v2l-5 7q-24 35 -49 68.5t-55 56.5q-35 27 -72.5 35t-82.5 -2zM320 421q32 12 66 20t77 -6q0 -1 9 -10l22.5 -22.5l29 -29t29 -28.5t23 -22.5l10.5 -10.5q-2 -41 -30 -81q-13 -19 -31.5 -37t-41.5 -35q-27 -20 -55 -35.5t-52.5 -27t-43 -18 t-27.5 -9.5v-1h-1q-39 -19 -82 12q-18 13 -34 33.5t-30 46.5q0 70 24 133.5t67 108.5q17 1 34.5 6.5t36.5 12.5z" />
<glyph unicode="&#xf6;" horiz-adv-x="627" d="M185 688q-12 0 -24 -5t-24 -11t-23.5 -11t-23.5 -5q-12 12 -13.5 19t1.5 13t7.5 12.5t4.5 18.5q23 24 47 20t48 -51zM311 751q12 0 23.5 -5.5t20 -14.5t14 -20t5.5 -23t-0.5 -23.5t-3.5 -20.5t-9 -14.5t-18 -5.5q-12 -12 -23.5 -13t-20.5 5t-14.5 17t-5.5 23 q-12 12 -13 24t5 23.5t17 23.5t23 24zM437 466q36 -12 60.5 -29t42.5 -37.5t30.5 -44t24.5 -47.5q12 -47 -2.5 -83.5t-44 -66t-68 -54t-74.5 -48.5q-24 -24 -53 -46t-61.5 -34t-67.5 -10t-71 26q-47 48 -75 99.5t-51 122.5q0 95 43 165.5t115 118.5q35 0 65.5 -0.5 t60.5 -3.5t60.5 -9.5t65.5 -18.5zM216 435q-71 -47 -98.5 -118.5t-27.5 -166.5q12 -24 29.5 -46t41.5 -36.5t53.5 -19t64.5 7.5q36 0 71 15.5t67.5 39.5t61.5 51.5t53 51.5q24 48 4.5 94.5t-67.5 94.5q-12 12 -34 18t-49 6t-55 -6t-52 -18q-12 0 -18.5 5t-12.5 11t-13 11 t-19 5z" />
<glyph unicode="&#xf7;" horiz-adv-x="627" d="M265 585q-1 -13 -6 -23q-5 -9 -14 -16t-26 -7h-47q0 17 8 33t21 25t30 7.5t34 -19.5zM589 445q-52 -51 -119.5 -72t-141 -25t-149 1t-144.5 5v91q69 0 138.5 -5.5t138.5 -5t138.5 12.5t138.5 47v-49zM265 261v-46q-17 -17 -26 -19.5t-14 2.5t-6 17q0 17 7 33t16 25 t16 7.5t7 -19.5z" />
<glyph unicode="&#xf8;" horiz-adv-x="621" d="M495 776l100 -32l-4 -6q-20 -27 -52 -78.5t-74 -123.5q19 -37 32 -75.5t21 -80.5q12 -56 12 -112q0 -31 -3 -61v-1q-25 -69 -66 -118q-48 -54 -110 -72q-26 -8 -50 -8t-46.5 5.5t-42.5 15t-36 20.5q-24 -40 -47 -77t-43 -68t-36 -53t-26 -32l-1 -1l-1 -1l-12 -2 q-12 -3 -24.5 -4.5t-24.5 10.5l-3 3l2 4q10 12 27.5 38t38.5 61t45.5 77t50.5 87q-34 33 -54 66l-1 2v1q-1 5 -1 11.5v12.5q0 65 9 127.5t20 124.5q5 23 9 46l8 46v1v1q23 40 49.5 70t56.5 48q70 46 147 20h1h1q11 -11 21.5 -23t21.5 -26q2 3 4.5 8.5t5.5 10.5q4 6 7 13 l66 121zM331 611q-30 17 -73 -4q-70 -42 -92 -122q-11 -36 -12.5 -75.5t-1.5 -78.5t-2 -79t-13 -76l16 -23q46 82 100.5 182t120.5 225q-8 15 -18.5 29t-24.5 22zM411 434l-98 -168t-97 -162q35 -15 76 -16.5t86 12.5q46 27 62 67t16 88q0 30 -4.5 61.5t-9.5 63.5 q-4 23 -7 44.5t-5 42.5q-2 -4 -5.5 -9.5t-6.5 -10.5q-4 -6 -7 -13z" />
<glyph unicode="&#xf9;" horiz-adv-x="699" d="M268 683q14 -13 34 -10t41 7t40.5 0t33.5 -32q-14 -14 -39.5 -16t-53 1.5t-53 9t-38.5 5.5q-15 13 -34.5 21.5t-40.5 18.5t-41 25.5t-34 42.5v39q14 0 34.5 -17.5t44.5 -38.5t51 -38.5t55 -17.5zM121 462q-14 -42 -20.5 -95t-3.5 -108.5t17.5 -108.5t42.5 -95 q42 -14 77 -9t66.5 22.5t60 43.5t56.5 55q42 27 58 61t16 72t-11.5 79t-25.5 83q1 10 5 18q4 7 11 13t21 6q28 -37 40 -84t19 -95.5t15 -93.5t27.5 -78t55.5 -49.5t101 -7.5l-35 -36q-42 -14 -77 -9t-62.5 22.5t-48.5 43.5t-35 55q-28 -42 -56 -71t-59.5 -50t-66.5 -36 t-76 -28q-42 -14 -71 -3.5t-50 34.5t-36 56t-28 59q-14 42 -20 95t0.5 105t28.5 97.5t64 73.5v-37z" />
<glyph unicode="&#xfa;" horiz-adv-x="707" d="M579 956q0 -16 -14.5 -32t-37.5 -35.5t-53 -43.5t-61 -55q-21 0 -35.5 -17.5t-26 -41.5t-21.5 -48.5t-21.5 -38t-26 -10.5t-35.5 34q16 46 46.5 97t73 97.5t96.5 83t116 51.5v-41zM125 502q0 -31 -12.5 -68.5t-24 -75.5t-16 -75.5t11.5 -68.5q15 -15 30.5 -37t31 -45.5 t30.5 -45.5t30 -38q46 0 79.5 8t60.5 23.5t52.5 39t56.5 54.5t35.5 74.5t0.5 90t-7 90t12 74.5h83q20 -31 23 -70.5t-0.5 -81.5t-8 -84t2.5 -78t30.5 -62t74.5 -36q16 0 31.5 6t31 9.5t31 1.5t31.5 -17q-16 -31 -38.5 -41.5t-50 -10.5t-58 5t-61.5 5q-23 47 -46 65t-47 16.5 t-49 -17.5t-52 -37t-56 -43t-61 -35t-67 -13t-73 23q-94 63 -125 150.5t0 181.5q0 30 1.5 59t9 52.5t24.5 37.5t48 14z" />
<glyph unicode="&#xfb;" horiz-adv-x="732" d="M328 779q9 -18 26 -31t36.5 -23t38.5 -19t32 -19t17.5 -23t-4.5 -31q-27 -14 -54.5 -9t-55 22t-55 43t-54.5 53q-14 -27 -28.5 -53.5t-32 -47t-39 -33t-48.5 -12.5q0 27 18.5 55t46 59t60 66t59.5 76q14 0 21.5 -6t11 -16.5t4 -23.5t0.5 -27zM144 448 q-14 -27 -26.5 -66.5t-19.5 -84t-6 -91t15 -88.5q27 -27 55 -46.5t55.5 -26.5t55.5 1t55 35q41 27 64 61t36.5 72.5t22.5 79t23 81.5q28 9 41.5 1.5t18.5 -24.5t4.5 -41t-1.5 -47.5t0 -43.5t10 -29q14 -27 29 -48.5t32 -38.5t38.5 -31.5t48.5 -27.5q14 -14 15 -21.5t-6 -11 t-19.5 -4t-26.5 -0.5q-27 0 -54 12.5t-51.5 33t-44.5 47t-34 53.5q-18 -18 -39.5 -41t-44.5 -45.5t-48.5 -41.5t-52 -29t-54 -8.5t-55.5 19.5q-27 0 -48 12.5t-38.5 33t-31.5 47t-28 53.5q0 42 1 88.5t8 91.5t22 84.5t42 66.5z" />
<glyph unicode="&#xfc;" horiz-adv-x="690" d="M361 778q-1 -12 -5 -21q-4 -8 -12.5 -14.5t-24.5 -6.5q-15 0 -30 7t-26.5 19t-18.5 26.5t-7 29.5q15 16 30.5 17.5t31 -6.5t31 -22t31.5 -29zM195 778q-10 0 -11.5 -9t0 -23t2 -30t-5.5 -30t-21.5 -23t-46.5 -9q-15 15 -17 37t2 45.5t9.5 45t5.5 36.5zM482 447 q20 -30 35 -66t29 -72.5t28.5 -70.5t35.5 -60t49.5 -42t70.5 -16q0 -16 -0.5 -25.5t-4.5 -17t-12.5 -16.5t-23.5 -24q-31 0 -55 14t-43.5 37.5t-35.5 53t-31 60.5q-31 -31 -55.5 -67t-47 -67t-47 -52t-55.5 -21q-47 -15 -85.5 -9.5t-69.5 25t-54 49t-38 60.5 q-16 46 -29.5 98t-17.5 101.5t6 94t41 75.5h83q-31 -31 -47.5 -69t-20.5 -80t3 -88t22 -92q32 -30 62.5 -61.5t62.5 -61.5q31 0 61 14t57 37.5t49 53t37 60.5q21 31 20.5 62t-12 61.5t-28 61t-28 61t-12 61.5t20.5 62q30 0 46 -13.5t23.5 -33t9 -40.5t1.5 -37z" />
<glyph unicode="&#xfd;" horiz-adv-x="565" d="M536 1034l-268 -402h-44q0 67 29.5 126t71.5 113.5t88 105.5t80 101zM2 587q33 -66 67.5 -125t72 -113.5t80 -105.5t92.5 -101l179 356h43q0 -17 -7.5 -48t-20 -69t-28.5 -78t-33 -74q-33 -32 -38.5 -65t-5.5 -65q16 0 25 -8t13.5 -21t5 -29.5t0.5 -33.5q-2 -13 -6 -17 q-5 -5 -13 -2.5t-25 19.5q-22 -33 -31 -70t-11.5 -75t-2 -77.5t-2 -77.5t-11.5 -75t-31 -70q-34 50 -38 114t4.5 131t21 131t12.5 114q-50 50 -99.5 108t-95.5 120.5t-87.5 128.5t-75.5 133z" />
<glyph unicode="&#xfe;" horiz-adv-x="486" d="M144 582q13 13 42 24t64.5 14.5t71 -4.5t61.5 -34q25 -26 39 -56.5t20.5 -63t7.5 -63.5t1 -56q-26 -38 -57.5 -59.5t-66.5 -34t-73 -21.5t-76 -22q0 -38 5.5 -76.5t11.5 -77t11.5 -77t5.5 -76.5q0 -13 -0.5 -20t-3.5 -10t-10 -3.5t-20 -0.5q-17 25 -24.5 58t-11.5 67 t-7 66.5t-12.5 58.5t-28.5 41.5t-53 15.5q-9 9 -13 17q-3 6 -1.5 11.5t14.5 5.5q34 9 50 28t19.5 43.5t-1.5 53t-12.5 56t-14.5 52t-7 41.5v273q26 0 38.5 -8t17.5 -21t4 -30.5t-1.5 -36.5t0.5 -38.5t10 -36.5zM212 548q-34 -9 -50 -25t-19.5 -38t1.5 -48t12.5 -53.5 t14.5 -55.5t7 -53l136 34q26 0 44.5 17t28.5 42.5t9.5 55.5t-13.5 56q0 25 -17 44t-43 28.5t-56 9t-55 -13.5z" />
<glyph unicode="&#xff;" horiz-adv-x="544" d="M446 782q0 -15 -0.5 -35t-4 -38t-11 -30.5t-21.5 -12.5q-16 0 -30 5.5t-25 12.5q-13 8 -24 19q0 30 13 62t31 50t38 14t34 -47zM177 589q-14 0 -22 0.5t-11.5 4t-4 11.5t-0.5 22q-15 28 -16 50.5t10 40.5t32.5 33.5t50.5 30.5q0 -15 -0.5 -36.5t-4.5 -46.5t-11.5 -53 t-22.5 -57zM23 513q14 -59 42.5 -116t68 -107.5t89.5 -92.5t107 -70l116 345q0 31 24 31t53 -31q-29 -43 -50.5 -92.5t-35.5 -100t-21 -99.5t-7 -92q-30 -43 -40 -91.5t-10 -95t4.5 -88t4.5 -70.5q-29 9 -43 30.5t-18 49t-1 59.5t8.5 63t10.5 58.5t5 46.5q-287 171 -346 463 h39z" />
<glyph unicode="&#x131;" horiz-adv-x="469" d="M431 446l-40 -449q-8 0 -14 -3.5t-12.5 -6.5t-14 -4.5t-19.5 1.5q-17 36 -12 75.5t15.5 80t19.5 82t1 81.5q-3 28 -2 64.5t-5.5 67t-26.5 49t-66 9.5l-221 23q11 34 28.5 46t39.5 11t47 -10.5t51.5 -17.5t54 -10t54.5 11q25 9 48.5 4.5t40.5 -19t26 -37t7 -48.5z" />
<glyph unicode="&#x141;" horiz-adv-x="943" d="M315 94q75 0 147.5 -6.5t144.5 -18.5t144.5 -29t147.5 -37v-19q-82 -7 -164 -5t-164.5 7.5t-164.5 11t-164 5.5l-37 54q41 55 59.5 123t31.5 151q-68 -27 -127.5 -38.5t-127.5 2.5v19q34 0 65.5 6t62 16t62 23t65.5 27q7 48 11.5 95.5t9.5 92t13 85t22 74.5 q7 -41 10.5 -79.5t5 -76t2 -76t0.5 -79.5q41 14 79.5 27t78 23.5t81 17t89.5 6.5q7 -14 5 -24.5t-9 -19t-16 -16t-16 -14.5q-41 7 -79 4.5t-74 -10.5t-70.5 -21t-68.5 -27q-14 -69 -27.5 -137t-27.5 -137z" />
<glyph unicode="&#x142;" horiz-adv-x="1157" d="M1101 96q0 -26 -13.5 -41.5t-39.5 -29.5q-114 7 -226.5 6.5t-223 -8.5t-216.5 -25t-206 -44l-35 18q54 80 95.5 160t81.5 160q-27 -7 -50.5 -13t-47 -9t-47 -2.5t-50.5 6.5v18q54 14 115.5 29.5t115.5 41.5q41 67 80.5 131.5t79.5 118.5q-54 27 -112.5 28t-118.5 -4 t-119 -7t-112 18q-5 22 1.5 33.5t19.5 16.5t30 5.5l34 1t32.5 3t24.5 11.5l462 -18q4 -31 -6 -55.5t-28 -45.5t-41 -41t-44 -41t-37.5 -45.5t-20.5 -55.5q80 26 171 48.5t185 22.5q7 -14 4.5 -24t-11 -18.5t-21.5 -15.5t-26 -13q-47 6 -91 0.5t-87 -19t-87 -32t-91 -38.5 q-20 -33 -40 -64t-38 -61t-34.5 -60.5t-29.5 -64.5q100 -6 203 3.5t206.5 19t206 12.5t202.5 -17z" />
<glyph unicode="&#x152;" horiz-adv-x="1315" d="M1315 693v-73l-643 -142q0 -27 1 -64.5t8 -78t21 -78.5t41 -65q27 0 65 10t78.5 17t78 3.5t64.5 -30.5q-13 -27 -41.5 -39t-64.5 -16t-76 -4t-77 -3.5t-67 -13.5t-46 -34t-14 -66t29 -109q80 -27 159 -40.5t152.5 -13.5t139.5 13.5t120 40.5q-54 -54 -131 -93t-164 -59 t-177 -19t-171 28q-54 0 -107.5 -10t-107 -17t-107 -3.5t-106.5 30.5q-18 36 -40.5 77t-42 84.5t-34 88.5t-16.5 88.5t11.5 84.5t49.5 77q54 80 119.5 146t139.5 112.5t153 72t160 25.5l71 -70q35 0 76.5 10.5t87 26.5t95 34.5t101 34.5t105 26.5t107.5 10.5zM457 550 q-54 -54 -95 -96.5t-74.5 -82.5t-61 -82.5t-54.5 -96.5t-28 -106t19 -99t59 -86t92 -66q27 -27 54 -30t53.5 3.5t53 16.5t53.5 10q18 71 30.5 127t20.5 103.5t12 91t6 91t2.5 103.5t0.5 127q-27 -27 -52.5 -29t-46 11.5t-32.5 38t-12 51.5z" />
<glyph unicode="&#x153;" horiz-adv-x="809" d="M569 515q30 2 60 3t57 -6q64 -18 88 -88v-1v-1q0 -16 -1.5 -44.5t-9.5 -56.5q-9 -34 -27 -50q-9 -11 -22.5 -17t-28.5 -6q-26 -9 -46 -9t-36 6t-29 16t-26 21q-21 18 -45.5 33.5t-63.5 16.5q-15 -30 -23 -54t-12 -47t-4.5 -47t-0.5 -54q0 -53 33 -75q17 -10 38 -14t44 -8 t45.5 -8.5t42.5 -14.5q9 0 20.5 3t23.5 5q16 3 33 6.5t34 4t32 -4t27 -16.5l5 -5l-6 -4q-48 -32 -102.5 -42t-106 -5.5t-97 18.5t-76.5 29h-2v2q-14 30 -31 33q-10 3 -21 -3t-23 -14q-11 -8 -22 -14t-22 -6q-33 0 -64.5 0.5t-59 5t-50.5 13t-39 25.5q-17 17 -25 47t-8 63 q0 32 8 61.5t24 46.5q29 44 61.5 89.5t69.5 78.5q79 71 167 43h13q2 0 5 -1t5 -5v-3q0 -3 -4 -7q-4 -5 -9 -11.5t-5 -20.5v-9l-8 2q-43 15 -79.5 4.5t-67 -35.5t-54.5 -61t-42 -72v-1h-2q-28 -30 -28 -79q0 -23 7 -43t21 -34q121 -62 239 -2q-9 42 -9 84q0 39 7.5 78 t24.5 77q23 54 61 100.5t87 78.5l1 2h2q23 0 52 3zM576 441q-19 -3 -47 -15.5t-46 -43.5q14 -12 38 -20.5t47 -14.5q28 -8 49.5 -16t28.5 -22q19 20 34 39t15 37q0 9 -4 16.5t-11 15.5q-16 16 -45 22.5t-59 1.5z" />
<glyph unicode="&#x160;" horiz-adv-x="729" d="M579 1017q-19 -20 -38 -47t-37.5 -55.5t-37.5 -55t-38 -45.5v-52q-20 0 -23 -8t-3 -17t-3.5 -17t-22.5 -8t-29 7.5t-15 17.5q-5 11 -6 25q-19 38 -44.5 68.5t-44.5 59t-25.5 59t13.5 68.5q19 -20 30.5 -47t26 -55.5t35.5 -55t59 -45.5q19 19 39 53t44 67.5t53 58t67 24.5 zM694 599v-52q-57 19 -130 28t-149.5 4.5t-149.5 -24.5t-130 -58q0 -19 -8 -30t-17 -20.5t-17 -20.5t-8 -30q51 -38 105 -65t109 -46.5t109 -35t105 -31t97 -34t84 -43.5q-13 -51 -37.5 -78.5t-57 -40t-71 -14.5t-79.5 -2t-82 -2t-79 -14q-20 0 -39 1t-38 5.5t-38 14.5 t-38 29q76 0 143.5 1t129.5 5.5t119.5 15t114.5 29.5v50q-76 38 -159 60.5t-164 41.5t-155 41t-131 60q0 51 15.5 89.5t42.5 68.5t62.5 52t75 39.5t81 31t79.5 26.5q38 0 76 -1t76.5 -5.5t76.5 -15.5t76 -30z" />
<glyph unicode="&#x161;" horiz-adv-x="711" d="M579 857q-19 -20 -38 -47t-37.5 -55.5t-37.5 -55t-38 -45.5v-52q-20 0 -23 -8t-3 -17t-3.5 -17t-22.5 -8t-29 7.5t-15 17.5q-5 11 -6 25q-19 38 -44.5 68.5t-44.5 59t-25.5 59t13.5 68.5q19 -20 30.5 -47t26 -55.5t35.5 -55t59 -45.5q19 19 39 53t44 67.5t53 58t67 24.5z M460 527q21 0 22.5 -18t-9 -39t-30 -39t-40.5 -18v57q-43 0 -76.5 -10t-65.5 -26t-66 -36.5t-76 -41.5q57 -14 113 -20.5t109.5 -13t103.5 -16t94.5 -30t82 -55.5t65.5 -92q0 -21 -10.5 -50.5t-32 -56t-53.5 -45t-75 -18.5q-21 -21 -51 -23t-62 8.5t-62.5 30t-51.5 40.5 q-21 0 -40.5 10.5t-30 32t-9 53.5t22.5 75q14 -14 28.5 -36t30.5 -46t33.5 -46t38 -36t44.5 -17.5t53 10.5q21 0 42 1t42.5 6t43 17t42.5 33q14 28 11 48t-15.5 34.5t-31 24.5t-36 19.5t-30 20t-12.5 24.5q-57 14 -109 16t-99 -1t-89.5 -7.5t-80.5 -3t-71 12.5t-62 40 q43 42 95.5 83t111 73t121.5 51.5t127 19.5z" />
<glyph unicode="&#x178;" horiz-adv-x="596" d="M354 984q36 0 52 -22q6 -10 8.5 -21.5t4.5 -23.5q2 -14 5.5 -27t13.5 -23l18 -17h-25q-9 0 -17.5 -2.5t-18.5 -5.5t-20.5 -6t-21.5 -3t-22 4.5t-22 15.5l-3 3v4q0 15 0.5 30t4.5 30t12.5 30.5t23.5 30.5l3 3h4zM164 984q17 0 27 -7t18 -15q7 -7 13.5 -11.5t17.5 -4.5h14 l-43 -129l-2 -2q-18 -18 -33 -12t-18.5 33.5t-3.5 61.5v86h10zM507 813l54 -54l-5 -9q-33 -57 -50 -114.5t-24.5 -115.5t-8.5 -117.5t0 -120.5q1 -88 -2 -179t-27 -188l-1 -3l-22 3h-3v3q-1 1 -1 4q-1 2 -1 4.5t-2 4.5q-6 12 -22 12h-13v13q0 35 4.5 74t9.5 81q5 45 10 89 t5 86q0 113 -46 171q-16 11 -32 23t-33 26q-11 5 -23 10h-1h-1q-54 27 -114 62t-118 94l-9 9l47 47l9 9l23 -22q42 -42 93 -91t108 -95q41 -19 69 -53l1 -1q2 -2 4 -2q8 25 14 52t11 54q6 32 13.5 63.5t17 61t23.5 55t34 45.5z" />
<glyph unicode="&#x17d;" horiz-adv-x="889" d="M661 1142q-21 -27 -47 -60.5t-54 -67.5t-54 -67.5t-47 -60.5q7 -7 13.5 -14t10 -14t3 -13.5t-7.5 -13.5q-21 0 -30 -11.5t-15.5 -27t-15.5 -31t-30 -22.5q-14 14 -25.5 41t-11.5 69q-21 27 -48.5 55t-49.5 59t-33 66t3 76q27 -7 46 -28.5t36.5 -49t36.5 -56t46 -49.5 q23 14 43 37t40 48.5t40 51.5t43 46t49.5 30.5t58.5 6.5zM679 688q9 -32 1.5 -57t-24 -46.5t-39 -42t-44 -42t-38 -47t-21.5 -57.5q-27 -41 -57 -82.5t-59 -84t-55.5 -87.5t-47.5 -93q103 -7 211 3t216 20.5t212.5 13.5t200.5 -18q14 -28 2.5 -44t-38.5 -29 q-248 13 -477.5 -2.5t-435.5 -71.5l-37 19q55 82 101 166.5t91 168.5t91 165.5t101 156.5q-37 18 -76 24.5t-79 6t-80 -5t-78.5 -6.5t-74.5 1t-68 17q-5 23 0 34.5t16.5 16.5t28 6t34 1.5t35 3t31.5 11.5z" />
<glyph unicode="&#x17e;" horiz-adv-x="942" d="M494 872q-35 -45 -78.5 -98t-88.5 -98q13 -11 22 -24t9 -36q-23 6 -31.5 -1t-12.5 -18.5t-9.5 -23.5t-21.5 -18q-23 11 -32.5 32t1.5 44q-23 28 -46.5 54.5t-42 53.5t-28 56t-3.5 63q28 -11 44 -32.5t28.5 -45.5t26 -48t36.5 -41q23 11 41 31t34.5 43t32 45t33 38.5 t38.5 24t48 -0.5zM585 488q-4 -41 -22 -77.5t-44 -70.5t-57.5 -66t-64 -63.5t-62.5 -63t-52 -65.5q68 6 145.5 6.5t157 0.5t157 1t145.5 7q5 -12 0.5 -20.5t-15 -15.5t-23.5 -13t-24 -12q-80 -5 -158.5 -8.5t-156.5 -9.5t-154.5 -15.5t-150.5 -26.5l-29 46q40 51 84 102 t87.5 103.5t84.5 106.5t75 111q-38 19 -74 23t-72.5 0.5t-73 -11t-74.5 -12t-77 -3t-81 17.5v28q56 6 122.5 18t136 17.5t138.5 -0.5t132 -35z" />
<glyph unicode="&#x192;" horiz-adv-x="589" d="M400 817q51 0 95 -16t76 -48l3 -4l-6 -41l-10 3q-26 8 -51.5 9.5t-51.5 1.5t-52 2t-54 10q-30 -8 -50 -29q-18 -21 -27 -52q-1 -6 -1.5 -12.5t-2.5 -12.5q-4 -26 -4.5 -55.5t1.5 -58.5q0 -16 1 -31t-1 -29q5 -52 36 -72q29 -21 75 -9q8 11 18.5 10.5t19.5 -2.5 q5 -2 8.5 -2h6.5h6l11 -23l-3 -3q-13 -20 -38 -25t-48 -6q-21 0 -37.5 -2.5t-24.5 -12.5q-7 -11 -2 -37v-1q10 -62 13 -125t0.5 -126.5t-9 -127.5t-13.5 -127l1 -2l-2 -2q-14 -29 -49 -55q-32 -25 -67 -30q-70 -2 -119 28q-25 15 -44 38.5t-30 52.5l-1 2l7 44l10 -3 q17 -7 30.5 -18t27.5 -22q13 -11 26 -21t27 -16t30 -7t34 6q1 1 8.5 7.5t17 15t17.5 15.5t9 8q5 18 9 36t7 38q14 91 10 193.5t-25 226.5q-9 2 -21.5 2t-24.5 -1q-20 -2 -40 -1t-32 13q-13 14 -13 43l1 7q28 3 53 5q21 2 40 3t25 2q-4 66 -5.5 147t11.5 167q3 16 6 32.5 t8 33.5v2l2 3q35 28 80 44t92 17z" />
<glyph unicode="&#x2c6;" horiz-adv-x="558" d="M286 788l10 -15q50 -75 100 -128q55 -57 116 -90l8 -4l-7 -26h-60l-3 3q-22 22 -47.5 47t-49.5 48t-43.5 41.5t-28.5 27.5q-11 -8 -23.5 -15t-24.5 -14l-1 -1q-38 -22 -73.5 -49t-58.5 -76q-2 -16 -14 -21q-5 -3 -14 -1t-20 14q-2 0 -3 1t-3 2v42z" />
<glyph unicode="&#x2c7;" horiz-adv-x="568" d="M56 409q21 28 46 60t51.5 65t54 66t53.5 63q-14 13 -25 26t-6 36q25 -2 35.5 7.5t17 24t14 30t25.5 24.5q23 -19 36 -45.5t8 -59.5q23 -30 51.5 -61t51 -63.5t34 -67.5t-0.5 -75q-32 9 -52 32.5t-36 52t-33.5 57.5t-44.5 50q-25 -14 -46.5 -37.5t-41.5 -50.5t-40.5 -53.5 t-43.5 -46.5t-49.5 -30t-58.5 -4z" />
<glyph unicode="&#x2d8;" horiz-adv-x="480" d="M437 785q-6 -29 -14.5 -57t-21.5 -53t-33 -46.5t-48 -36.5q-26 -8 -53.5 -15t-55.5 -11.5t-56.5 -3.5t-55.5 10q-11 21 -23.5 48t-20 56.5t-6.5 59.5t18 57h20q-5 -23 -2 -47.5t10.5 -49t18 -46.5t21.5 -38q31 3 65 5.5t65 11t55 27t36 53.5q-14 21 -12 43.5t14.5 36.5 t33.5 15.5t45 -19.5z" />
<glyph unicode="&#x2d9;" horiz-adv-x="222" d="M187 632q-2 -19 -12 -29.5t-24 -17t-29 -12t-27 -14.5q-7 4 -17.5 7t-19.5 7.5t-14.5 11.5t-2.5 20q18 6 36.5 21t37 25.5t37 9t35.5 -28.5z" />
<glyph unicode="&#x2da;" horiz-adv-x="346" d="M307 607q8 -28 9 -63t-9 -65t-33 -49t-63 -14q-31 -7 -58 -0.5t-49.5 21.5t-39.5 36.5t-28 45.5q7 31 9 64.5t9 64.5t23.5 55t51.5 36q31 14 51.5 13t34.5 -12t24 -29.5t19 -37.5t20.5 -37t28.5 -29zM248 476q12 14 15 37t-1.5 49t-16 51.5t-27.5 44t-36.5 26t-42.5 -2.5 q-21 -12 -27.5 -35.5t-6.5 -50t2.5 -53.5t-1.5 -46q29 -20 69.5 -26.5t72.5 6.5z" />
<glyph unicode="&#x2db;" horiz-adv-x="362" d="M168 4q-3 -18 -13.5 -32.5t-24 -27t-27.5 -24.5t-24.5 -26.5t-15 -32.5t2.5 -41q30 -14 65.5 -19t71.5 -1t69 16.5t59 33.5q8 -3 10 -7.5t1.5 -10t-2 -12t-1.5 -12.5q-30 -24 -67.5 -41t-78 -24.5t-82 -5t-79.5 18.5q-13 16 -17.5 37t-4.5 43.5t4 45t9 41.5q16 8 31 28 t32 38t36.5 25.5t45.5 -10.5z" />
<glyph unicode="&#x2dc;" d="M800 464q-35 -23 -66 -55t-61.5 -63.5t-61.5 -58.5t-65.5 -39.5t-73 -6.5t-84.5 40q-17 34 -35 53.5t-39.5 32.5t-48 23.5t-60.5 27.5q-35 -17 -54 -42t-32 -55t-23.5 -63.5t-27.5 -67.5h-46q0 17 7 34t16 34t16 34.5t7 34.5q68 137 137 137q51 -17 95.5 -40.5t87.5 -45 t87.5 -36.5t95.5 -15q23 11 39 29.5t30 38.5t28 40.5t31.5 37t41.5 27t59 10.5v-46zM800 464q-35 -23 -66 -55t-61.5 -63.5t-61.5 -58.5t-65.5 -39.5t-73 -6.5t-84.5 40q-17 34 -35 53.5t-39.5 32.5t-48 23.5t-60.5 27.5q-35 -17 -54 -42t-32 -55t-23.5 -63.5t-27.5 -67.5 h-46q0 17 7 34t16 34t16 34.5t7 34.5q68 137 137 137q51 -17 95.5 -40.5t87.5 -45t87.5 -36.5t95.5 -15q23 11 39 29.5t30 38.5t28 40.5t31.5 37t41.5 27t59 10.5v-46zM800 464q-35 -23 -66 -55t-61.5 -63.5t-61.5 -58.5t-65.5 -39.5t-73 -6.5t-84.5 40q-17 34 -35 53.5 t-39.5 32.5t-48 23.5t-60.5 27.5q-35 -17 -54 -42t-32 -55t-23.5 -63.5t-27.5 -67.5h-46q0 17 7 34t16 34t16 34.5t7 34.5q68 137 137 137q51 -17 95.5 -40.5t87.5 -45t87.5 -36.5t95.5 -15q23 11 39 29.5t30 38.5t28 40.5t31.5 37t41.5 27t59 10.5v-46z" />
<glyph unicode="&#x2dd;" horiz-adv-x="295" d="M169 774q-16 -22 -28.5 -47t-25.5 -48.5t-28.5 -44.5t-37.5 -36l-14 14q19 48 49.5 96t70.5 80zM274 754q-14 -18 -25 -39.5t-23.5 -40.5t-29 -31t-41.5 -11q-5 15 0 28t14 26t19 26t14 28q9 0 18 7t18 13t18 6.5t18 -12.5z" />
<glyph unicode="&#x3bc;" horiz-adv-x="747" d="M727 487q20 -124 -17 -226t-120 -185q-41 -31 -86.5 -51.5t-92 -28t-92 -2t-86.5 25.5q-62 31 -107.5 76t-74 99t-38.5 115t0 123q21 61 60.5 111.5t91 86.5t111 56t121.5 20q62 10 109.5 -7.5t86 -51t71 -77t63.5 -84.5zM287 624q-41 -10 -76.5 -34.5t-63.5 -58 t-48 -73.5t-30 -81q-11 -51 6.5 -101.5t53.5 -94t85.5 -78t101.5 -54.5q30 0 64.5 5t68 15t63 25.5t50.5 35.5q41 41 67 86.5t39 92t13.5 92t-10.5 86.5q-10 20 -24.5 31.5t-29.5 19.5t-30 14.5t-25 17.5q-11 0 -12.5 4t1.5 9q3 6 11 14q-21 31 -54.5 43t-72.5 12t-78 -9 t-70 -19zM534 514q0 -30 -5 -56.5t-15 -52.5t-25.5 -52.5t-35.5 -56.5h-110q0 -21 8 -41.5t15.5 -41.5t10.5 -41.5t-7 -41.5q-20 0 -31 9.5t-16 25t-6 35.5t-1 40q-22 63 -39 141.5t-17 159.5q21 14 47.5 27t54.5 21.5t56 10.5t51.5 -5.5t40.5 -27t24 -53.5zM397 541 q-20 0 -31.5 -9.5t-19 -24.5t-14 -34.5t-16.5 -39.5q0 -21 5 -40.5t15 -32t25.5 -16.5t35.5 6q31 10 44 29t18.5 39.5t8 39.5t12.5 29q0 41 -20.5 58.5t-62.5 -4.5z" />
<glyph unicode="&#x2000;" horiz-adv-x="584" />
<glyph unicode="&#x2001;" horiz-adv-x="1169" />
<glyph unicode="&#x2002;" horiz-adv-x="584" />
<glyph unicode="&#x2003;" horiz-adv-x="1169" />
<glyph unicode="&#x2004;" horiz-adv-x="389" />
<glyph unicode="&#x2005;" horiz-adv-x="292" />
<glyph unicode="&#x2006;" horiz-adv-x="194" />
<glyph unicode="&#x2007;" horiz-adv-x="194" />
<glyph unicode="&#x2008;" horiz-adv-x="146" />
<glyph unicode="&#x2009;" horiz-adv-x="233" />
<glyph unicode="&#x200a;" horiz-adv-x="64" />
<glyph unicode="&#x2010;" horiz-adv-x="529" d="M108 349q5 -3 9 -5l6 -3q2 -1 3 -2q22 -9 47.5 -12.5t52 -3.5t53 3t51.5 6l50 6t49 3h14v-16q0 -18 -1 -28t-6 -18q-7 -8 -15.5 -9t-22.5 -1q-23 0 -45 -2.5t-42 -6.5l-5 -1q-24 -3 -49 -6t-52.5 -3t-57 4t-61.5 15l-5 2l3 25l1 5h5h3q2 0 7 3q8 6 8 21v24z" />
<glyph unicode="&#x2011;" horiz-adv-x="529" d="M108 349q5 -3 9 -5l6 -3q2 -1 3 -2q22 -9 47.5 -12.5t52 -3.5t53 3t51.5 6l50 6t49 3h14v-16q0 -18 -1 -28t-6 -18q-7 -8 -15.5 -9t-22.5 -1q-23 0 -45 -2.5t-42 -6.5l-5 -1q-24 -3 -49 -6t-52.5 -3t-57 4t-61.5 15l-5 2l3 25l1 5h5h3q2 0 7 3q8 6 8 21v24z" />
<glyph unicode="&#x2012;" horiz-adv-x="529" d="M108 349q5 -3 9 -5l6 -3q2 -1 3 -2q22 -9 47.5 -12.5t52 -3.5t53 3t51.5 6l50 6t49 3h14v-16q0 -18 -1 -28t-6 -18q-7 -8 -15.5 -9t-22.5 -1q-23 0 -45 -2.5t-42 -6.5l-5 -1q-24 -3 -49 -6t-52.5 -3t-57 4t-61.5 15l-5 2l3 25l1 5h5h3q2 0 7 3q8 6 8 21v24z" />
<glyph unicode="&#x2013;" horiz-adv-x="945" d="M902 430q0 -14 -17.5 -21t-41.5 -10.5t-48.5 -4t-37.5 -0.5q-63 9 -123.5 4.5t-120 -15.5t-118 -25.5t-118 -25.5t-120 -15.5t-123.5 4.5q0 27 8 40.5t21 18.5t29.5 4.5t32.5 -1.5t30.5 0.5t23.5 10.5q81 13 168 21t175.5 15t175.5 14.5t168 21.5q10 -1 18 -5 q7 -4 12.5 -10.5t5.5 -20.5z" />
<glyph unicode="&#x2014;" horiz-adv-x="1265" d="M1224 354q0 -27 -17.5 -36.5t-40.5 -13t-47.5 -6.5t-37.5 -16h-1001l-36 36q40 13 74.5 15.5t68.5 2.5t68.5 2t74.5 16q107 0 219.5 -4.5t223 -4.5t216 9t199.5 36z" />
<glyph unicode="&#x2018;" horiz-adv-x="258" d="M28 483q12 25 27 55t33.5 58.5t39.5 54t44 41.5q7 0 15.5 1.5t15.5 1t12 -4.5t7 -13q-25 -10 -37 -30.5t-20 -44t-15 -48t-20.5 -42.5t-37 -27t-64.5 -2z" />
<glyph unicode="&#x2019;" horiz-adv-x="230" d="M187 776q-9 -51 -19 -87.5t-24 -68t-32.5 -62.5t-43.5 -70l-25 10q25 36 33.5 65.5t11 59t5 62.5t17.5 77z" />
<glyph unicode="&#x201a;" horiz-adv-x="243" d="M195 218q12 -29 1.5 -49t-31.5 -36t-45 -31t-38 -34q-10 -5 -17.5 2t-12.5 15q1 15 11.5 26t24 20.5t27 18t21 18.5t5.5 22t-19 28q-12 2 -18.5 -3t-12 -11t-12.5 -10t-20 0q-10 6 -14 16t-3.5 21t5 21t12.5 16q19 7 39 7.5t39 -5.5t34 -19t24 -33z" />
<glyph unicode="&#x201c;" horiz-adv-x="424" d="M212 763q6 -39 -7 -78t-35.5 -76.5t-50.5 -73t-53 -66.5l-21 -2q-4 39 12 79t42 78.5t56.5 73.5t56.5 65zM409 798q-23 -38 -39.5 -81t-35.5 -83.5t-43 -73.5t-61 -49q-14 -3 -21 2t-9.5 14t-0.5 19t5 16q21 34 46 66t49.5 62.5t47 59.5t38.5 58z" />
<glyph unicode="&#x201d;" horiz-adv-x="420" d="M236 751q-32 -71 -79.5 -139t-104.5 -125l-14 19l124 248q5 -1 16 0.5t23 2t22 0t13 -5.5zM386 761q-19 -28 -32 -56.5t-25.5 -58t-27 -61.5t-35.5 -67q-5 -6 -13.5 -12.5t-18 -9.5t-18 0t-12.5 16q21 18 31.5 40.5t16.5 47t11 49.5t16 48.5t31 43.5t55 35z" />
<glyph unicode="&#x201e;" horiz-adv-x="399" d="M342 329q2 -30 -3 -59.5t-18 -56t-34 -48.5t-51 -35h-16q6 13 20.5 27.5t29 31t24.5 35.5t7 43q-12 0 -30 -0.5t-34.5 3.5t-27.5 14.5t-10 33.5q7 27 31.5 42.5t47.5 29.5q13 -1 20.5 -8t13.5 -16t12.5 -19.5t17.5 -17.5zM122 166q-7 -2 -11 -9.5t-14 -5.5q-11 21 -8 44 t6 45t-1.5 42t-31.5 36q-3 13 3 17.5t15.5 7t19 7t13.5 17.5q27 -5 36.5 -17.5t9 -30t-8 -37.5t-15.5 -40.5t-13 -40t0 -35.5z" />
<glyph unicode="&#x2020;" horiz-adv-x="591" d="M284 755v-6q0 -16 0.5 -37t4.5 -43t11.5 -43t22.5 -36h250v-51q-67 -12 -121 -21q-23 -4 -45 -7.5t-40 -6.5t-29.5 -5t-12.5 -2q-5 -18 -6.5 -36t-1.5 -37q0 -38 5.5 -77t13.5 -81q7 -42 13 -83t6 -82q0 -36 -6.5 -70.5t-23.5 -67.5l-11 3q0 3 -1 6q-1 2 -1.5 5t-2.5 7 q-10 16 -31 16h-8l2 7q9 36 13 72t4 72q0 88 -18 174t-40 171q-8 1 -23 3q-12 1 -25 2.5t-25.5 1t-23 -4t-16.5 -10.5q-15 -20 1 -68l-10 -6q-12 11 -23 19t-21 14q-17 11 -28.5 21.5t-11.5 33.5v4q57 23 103 41q19 8 37.5 15.5t33 13t24 9.5l9.5 4q6 6 8.5 15t2.5 20 q0 10 -1.5 21t-3.5 22t-3 21.5t-1 20.5t2 18.5t7 14.5q12 13 35 13h6z" />
<glyph unicode="&#x2021;" horiz-adv-x="412" d="M224 758v-196q15 1 28 3t25 5q25 5 50 6.5t57 -15.5l3 -1v-4q0 -35 -16 -45q-12 -9 -28.5 -5.5t-33.5 9.5q-15 5 -29 8.5t-22 -3.5v-255q11 -11 22 -15.5t22 -4.5t21.5 2.5t21.5 5.5q10 3 20.5 5.5t20.5 1t18.5 -7.5t15.5 -20l2 -3l-2 -3q-7 -13 -17 -20t-21.5 -10.5 t-24 -4t-24.5 -0.5q-23 0 -43 -3t-31 -23q8 -17 10.5 -33t2.5 -32q0 -18 -3 -35t-6 -31q-5 -22 -5 -32v-6h-46v6q0 17 2.5 33t5.5 33q2 17 4.5 32.5t2.5 31.5q0 15 -2.5 29.5t-10.5 29.5h-165v6q0 14 11 22t27.5 11.5t34.5 4t32 0.5h58q0 71 -4 138t-27 115l-1 2v1 q0 18 -15.5 22t-41.5 4q-2 -2 -8 -7.5t-14 -13.5l-19 -19v14q0 8 -7.5 14t-21.5 13q-13 6 -24.5 14.5t-11.5 23.5v4l3 1q26 14 46.5 11t40.5 -10q17 -6 34 -9t39 7v198h44z" />
<glyph unicode="&#x2022;" horiz-adv-x="334" d="M300 368q0 -33 -14.5 -58.5t-35 -46t-43.5 -38t-39 -33.5q-17 0 -39.5 7.5t-43 20t-35 28t-14.5 31.5q0 33 8 65t24.5 57t41.5 40t58 15q33 16 51.5 10.5t31 -22t22.5 -38.5t27 -38z" />
<glyph unicode="&#x2026;" horiz-adv-x="947" d="M263 140q0 -21 -1 -41t-5.5 -40.5t-15.5 -40.5t-30 -39q-41 0 -64 9t-38 24t-27.5 34t-32.5 39q0 21 9 32t24 16t34.5 6t40.5 1h106zM588 85q20 -20 14.5 -31t-20.5 -16q-18 -6 -47 -7h-163q13 13 30.5 34t37 40.5t40.5 33.5t40.5 16t37 -14t30.5 -56zM911 31l-53 -52 q-21 -21 -33 -23.5t-22 2.5t-22 13t-32 8q0 19 1 39t6 40.5t16 40.5t31 41q0 -21 17 -33t37 -22t37 -22t17 -32z" />
<glyph unicode="&#x202f;" horiz-adv-x="233" />
<glyph unicode="&#x2030;" horiz-adv-x="1540" d="M502 547v-50q25 0 42.5 14.5t31 35.5t25.5 44t26 39.5t32 23t43 -5.5q-38 -75 -83.5 -142.5t-92.5 -133t-92.5 -133t-82.5 -142.5q-19 -19 -39 -37t-43 -32.5t-52 -23t-66 -8.5v50l250 301q-19 0 -38 -8.5t-37.5 -23t-37.5 -32.5t-38 -37q-18 0 -44.5 8.5t-55 23 t-55 32.5t-45.5 37q0 38 8 67t17 52t17 42.5t8 38.5q0 18 16 29t34.5 20.5t34.5 20.5t16 31q37 18 81.5 19t86.5 -13t77.5 -41.5t55.5 -65.5zM300 596q-56 0 -87 -17t-50 -45t-31.5 -64t-31.5 -74q0 -25 11.5 -38t29.5 -18.5t40.5 -5t44.5 3.5t41.5 6t32.5 3q19 18 45 38 t49 43.5t39.5 52.5t16.5 66q-18 18 -37 28t-37.5 14.5t-37.5 5.5t-38 1zM601 347q12 -25 14 -53.5t0.5 -58t-2.5 -58t6.5 -53.5t26 -45t56.5 -33q-20 38 -22 83.5t2.5 92.5t12 92t7.5 82q-20 0 -31 -1t-20.5 -5.5t-20.5 -14.5t-29 -28zM1151 246q13 -37 10.5 -63t-15 -44 t-32 -30t-40.5 -21.5t-40.5 -19t-32.5 -22.5q-19 0 -37.5 8.5t-37 23t-37 32.5t-37.5 37q19 37 30 66.5t20 58t20 58t29 66.5q38 -18 67 -37t52.5 -37.5t43 -37.5t37.5 -38zM1502 246q0 -37 -16.5 -58t-39.5 -35t-49.5 -25.5t-45.5 -30.5q-37 -19 -65 -13t-46.5 25t-27.5 44 t-9 43q0 19 8.5 45t22.5 49.5t31.5 40t36.5 16.5q18 0 44.5 -1.5t55 -11t55 -30t45.5 -58.5zM1302 297q-75 -77 0 -150q18 0 36.5 8.5t32.5 22.5t23 31.5t9 36.5q-15 1 -32 6q-14 5 -32.5 15t-36.5 30zM1001 246l-50 -99h50q19 0 37 1.5t32.5 11t23 29.5t8.5 57 q-19 19 -37 21.5t-32 -2.5q-17 -5 -32 -19z" />
<glyph unicode="&#x2039;" horiz-adv-x="402" d="M336 553l20 -2v-44l-3 -2q-22 -22 -49 -36.5t-55 -27.5l-4 -1q-22 -10 -42.5 -20.5t-37.5 -24t-29.5 -30.5t-17.5 -41q6 -5 25 -19.5t42.5 -33t48.5 -37.5t44 -34l2 -2v-1q4 -2 7 -5q13 -7 20 -15v-1h1q2 -6 2 -10q0 -9 -10 -18l-8 -5q-1 0 -3 1l-4 2q-32 13 -60.5 33.5 t-55.5 42.5l-6 5q-27 22 -56 42t-61 32l-7 1v7v2q-1 1 -1 4q0 13 7.5 19t15.5 11l1 1q5 2 9 4.5t7 6.5q8 26 23 44.5t33.5 32t40 24t43.5 19.5l3 2q36 14 64.5 30t48.5 42z" />
<glyph unicode="&#x203a;" horiz-adv-x="451" d="M103 532l311 -230l-6 -9q-19 -38 -58.5 -75t-81.5 -73l-1 -1q-1 0 -1 -1q-26 -21 -46 -38.5t-36 -33.5l-13 -13l-16 11q-11 7 -21 16.5t-10 22.5v4q2 13 15.5 21.5t30.5 16.5l1 1h1q14 7 29 15t23 19l3 4q2 0 3 1q1 0 1.5 0.5t1.5 0.5q90 38 95 73v4q0 15 -13.5 30.5 t-35 31t-48 30.5t-52.5 29l-4 2q-42 24 -79 46.5t-56 47.5l-2 4v43h65z" />
<glyph unicode="&#x2044;" horiz-adv-x="500" d="M529 820l44 -56l-1 -1q-83 -123 -160.5 -249t-151 -253.5t-144 -255.5t-139.5 -254v-1h-2h-13q-9 -2 -18 -1.5t-15 5.5q-6 6 -6 19v1q95 180 198 355.5t206 348.5q50 84 100.5 169t99.5 170z" />
<glyph unicode="&#x205f;" horiz-adv-x="292" />
<glyph unicode="&#x20ac;" horiz-adv-x="788" d="M335 661q129 108 261 87l28 -5l-20 -19q-2 -1 -2 -1.5t-1 -1.5l4 -2q8 -2 10 -6t2 -8q0 -1 -1 -2q0 -2 -2.5 -7t-12.5 -5h-13l-12 12q-5 5 -10.5 10t-7.5 7q-81 -3 -153 -78q-34 -34 -61.5 -75t-50.5 -77q-4 -6 -7.5 -11.5t-6.5 -11.5q29 -6 58.5 -13.5t59.5 -15.5 q83 -21 168.5 -39t181.5 -18l5 -27q-38 -15 -77.5 -19.5t-80 -2t-81.5 10t-81 15.5q-45 9 -86.5 16.5t-80.5 8.5q-9 -23 -9 -40q0 -10 2 -19t4 -20l4 -22t3 -24h19q17 0 35 0.5t38 1.5q40 2 79.5 2.5t75.5 -5.5q84 -13 120 -67l14 -22h-26q-23 0 -48.5 4t-54.5 9 q-28 5 -57.5 9t-58 5t-54.5 -3.5t-48 -16.5q12 -53 58 -74q24 -11 53.5 -15.5t62.5 -6.5q27 -3 53.5 -6t51 -10.5t46 -20.5t38.5 -35l17 -22h-28q-46 0 -92.5 1t-93.5 6.5t-94 18t-93 35.5l-4 2q-15 30 -28 55q-11 21 -21.5 40.5t-12.5 24.5q-41 0 -68 4.5t-52 25.5 q-9 2 -13 6t-6 7q-2 6 -2 9q0 10 6 19t11 14l4 5h91q2 4 2 8q0 8 -4.5 19.5t-11.5 27.5q-7 15 -13 32t-9 35q-5 -2 -10.5 -4t-11.5 -4q-24 -9 -47 -15t-40 5q-15 10 -15 35v6l4 4q13 12 29.5 18.5t33.5 10t33.5 4.5t28.5 1q42 69 87 125t92 95z" />
<glyph unicode="&#x2122;" horiz-adv-x="1117" d="M544 512q-21 -21 -42.5 -32.5t-42.5 -16.5t-42.5 -6t-42.5 -1q-21 -42 -23.5 -84t2.5 -84t13 -84t8 -84q-21 0 -32.5 18.5t-16.5 44.5t-6 54t-1 48v113q-28 14 -55.5 12t-54 -11.5t-51 -21t-46.5 -16.5t-40.5 2t-32.5 35q63 22 126.5 50.5t126.5 49.5t126 28t127 -14z M1051 63v-56q-42 21 -57.5 51.5t-21 67.5t-9.5 77.5t-25 81.5q-15 -13 -25 -34t-18 -44.5t-14.5 -45t-14 -35.5t-17.5 -17t-23 11l-113 165q-14 -13 -19.5 -34.5t-7.5 -46t-1 -50t-1 -45.5t-7.5 -33t-19.5 -13q-21 42 -31 93t-5 103.5t27.5 103.5t64.5 93q22 -22 34.5 -52 t23 -61.5t22.5 -61t33 -48.5q0 41 9.5 73t25 58t35.5 48t42 44q28 -15 43.5 -41.5t23 -61t10.5 -73.5l6 -78t9 -75t21 -64z" />
<glyph unicode="&#x2212;" horiz-adv-x="577" d="M538 317q0 -24 -0.5 -37.5t-5 -19.5t-14 -7t-26.5 -1q-52 0 -104 -9t-108 -15t-117 -3t-130 27q12 1 22 8q8 6 15.5 19t7.5 38q52 -24 111 -27t119 3t119 15t111 9z" />
<glyph unicode="&#xe000;" horiz-adv-x="510" d="M0 510h510v-510h-510v510z" />
<glyph unicode="&#xfb01;" horiz-adv-x="822" d="M360 761q56 18 135 10q35 -4 69.5 -12t67.5 -18.5t63.5 -22t56.5 -21.5l3 -1l25 -26l1 -3q4 -15 0.5 -27.5t-11 -22.5t-18 -18t-19.5 -15q-13 -8 -21 -16l-3 -3h-50q11 16 21 31q8 12 16.5 24.5t12.5 17.5q-116 70 -278 70h-1q-32 4 -59 -5.5t-47.5 -27.5t-34.5 -41.5 t-21 -48.5q-12 -57 -12 -115q0 -93 29 -175q18 2 35.5 6t34.5 9q43 11 86.5 16.5t91.5 -11.5l18 -6l-14 -14q-20 -20 -54 -26.5t-69 -10.5q-36 -5 -68.5 -11.5t-44.5 -26.5q-14 -24 9 -76l1 -3v-2q0 -11 2.5 -22t5.5 -23q6 -23 10 -48.5t-8 -54.5l-3 -7h-51l-2 10 q-5 31 -7 60t-4 57q-2 23 -4 46.5t-5 48.5q-26 5 -51.5 -2.5t-51.5 -17.5t-51.5 -16.5t-48.5 2.5l-7 3v38q47 17 87 31q16 6 32.5 11.5t30.5 10t23.5 8t12.5 4.5q-2 20 -4.5 40.5t-4.5 40.5q-5 38 -9 75t-4 74q0 48 10 92.5t37 82.5q45 57 114 78zM618 435l9 -17 q14 -29 18.5 -62.5t6.5 -67.5q1 -23 3.5 -44t7.5 -40.5t14 -36.5t24 -30l5 -4l-13 -80l-7 -2q-27 -10 -45 0q-14 8 -18 23.5t-7 31.5q-2 11 -3.5 21t-6.5 16l-2 3v4q0 21 -3.5 44t-8.5 46q-5 24 -8.5 48.5t-3.5 48t6 45t21 39.5z" />
<glyph unicode="&#xfb02;" horiz-adv-x="877" d="M379 819q31 10 67 12.5t77 -1.5q37 -4 75 -13t73 -20.5t67 -23.5t58 -22l3 -1l27 -27l1 -3q4 -16 0 -29t-12 -24t-18.5 -19.5t-20.5 -15.5q-6 -5 -11.5 -9t-9.5 -8l-4 -4h-51q11 18 22 34q9 14 17.5 26.5t12.5 18.5q-127 73 -298 73h-1h-1q-61 8 -110 -32 q-45 -37 -62 -99q-13 -58 -13 -121q0 -12 0.5 -24t1.5 -24q6 -74 30 -142q20 4 40 9.5t40 11.5q22 7 44 13.5t45 9.5t46.5 1t48.5 -11l16 -6l-11 -13q-11 -13 -26.5 -21t-33.5 -13.5t-38 -9t-40 -6.5q-19 -3 -37 -6t-33 -7.5t-26.5 -11.5t-17.5 -17q-14 -26 10 -81l1 -2v-3 q0 -12 2.5 -24t6.5 -25q6 -24 9.5 -51t-9.5 -57l-3 -7h-52l-2 10q-5 32 -7.5 63t-4.5 60q-2 25 -4 50.5t-6 51.5q-27 5 -54.5 -2.5t-54.5 -18.5q-29 -11 -55.5 -18t-51.5 3l-7 3v39q52 21 93 38q18 7 35 14t31.5 13t24.5 10t13 6q-2 19 -4.5 38.5t-4.5 40.5q-5 39 -9.5 78.5 t-4.5 77.5q0 50 10.5 96.5t39.5 87.5q48 61 121 84zM629 670q12 0 29 -9.5t17 -25.5v-1v-1q-11 -74 -7.5 -145t16.5 -139.5t32 -134.5t39 -131q6 -21 12.5 -42.5t12.5 -43.5l2 -6l-25 -28l-9 12q-95 137 -128 325q-15 87 -16 178t13 182l2 10h10z" />
</font>
</defs>
</svg>
